<svg version="1.1" xmlns="http://www.w3.org/2000/svg" xmlns:xlink="http://www.w3.org/1999/xlink" width="500" height="500"><g data-paper-data="{&quot;description&quot;:&quot;Logo for Jinan EL-oumda\n=======================\n\nThis logo was generated by MarkMaker at http://emblemmatic.org/markmaker/ and may be composed of elements designed by others.\n\nThe font is Yeseva One designed by Jovanny Lemonad and released under the OFL license via Google Fonts: https://www.google.com/fonts/specimen/Yeseva%20One. The font includes this copyright statement: Copyright (c) 2011-2012, Jovanny Lemonad (lemonad@jovanny.ru), with Reserved Font Name 'Yeseva'\n\nMarkMaker uses semantic data from the Princeton University WordNet database http://wordnet.princeton.edu and font descriptions from Google Fonts https://www.google.com/fonts.&quot;}" fill="none" fill-rule="nonzero" stroke="none" stroke-width="none" stroke-linecap="butt" stroke-linejoin="miter" stroke-miterlimit="10" stroke-dasharray="" stroke-dashoffset="0" font-family="none" font-weight="none" font-size="none" text-anchor="none" style="mix-blend-mode: normal"><path d="M50,296.71728v-93.43455h400v93.43455z" fill="none" stroke="#691b2d" stroke-width="3.5"></path><g data-paper-data="{&quot;elementType&quot;:&quot;logo&quot;}" fill="#691b2d" stroke="none" stroke-width="1"><g data-paper-data="{&quot;elementType&quot;:&quot;text&quot;}"><g data-paper-data="{&quot;baseline&quot;:71.5,&quot;elementType&quot;:&quot;row&quot;}"><g data-paper-data="{&quot;baselineProportion&quot;:0.9793103448275862,&quot;fontSize&quot;:100,&quot;baseline&quot;:71,&quot;elementType&quot;:&quot;word&quot;}"><path d="M153.75602,260.54215c0.52965,0 1.01856,-0.10186 1.46673,-0.30557c0.44817,-0.20371 0.83522,-0.53984 1.16116,-1.00838c0.32594,-0.46854 0.58058,-1.08477 0.76392,-1.8487c0.18334,-0.76392 0.27501,-1.69591 0.27501,-2.79596v-14.36177l-1.83342,-0.45835v-0.45835h8.70873v0.45835l-1.83342,0.45835v14.36177c0,2.0575 -0.6417,3.66683 -1.92509,4.828c-1.28339,1.16116 -3.34089,1.74175 -6.1725,1.74175c-0.99819,0 -1.85379,-0.09676 -2.56678,-0.29029c-0.713,-0.19353 -1.29867,-0.44817 -1.75702,-0.76392c-0.45835,-0.31576 -0.79448,-0.67225 -1.00838,-1.06949c-0.2139,-0.39724 -0.32085,-0.80976 -0.32085,-1.23756c0,-0.69262 0.20881,-1.24774 0.62642,-1.66535c0.41761,-0.41761 0.97273,-0.62642 1.66535,-0.62642c0.16297,0 0.31066,0.01019 0.44308,0.03056c0.13241,0.02037 0.25973,0.04074 0.38196,0.06111c0.12223,0.02037 0.25464,0.04074 0.39724,0.06111v4.58354c0.12223,0.06111 0.26483,0.11204 0.4278,0.15278c0.30557,0.10186 0.67225,0.15278 1.10005,0.15278z" data-paper-data="{&quot;elementType&quot;:&quot;letter&quot;,&quot;baseline&quot;:70,&quot;baselineProportion&quot;:0.9790209790209791,&quot;fontSize&quot;:100}"></path><path d="M166.86496,239.76342v-0.45835h8.70873v0.45835l-1.83342,0.45835v19.55645l1.83342,0.45835v0.45835h-8.70873v-0.45835l1.83342,-0.45835v-19.55645z" data-paper-data="{&quot;elementType&quot;:&quot;letter&quot;,&quot;baseline&quot;:70,&quot;baselineProportion&quot;:1,&quot;fontSize&quot;:100}"></path><path d="M195.40515,240.68013l-2.44456,-0.91671v-0.45835h5.80582v0.45835l-2.44456,0.91671v20.47316h-0.91671l-14.20898,-16.65354v14.82012l2.44456,0.91671v0.45835h-5.80582v-0.45835l2.44456,-0.91671v-18.94531l-2.13899,-0.61114v-0.45835h3.20848c0.61114,0 1.14079,0.06621 1.58896,0.19862c0.44817,0.13241 0.84032,0.30557 1.17644,0.51947c0.33613,0.2139 0.62642,0.44817 0.87087,0.70281c0.24446,0.25464 0.45835,0.494 0.6417,0.71809l9.77822,11.45886z" data-paper-data="{&quot;elementType&quot;:&quot;letter&quot;,&quot;baseline&quot;:70,&quot;baselineProportion&quot;:0.9790209790209791,&quot;fontSize&quot;:100}"></path><path d="M203.47218,260.23658v0.45835h-5.65304v-0.45835l2.44456,-0.91671l8.40316,-20.32037h0.91671l8.70873,20.77873l1.52785,0.45835v0.45835h-3.66683c-1.14079,0 -2.03713,-0.25973 -2.68901,-0.7792c-0.65188,-0.51947 -1.12042,-1.12551 -1.40562,-1.81814l-1.5584,-3.66683h-7.30311l-2.01676,4.88911l2.29177,0.91671M203.50274,253.66683h6.69197l-3.36126,-8.03648z" data-paper-data="{&quot;elementType&quot;:&quot;letter&quot;,&quot;baseline&quot;:71,&quot;baselineProportion&quot;:1,&quot;fontSize&quot;:100}"></path><path d="M237.51262,240.68013l-2.44456,-0.91671v-0.45835h5.80582v0.45835l-2.44456,0.91671v20.47316h-0.91671l-14.20898,-16.65354v14.82012l2.44456,0.91671v0.45835h-5.80582v-0.45835l2.44456,-0.91671v-18.94531l-2.13899,-0.61114v-0.45835h3.20848c0.61114,0 1.14079,0.06621 1.58896,0.19862c0.44817,0.13241 0.84032,0.30557 1.17644,0.51947c0.33613,0.2139 0.62642,0.44817 0.87087,0.70281c0.24446,0.25464 0.45835,0.494 0.6417,0.71809l9.77822,11.45886z" data-paper-data="{&quot;elementType&quot;:&quot;letter&quot;,&quot;baseline&quot;:70,&quot;baselineProportion&quot;:0.9790209790209791,&quot;fontSize&quot;:100}"></path></g><g data-paper-data="{&quot;baselineProportion&quot;:0.9794520547945206,&quot;fontSize&quot;:100,&quot;baseline&quot;:71.5,&quot;elementType&quot;:&quot;word&quot;}"><path d="M262.2624,249.69443c0.08149,-0.40743 0.19353,-0.79957 0.33613,-1.17644c0.1426,-0.37687 0.29538,-0.7079 0.45835,-0.9931c0.18334,-0.32594 0.37687,-0.62132 0.58058,-0.88615h0.91671v6.87531h-0.91671c-0.20371,-0.26483 -0.39724,-0.56021 -0.58058,-0.88615c-0.16297,-0.2852 -0.31576,-0.61114 -0.45835,-0.97782c-0.1426,-0.36668 -0.25464,-0.76392 -0.33613,-1.19172h-3.51405v9.47265h7.18088c0,-0.79448 0.10186,-1.4871 0.30557,-2.07787c0.20371,-0.59077 0.4278,-1.08986 0.67225,-1.49729c0.2852,-0.46854 0.62132,-0.85559 1.00838,-1.16116h0.91671v5.50025h-16.95911v-0.45835l1.83342,-0.45835v-19.55645l-1.83342,-0.45835v-0.45835h16.34797v5.50025h-0.91671c-0.38705,-0.30557 -0.72318,-0.69262 -1.00838,-1.16116c-0.24446,-0.40743 -0.46854,-0.90143 -0.67225,-1.48201c-0.20371,-0.58058 -0.30557,-1.2783 -0.30557,-2.09315h-6.56974v9.62544z" data-paper-data="{&quot;elementType&quot;:&quot;letter&quot;,&quot;baseline&quot;:70,&quot;baselineProportion&quot;:1,&quot;fontSize&quot;:100}"></path><path d="M280.10766,239.30507v0.45835l-1.83342,0.45835v19.70923h6.56974c0,-0.79448 0.10186,-1.4871 0.30557,-2.07787c0.20371,-0.59077 0.4278,-1.08986 0.67225,-1.49729c0.2852,-0.46854 0.62132,-0.85559 1.00838,-1.16116h0.91671v5.50025h-16.34797v-0.45835l1.83342,-0.45835v-19.55645l-1.83342,-0.45835v-0.45835z" data-paper-data="{&quot;elementType&quot;:&quot;letter&quot;,&quot;baseline&quot;:70,&quot;baselineProportion&quot;:1,&quot;fontSize&quot;:100}"></path><path d="M299.78633,250.15278v1.37506h-12.22278v-1.37506z" data-paper-data="{&quot;elementType&quot;:&quot;letter&quot;,&quot;baseline&quot;:34.5,&quot;baselineProportion&quot;:7.666666666666667,&quot;fontSize&quot;:100}"></path><path d="M321.90957,250c0,1.79267 -0.23936,3.38164 -0.71809,4.76688c-0.47873,1.38525 -1.15098,2.55151 -2.01676,3.49877c-0.86578,0.94727 -1.90981,1.66535 -3.13209,2.15426c-1.22228,0.48891 -2.57697,0.73337 -4.06407,0.73337c-1.4871,0 -2.8418,-0.24446 -4.06407,-0.73337c-1.22228,-0.48891 -2.26631,-1.207 -3.13209,-2.15426c-0.86578,-0.94727 -1.53803,-2.11352 -2.01676,-3.49877c-0.47873,-1.38525 -0.71809,-2.97421 -0.71809,-4.76688c0,-1.79267 0.23936,-3.38164 0.71809,-4.76688c0.47873,-1.38525 1.15098,-2.55151 2.01676,-3.49877c0.86578,-0.94727 1.90981,-1.66535 3.13209,-2.15426c1.22228,-0.48891 2.57697,-0.73337 4.06407,-0.73337c1.4871,0 2.8418,0.24446 4.06407,0.73337c1.22228,0.48891 2.26631,1.207 3.13209,2.15426c0.86578,0.94727 1.53803,2.11352 2.01676,3.49877c0.47873,1.38525 0.71809,2.97421 0.71809,4.76688zM316.5621,250c0,-2.01676 -0.13751,-3.70248 -0.41252,-5.05718c-0.27501,-1.35469 -0.63151,-2.43946 -1.06949,-3.25432c-0.43798,-0.81485 -0.93199,-1.39034 -1.48201,-1.72647c-0.55003,-0.33613 -1.08986,-0.50419 -1.61952,-0.50419c-0.52965,0 -1.06949,0.16806 -1.61952,0.50419c-0.55003,0.33613 -1.04403,0.91162 -1.48201,1.72647c-0.43798,0.81485 -0.79448,1.89962 -1.06949,3.25432c-0.27501,1.35469 -0.41252,3.04042 -0.41252,5.05718c0,2.01676 0.13751,3.70248 0.41252,5.05718c0.27501,1.35469 0.63151,2.43946 1.06949,3.25432c0.43798,0.81485 0.93199,1.39034 1.48201,1.72647c0.55003,0.33613 1.08986,0.50419 1.61952,0.50419c0.52965,0 1.06949,-0.16806 1.61952,-0.50419c0.55003,-0.33613 1.04403,-0.91162 1.48201,-1.72647c0.43798,-0.81485 0.79448,-1.89962 1.06949,-3.25432c0.27501,-1.35469 0.41252,-3.04042 0.41252,-5.05718" data-paper-data="{&quot;elementType&quot;:&quot;letter&quot;,&quot;baseline&quot;:71.5,&quot;baselineProportion&quot;:0.9794520547945206,&quot;fontSize&quot;:100}"></path><path d="M341.28267,240.68013l-2.44456,-0.91671v-0.45835h5.80582v0.45835l-2.44456,0.91671v12.37556c0,1.26302 -0.17825,2.39363 -0.53475,3.39182c-0.3565,0.99819 -0.8505,1.8487 -1.48201,2.55151c-0.63151,0.70281 -1.37506,1.23756 -2.23066,1.60424c-0.85559,0.36668 -1.78249,0.55003 -2.78068,0.55003c-3.05569,0 -5.34747,-0.71809 -6.87531,-2.15426c-1.52785,-1.43618 -2.29177,-3.41729 -2.29177,-5.94333v-12.83392l-1.83342,-0.45835v-0.45835h8.70873v0.45835l-1.83342,0.45835v12.83392c0,1.38525 0.11204,2.54132 0.33613,3.46821c0.22408,0.92689 0.53984,1.68063 0.94727,2.26121c0.40743,0.58058 0.90143,0.9931 1.48201,1.23756c0.58058,0.24446 1.23756,0.36668 1.97092,0.36668c0.69262,0 1.36488,-0.16806 2.01676,-0.50419c0.65188,-0.33613 1.23756,-0.81994 1.75702,-1.45146c0.51947,-0.63151 0.93708,-1.40053 1.25283,-2.30705c0.31576,-0.90652 0.47363,-1.93018 0.47363,-3.07097z" data-paper-data="{&quot;elementType&quot;:&quot;letter&quot;,&quot;baseline&quot;:70,&quot;baselineProportion&quot;:0.9790209790209791,&quot;fontSize&quot;:100}"></path><path d="M373.18413,239.30507v0.45835l-1.83342,0.45835v19.55645l1.83342,0.45835v0.45835h-8.70873v-0.45835l1.83342,-0.45835v-16.65354l-7.18088,17.87582h-0.91671l-9.31987,-17.87582v16.19518l2.44456,0.91671v0.45835h-5.80582v-0.45835l2.44456,-0.91671v-19.09809l-1.83342,-0.45835v-0.45835h3.81962c0.5704,0 1.06949,0.06621 1.49729,0.19862c0.4278,0.13241 0.80467,0.31066 1.13061,0.53475c0.32594,0.22408 0.60605,0.494 0.84032,0.80976c0.23427,0.31576 0.45326,0.66716 0.65697,1.05421l6.66141,12.74225l5.10301,-12.74225c0.16297,-0.4278 0.3514,-0.79957 0.5653,-1.11533c0.2139,-0.31576 0.47363,-0.58567 0.7792,-0.80976c0.30557,-0.22408 0.68244,-0.39215 1.13061,-0.50419c0.44817,-0.11204 0.99819,-0.16806 1.65008,-0.16806z" data-paper-data="{&quot;elementType&quot;:&quot;letter&quot;,&quot;baseline&quot;:70,&quot;baselineProportion&quot;:0.9859154929577465,&quot;fontSize&quot;:100}"></path><path d="M383.8485,239.30507c3.66683,0 6.46789,0.94217 8.40316,2.82652c1.93527,1.88435 2.90291,4.50715 2.90291,7.86841c0,3.36126 -0.96764,5.98407 -2.90291,7.86841c-1.93527,1.88435 -4.73633,2.82652 -8.40316,2.82652h-7.79202v-0.45835l1.83342,-0.45835v-19.55645l-1.83342,-0.45835v-0.45835h7.79202M382.93179,240.06899v19.86202h0.91671c0.87597,0 1.68063,-0.16806 2.414,-0.50419c0.73337,-0.33613 1.35978,-0.89124 1.87925,-1.66535c0.51947,-0.77411 0.92689,-1.79267 1.22228,-3.05569c0.29538,-1.26302 0.44308,-2.83161 0.44308,-4.70577c0,-1.87416 -0.14769,-3.44275 -0.44308,-4.70577c-0.29538,-1.26302 -0.70281,-2.28159 -1.22228,-3.05569c-0.51947,-0.77411 -1.14589,-1.32923 -1.87925,-1.66535c-0.73337,-0.33613 -1.53803,-0.50419 -2.414,-0.50419z" data-paper-data="{&quot;elementType&quot;:&quot;letter&quot;,&quot;baseline&quot;:70,&quot;baselineProportion&quot;:1,&quot;fontSize&quot;:100}"></path><path d="M400.3187,260.23658v0.45835h-5.65304v-0.45835l2.44456,-0.91671l8.40316,-20.32037h0.91671l8.70873,20.77873l1.52785,0.45835v0.45835h-3.66683c-1.14079,0 -2.03713,-0.25973 -2.68901,-0.7792c-0.65188,-0.51947 -1.12042,-1.12551 -1.40562,-1.81814l-1.5584,-3.66683h-7.30311l-2.01676,4.88911l2.29177,0.91671M400.34926,253.66683h6.69197l-3.36126,-8.03648z" data-paper-data="{&quot;elementType&quot;:&quot;letter&quot;,&quot;baseline&quot;:71,&quot;baselineProportion&quot;:1,&quot;fontSize&quot;:100}"></path></g></g></g></g><g data-paper-data="{&quot;elementType&quot;:&quot;emblem&quot;}" fill="#691b2d" stroke="none" stroke-width="1"><g data-paper-data="{&quot;baselineProportion&quot;:0.9790209790209791,&quot;fontSize&quot;:100,&quot;baseline&quot;:70,&quot;elementType&quot;:&quot;word&quot;}"><path d="M89.51054,262.63519c0.64892,0 1.24792,-0.12479 1.79701,-0.37438c0.54908,-0.24958 1.02329,-0.6614 1.42263,-1.23544c0.39933,-0.57404 0.71131,-1.32903 0.93594,-2.26498c0.22463,-0.93594 0.33694,-2.07779 0.33694,-3.42554v-17.59567l-2.24626,-0.56156v-0.56156h10.66972v0.56156l-2.24626,0.56156v17.59567c0,2.5208 -0.78619,4.49251 -2.35857,5.91514c-1.57238,1.42263 -4.09318,2.13394 -7.5624,2.13394c-1.22296,0 -2.27121,-0.11855 -3.14476,-0.35566c-0.87354,-0.2371 -1.5911,-0.54908 -2.15266,-0.93594c-0.56156,-0.38686 -0.97338,-0.82363 -1.23544,-1.31032c-0.26206,-0.48669 -0.39309,-0.9921 -0.39309,-1.51622c0,-0.84859 0.25582,-1.5287 0.76747,-2.04035c0.51165,-0.51165 1.19176,-0.76747 2.04035,-0.76747c0.19967,0 0.38062,0.01248 0.54285,0.03744c0.16223,0.02496 0.31822,0.04992 0.46797,0.07488c0.14975,0.02496 0.31198,0.04992 0.48669,0.07488v5.61564c0.14975,0.07488 0.32446,0.13727 0.52413,0.18719c0.37438,0.12479 0.82363,0.18719 1.34775,0.18719z" data-paper-data="{&quot;elementType&quot;:&quot;letter&quot;,&quot;baseline&quot;:70,&quot;baselineProportion&quot;:0.9790209790209791,&quot;fontSize&quot;:100}"></path><path d="M118.30006,249.34484c0.09983,-0.49917 0.2371,-0.97962 0.41181,-1.44135c0.17471,-0.46173 0.3619,-0.8673 0.56156,-1.21672c0.22463,-0.39933 0.46173,-0.76123 0.71131,-1.08569h1.12313v8.42346h-1.12313c-0.24958,-0.32446 -0.48669,-0.68636 -0.71131,-1.08569c-0.19967,-0.34942 -0.38686,-0.74875 -0.56156,-1.198c-0.17471,-0.44925 -0.31198,-0.93594 -0.41181,-1.46007h-4.30532v11.60566h8.79784c0,-0.97338 0.12479,-1.82196 0.37438,-2.54576c0.24958,-0.72379 0.52413,-1.33527 0.82363,-1.83444c0.34942,-0.57404 0.76123,-1.04825 1.23544,-1.42263h1.12313v6.73877h-20.77787v-0.56156l2.24626,-0.56156v-23.96007l-2.24626,-0.56156v-0.56156h20.02912v6.73877h-1.12313c-0.47421,-0.37438 -0.88602,-0.84859 -1.23544,-1.42263c-0.2995,-0.49917 -0.57404,-1.10441 -0.82363,-1.81572c-0.24958,-0.71131 -0.37438,-1.56614 -0.37438,-2.56448h-8.04909v11.79285z" data-paper-data="{&quot;elementType&quot;:&quot;letter&quot;,&quot;baseline&quot;:70,&quot;baselineProportion&quot;:1,&quot;fontSize&quot;:100}"></path></g></g></g></svg>