<svg xmlns="http://www.w3.org/2000/svg" xmlns:xlink="http://www.w3.org/1999/xlink" width="869.597" height="922" viewBox="0 0 869.597 922">
  <defs>
    <linearGradient id="linear-gradient" x1="0.5" y1="0.519" x2="0.5" y2="-1.752" gradientUnits="objectBoundingBox">
      <stop offset="0.136" stop-color="#0062c7"/>
      <stop offset="1" stop-color="#004a89"/>
    </linearGradient>
    <linearGradient id="linear-gradient-2" x1="0.5" y1="-0.783" x2="0.5" y2="0.587" gradientUnits="objectBoundingBox">
      <stop offset="0" stop-color="#f4f4fa"/>
      <stop offset="0.271" stop-color="#f1f2f9"/>
      <stop offset="0.425" stop-color="#e9eef7"/>
      <stop offset="0.549" stop-color="#dbe7f4"/>
      <stop offset="0.658" stop-color="#c7dcef"/>
      <stop offset="0.756" stop-color="#aecfe9"/>
      <stop offset="0.804" stop-color="#9fc7e6"/>
      <stop offset="0.979" stop-color="#6295c0"/>
    </linearGradient>
    <linearGradient id="linear-gradient-3" x1="0.5" y1="1.845" x2="0.5" y2="0.38" xlink:href="#linear-gradient"/>
    <linearGradient id="linear-gradient-4" x1="0.5" y1="1.104" x2="0.5" y2="0.03" xlink:href="#linear-gradient"/>
    <linearGradient id="linear-gradient-5" x1="0.523" y1="-0.554" x2="0.472" y2="0.762" xlink:href="#linear-gradient-2"/>
    <linearGradient id="linear-gradient-6" x1="0.5" y1="0.992" x2="0.5" y2="0.252" xlink:href="#linear-gradient"/>
    <linearGradient id="linear-gradient-7" x1="0.5" y1="0.962" x2="0.5" y2="0.078" xlink:href="#linear-gradient"/>
    <linearGradient id="linear-gradient-8" x1="0.505" y1="0.011" x2="0.393" y2="1.244" gradientUnits="objectBoundingBox">
      <stop offset="0.457" stop-color="#f4f4fa"/>
      <stop offset="0.564" stop-color="#eff1f8"/>
      <stop offset="0.689" stop-color="#e1eaf5"/>
      <stop offset="0.822" stop-color="#c9ddf0"/>
      <stop offset="0.96" stop-color="#a9cce8"/>
      <stop offset="1" stop-color="#9fc7e6"/>
    </linearGradient>
    <linearGradient id="linear-gradient-9" x1="0.5" y1="1.199" x2="0.5" y2="0.3" xlink:href="#linear-gradient"/>
    <clipPath id="clip-path">
      <circle id="Ellipse_34" data-name="Ellipse 34" cx="42.926" cy="42.926" r="42.926" fill="none"/>
    </clipPath>
    <clipPath id="clip-path-2">
      <circle id="Ellipse_37" data-name="Ellipse 37" cx="42.926" cy="42.926" r="42.926" transform="translate(0 60.707) rotate(-45)" fill="none"/>
    </clipPath>
    <clipPath id="clip-path-3">
      <circle id="Ellipse_39" data-name="Ellipse 39" cx="43.825" cy="43.825" r="43.825" fill="none"/>
    </clipPath>
  </defs>
  <g id="Group_5485" data-name="Group 5485" transform="translate(-499.339 -87.104)">
    <g id="Group_5453" data-name="Group 5453" transform="translate(499.339 87.104)">
      <g id="Group_5452" data-name="Group 5452" transform="translate(87.802 604.957)" opacity="0.34">
        <ellipse id="Ellipse_32" data-name="Ellipse 32" cx="352.866" cy="116.893" rx="352.866" ry="116.893" fill="#4161ac" opacity="0.47"/>
        <path id="Path_2589" data-name="Path 2589" d="M602.932,861.407c-16.97,10.357,5.957,39.817,19.443,43.513s71.248-2.515,77.769-13.986c5.163-9.08-29.134-15.986-43.745-21.756C628.855,858.3,625.382,847.7,602.932,861.407Z" transform="translate(-580.826 -642.368)" fill="#4161ac" opacity="0.47"/>
        <path id="Path_2590" data-name="Path 2590" d="M864.637,913.023c-22.987,18.017,7.862,40.3,28.3,43.461s62.606-7.325,77.187-33.744C979.53,905.7,922.051,868.019,864.637,913.023Z" transform="translate(-564.026 -639.986)" fill="#4161ac" opacity="0.47"/>
        <path id="Path_2591" data-name="Path 2591" d="M1132.153,886.267c-5.245-12.936,38.464-17.407,56.891-20.85,21.809-4.075,50.367-17.586,59.764-5.568,16.224,20.749,19.612,42.925-32.4,46.621S1143.495,914.239,1132.153,886.267Z" transform="translate(-546.213 -642.364)" fill="#4161ac" opacity="0.47"/>
        <path id="Path_2592" data-name="Path 2592" d="M991.045,900.12c11.375-10.91,42.176-16.933,51-5.644,8.26,10.563,11.771,18.816-14.712,20.7S974.37,916.113,991.045,900.12Z" transform="translate(-555.654 -640.199)" fill="#4161ac" opacity="0.47"/>
      </g>
      <path id="Path_2593" data-name="Path 2593" d="M943.817,568.481l-7.452-1.4s-2.58-64.934-8.625-84.592c0,0-82.636-2.231-94.835-71.2,0,0,63.868-22.047,95.076,60.873,0,0-2.9-62.773-16.368-123.091,0,0-62.28,11.235-70.463-50.31,0,0,37.969-19.517,66.114,19.119,0,0-8.228-48.22-17.985-73.022,0,0-47.043,7.437-60.33-45.439,0,0,34.5-4.613,55.846,23.853l-16.089-51.182S831.019,137.581,842.269,87.1c0,0,42.7,22.116,31.737,79.315l15.453,55.506s7.63-51.9,40.769-51.585c0,0,.2,63.747-34.315,72.8,0,0,15.468,51.064,19.591,88.14,0,0-.913-67.584,48.93-76.716,0,0,13.908,52.993-44.2,87.977a1101.18,1101.18,0,0,1,13.974,126.344s-10.547-67.175,47.565-102.16c0,0,30.978,58.431-43.58,118.467A522.539,522.539,0,0,1,943.817,568.481Z" transform="translate(-478.007 -87.104)" fill="#f0eff3"/>
      <path id="Path_2594" data-name="Path 2594" d="M1072.646,709.377l-6.9-4.578s19.131-65.364,19.713-87.405c0,0-81.034-37.565-70.074-111.039,0,0,70.569,5.511,73.76,100.923,0,0,18.095-63.36,24.909-128.816,0,0-65.385-15.531-52.932-79.939,0,0,44.093-3.069,59.043,47.21,0,0,7.96-51.24,6.589-79.958,0,0-49.039-12.769-44.53-70.783,0,0,35.684,10.2,47.3,47.5l1.169-57.534s-25.77-50.275,2.219-95.415c0,0,34.868,40.157,4.92,92.073l-3.243,61.543s24.883-48.1,57.573-33.606c0,0-21.088,63.171-58.271,57.364,0,0-1.745,57.153-10.047,95.608,0,0,21.665-67.274,74.042-54.983,0,0-3.933,58.395-73.125,68.151A1153,1153,0,0,1,1096.394,606.7s12-70.991,81.188-80.747c0,0,11.145,71.08-82.69,98.591A541.3,541.3,0,0,1,1072.646,709.377Z" transform="translate(-466.007 -80.474)" fill="#b9b8c7" opacity="0.19"/>
      <path id="Path_2595" data-name="Path 2595" d="M1174.775,794.568l7.146-.7s6.865-59.745,13.923-77.407c0,0,78.338,4.608,94.579-58.086,0,0-58.927-25.509-94.1,48.533,0,0,7.019-57.724,23.872-112.328,0,0,58.16,15.4,70.1-40.767,0,0-34.594-21.083-63.855,12.319,0,0,11.071-43.857,21.991-65.969,0,0,44,10.662,60.177-37.086,0,0-32.329-7.043-54.463,17.518l18.71-45.958s38.007-28.82,30.8-76.332c0,0-41.906,16.975-35.433,70.671l-18.4,50s-3.683-48.534-35.058-50.916c0,0-4.535,58.839,27.506,69.985,0,0-18.114,45.9-24.541,79.8,0,0,5.469-62.326-41.068-74.778,0,0-16.771,47.806,35.829,84.794a990.92,990.92,0,0,0-21.83,115.524s14.556-61.171-38.044-98.16c0,0-33.291,51.449,33.162,112.894A470.672,470.672,0,0,0,1174.775,794.568Z" transform="translate(-457.599 -69.551)" fill="#f0eff3"/>
      <path id="Path_2596" data-name="Path 2596" d="M747.187,718.386l6.692-5.878s-27.059-64.225-30.073-86.864c0,0,80.285-52.328,60.85-126.284,0,0-72.887,17.506-65.793,116.468,0,0-25.761-62.332-40-128.714,0,0,66.394-26.974,46.393-91.331,0,0-46.253,4.222-56.331,58.593,0,0-13.884-51.525-15.591-81.382,0,0,49.672-21.387,38.644-80.477,0,0-36.048,16.5-44.071,56.924l-7.5-59.156s21.348-56.18-12.728-98.058c0,0-31.928,47.267,4.929,95.806l10.1,62.943s-31.162-45.448-63.623-25.022c0,0,28.858,61.635,66.945,49.414,0,0,8.057,58.667,20.9,96.945,0,0-29.906-65.769-83.108-44.316,0,0,10.472,59.58,83.591,58.053a1142.221,1142.221,0,0,0,43.84,130.4s-20.244-71.226-93.362-69.7c0,0-3.845,75.192,96.875,87.852A533.554,533.554,0,0,0,747.187,718.386Z" transform="translate(-494.179 -80.3)" fill="#b9b8c7" opacity="0.19"/>
      <path id="Path_2597" data-name="Path 2597" d="M692.548,795.051l2.483-5.407s-30.7-28.938-37.752-41.1c0,0,34.064-54.355,5.483-91.2,0,0-37.967,32.028-10.642,87.024,0,0-29.5-28.235-53.307-62.273,0,0,32-35.54,5.342-66.677,0,0-25.709,16.348-18.765,50.767,0,0-20.109-25.569-28.1-42.292,0,0,23.655-27.286,3.417-58.08,0,0-16.938,20.365-12.078,46.116L530.41,580.03s-.865-38.852-30.366-52.778c0,0-7.335,36.889,25.335,53.825l20.6,33.3s-28.659-16.863-42.6,4.691c0,0,31.127,26.9,50.245,8.391,0,0,18.423,31.443,34.823,49.679,0,0-32.7-28.973-58.38-.588,0,0,20.031,31.245,61.883,8.372a634.862,634.862,0,0,0,55.919,62.092s-28.406-35.028-70.258-12.155c0,0,15.431,44.564,76.547,21.579A294.615,294.615,0,0,0,692.548,795.051Z" transform="translate(-499.339 -58.617)" fill="#f0eff3"/>
    </g>
    <g id="Group_5477" data-name="Group 5477" transform="translate(723.158 94.207)">
      <g id="Group_5455" data-name="Group 5455" transform="translate(225.288)">
        <path id="Path_2598" data-name="Path 2598" d="M1316.084,93.775c-.042.044-.079.089-.12.132.014-.014.033-.021.047-.036S1316.057,93.8,1316.084,93.775Z" transform="translate(-895.594 -93.775)" fill="#0f3872"/>
        <g id="Group_5454" data-name="Group 5454" transform="translate(0 130.478)">
          <path id="Path_2599" data-name="Path 2599" d="M1146.728,330.617l-191.048,1.9-34.533-1.9a34.262,34.262,0,0,0,34.161,34.162H1180.89A34.262,34.262,0,0,1,1146.728,330.617Z" transform="translate(-921.147 -208.925)" fill="url(#linear-gradient)"/>
          <path id="Path_2600" data-name="Path 2600" d="M1212.858,238.843a22.575,22.575,0,0,1,21.9-22.489H976.771c-.21-.005-.413-.032-.624-.032s-.415.027-.625.032a22.575,22.575,0,0,0-21.9,22.489v.463l-.045.046v94.1l191.048,4.559a34.162,34.162,0,0,0,68.323,0V249.64l1.092-1.65h-1.186Z" transform="translate(-919.048 -216.322)" fill="url(#linear-gradient-2)"/>
          <path id="Path_2601" data-name="Path 2601" d="M1219.619,216.322c-.211,0-.415.027-.624.032a22.576,22.576,0,0,0-21.9,22.489v30.906h45.042V238.843A22.587,22.587,0,0,0,1219.619,216.322Z" transform="translate(-903.287 -216.322)" fill="url(#linear-gradient-3)"/>
        </g>
      </g>
      <g id="Group_5457" data-name="Group 5457" transform="translate(113.258 165.922)">
        <path id="Path_2602" data-name="Path 2602" d="M1210.862,352.782c-.041.044-.079.089-.12.133.014-.015.033-.022.048-.037S1210.834,352.811,1210.862,352.782Z" transform="translate(-790.374 -242.934)" fill="#0f3872"/>
        <g id="Group_5456" data-name="Group 5456" transform="translate(0 0)">
          <path id="Path_2603" data-name="Path 2603" d="M1041.507,602.666,850.459,388.108,815.926,602.666a34.261,34.261,0,0,0,34.16,34.161h225.581A34.261,34.261,0,0,1,1041.507,602.666Z" transform="translate(-815.926 -240.647)" fill="url(#linear-gradient-4)"/>
          <path id="Path_2604" data-name="Path 2604" d="M1107.637,272.132a22.574,22.574,0,0,1,21.9-22.489H871.548c-.21-.005-.413-.032-.624-.032s-.415.027-.625.032a22.575,22.575,0,0,0-21.9,22.489v.463l-.044.046V397.072L1039.408,611.63a34.161,34.161,0,1,0,68.322,0v-328.7l1.092-1.65h-1.185Z" transform="translate(-813.827 -249.611)" fill="url(#linear-gradient-5)"/>
          <path id="Path_2605" data-name="Path 2605" d="M1114.4,249.611c-.212,0-.415.027-.625.032a22.574,22.574,0,0,0-21.9,22.489v82.344h45.041V272.132A22.586,22.586,0,0,0,1114.4,249.611Z" transform="translate(-798.067 -249.611)" fill="url(#linear-gradient-6)"/>
        </g>
      </g>
      <g id="Group_5476" data-name="Group 5476" transform="translate(0 231.555)">
        <g id="Group_5459" data-name="Group 5459">
          <path id="Path_2606" data-name="Path 2606" d="M1104.49,740.354c-.042.044-.078.089-.12.132.014-.014.033-.021.048-.036S1104.462,740.383,1104.49,740.354Z" transform="translate(-684 -283.484)" fill="#0f3872"/>
          <g id="Group_5458" data-name="Group 5458">
            <path id="Path_2607" data-name="Path 2607" d="M935.134,775.68H709.553a34.262,34.262,0,0,0,34.162,34.162h225.58A34.261,34.261,0,0,1,935.134,775.68Z" transform="translate(-709.553 -281.197)" fill="url(#linear-gradient-7)"/>
            <path id="Path_2608" data-name="Path 2608" d="M1001.264,333.776a22.576,22.576,0,0,1,21.9-22.49H765.175c-.209-.005-.413-.031-.624-.031s-.415.026-.625.031a22.575,22.575,0,0,0-21.895,22.49v.462l-.045.047V805.738H933.035a34.161,34.161,0,1,0,68.322,0V344.573l1.093-1.651h-1.185ZM893.134,318.224a2.512,2.512,0,1,1-2.513,2.512A2.512,2.512,0,0,1,893.134,318.224Z" transform="translate(-707.454 -311.255)" fill="url(#linear-gradient-8)"/>
            <path id="Path_2609" data-name="Path 2609" d="M884.1,322.824a2.512,2.512,0,1,0-2.513-2.513A2.513,2.513,0,0,0,884.1,322.824Z" transform="translate(-698.419 -310.831)" fill="#fff"/>
            <path id="Path_2610" data-name="Path 2610" d="M1008.025,311.255c-.211,0-.415.026-.625.031a22.576,22.576,0,0,0-21.9,22.49v60.14l1.185,214.558h43.856v-274.7A22.586,22.586,0,0,0,1008.025,311.255Z" transform="translate(-691.693 -311.255)" fill="url(#linear-gradient-9)"/>
          </g>
        </g>
        <g id="Group_5462" data-name="Group 5462" transform="translate(58.332 22.364)">
          <g id="Group_5461" data-name="Group 5461" clip-path="url(#clip-path)">
            <circle id="Ellipse_33" data-name="Ellipse 33" cx="42.926" cy="42.926" r="42.926" fill="#b9ddff"/>
            <g id="Group_5460" data-name="Group 5460" transform="translate(3.766 10.909)">
              <path id="Path_2611" data-name="Path 2611" d="M783.1,607.885s-5.4,10.088-5,12.106,12.4,1.569,12.4,1.569-1.4-9.64-3.4-12.554c-1.189-1.733-.4-4.492.439-6.448l-4.078-.528Z" transform="translate(-767.216 -325.71)" fill="#2f2f83"/>
              <path id="Path_2612" data-name="Path 2612" d="M803.586,606.237l-4.008,4.494-.365,2.655s26.6,2.452,28.237,1.839-.365-3.677-.365-3.677l-18.764-5.312.5-4.444-5.344-.171Z" transform="translate(-765.848 -325.736)" fill="#2f2f83"/>
              <path id="Path_2613" data-name="Path 2613" d="M831.189,480.837c-4.534,9.265-11.045,17.683-15.894,26.775-.85.932-3.813,7.292-6.958,16.03a127.336,127.336,0,0,1-.25,15.682L800.278,609.5l3.127.1,5.344.171,7.563.245S836.886,492.5,835.739,479.85c-.064-.71-.126-1.2-.193-1.558-.077,1.414-.127,2.2-.127,2.2S833.809,480.623,831.189,480.837Z" transform="translate(-765.78 -333.718)" fill="#0b52ff"/>
              <path id="Path_2614" data-name="Path 2614" d="M832.792,480.682c-11.544.943-43.032,3.474-46.471,3.275L775.5,608.83l8.127,1.054,4.078.528,4.734.614s4.364-39.35,11.974-69.566c1.616-6.417,3.6-12.638,5.525-17.974,3.145-8.738,6.108-15.1,6.958-16.03C821.747,498.365,828.259,489.947,832.792,480.682Z" transform="translate(-767.383 -333.563)" fill="#2075ff"/>
              <path id="Path_2615" data-name="Path 2615" d="M867.434,371.5c-1.133-.635-8.684,9.949-8.684,9.949l-.943-2.329c-1.321-5.08-4.342-1.9-4.342-1.9s3.209,7.832,3.587,10.371a37.354,37.354,0,0,1,.233,4.5c.275-.434.516-.687.71-.687l6.323,3.962c2.7-3.352,6.477-8.5,7.646-12.428C873.852,376.577,868.567,372.133,867.434,371.5Z" transform="translate(-762.337 -340.631)" fill="#fefaf6"/>
              <path id="Path_2616" data-name="Path 2616" d="M859.38,391.076c-2.939,4.639-9.987,31.746-9.987,31.746-6.23-12.7-28.293-35.805-28.293-35.805l.193.977c.015.018,11.046,13.823,12.807,37.6.217,2.922.385,5.9.518,8.884,6,6.632,15,16.556,15.468,16.875,17,11.621,16.422-56.939,16.422-56.939l-.095-.06-6.323-3.962C859.9,390.389,859.655,390.641,859.38,391.076Z" transform="translate(-764.432 -339.625)" fill="#0062c7"/>
              <path id="Path_2617" data-name="Path 2617" d="M789.579,455.931l22.561-9.472.921,3.026.151-.053c-1.5-15.425-4.226-44.445-3.853-48.251-.2.109-.41.213-.632.316,0,.012-2.281,7.138-7.668,3.514-5.663-3.811-11.429-7.7-10.862-12.46a10.746,10.746,0,0,1,.234-1.305c-.416-.379-.66-.6-.66-.6l-6.538,5.773C786.4,399.957,787.417,432.465,789.579,455.931Z" transform="translate(-766.883 -339.391)" fill="#7ab0f6"/>
              <path id="Path_2618" data-name="Path 2618" d="M823.661,387.979h0l-4.432-.736v3.911a5.744,5.744,0,0,1-.081.893c.018,2.915.041,6.792.041,7.753,0,3.553-7.564,1.466-9.008,1.036a5.915,5.915,0,0,1-.623.413c.995,2.665,4.914,25.625,7.613,42.258,1.445-2.441,2.92-4.67,3.383-4.447.991.476-1.841,6.509-1.841,6.509s12.459-1.587,12.459,1.429,3.681,8.255-8.919,10.16c-1.032.156-1.969.291-2.864.416.28,1.872.44,3.043.44,3.25a70.841,70.841,0,0,1-1.279,10.543c.213-1.673-2.429-7.705-3.748-10.585-4.553,3.966-20.8,17.469-30.3,16.91.355,7.342.684,12.147.94,12.275a1.086,1.086,0,0,0,.3.04c3.439.2,34.927-2.332,46.471-3.275,2.62-.214,4.23-.348,4.23-.348s.05-.783.127-2.2c.368-6.83,1.359-28.546.42-49.725-.132-2.987-.3-5.962-.517-8.884C834.708,401.8,823.676,388,823.661,387.979Z" transform="translate(-766.801 -339.611)" fill="#7ab0f6"/>
              <path id="Path_2619" data-name="Path 2619" d="M800.637,405.122c5.388,3.624,7.664-3.5,7.668-3.514h0c-.406-.161-.775-.326-1.161-.489-.222.014-.442.031-.668.031h0a10.774,10.774,0,0,1-6.809-2.424,9.265,9.265,0,0,1-6.66-8.245,3.732,3.732,0,0,1-.429-1.447s-1.787-.894-2.569,2.323a10.746,10.746,0,0,0-.234,1.305C789.209,397.424,794.974,401.311,800.637,405.122Z" transform="translate(-766.462 -339.502)" fill="#0062c7"/>
              <path id="Path_2620" data-name="Path 2620" d="M813.292,397.392a10.823,10.823,0,0,1-4.854,3.094l.193.057c1.444.43,9.008,2.517,9.008-1.036,0-.961-.022-4.838-.04-7.753A7.92,7.92,0,0,1,813.292,397.392Z" transform="translate(-765.251 -339.319)" fill="#0062c7"/>
              <path id="Path_2621" data-name="Path 2621" d="M807.894,400.149c-.055.011-.1.155-.121.416-.373,3.806,2.352,32.826,3.853,48.251l.768-.275s1.615-3.075,3.272-5.871c-2.7-16.633-6.618-39.593-7.613-42.258C807.988,400.238,807.934,400.142,807.894,400.149Z" transform="translate(-765.297 -338.775)" fill="#fff"/>
              <path id="Path_2622" data-name="Path 2622" d="M814.18,455.421s-.442.4-1.221,1.083c1.319,2.88,3.961,8.913,3.748,10.586a70.833,70.833,0,0,0,1.279-10.543c0-.207-.16-1.378-.44-3.25-1.452.2-2.732.37-3.859.5Z" transform="translate(-764.959 -335.336)" fill="#fff"/>
              <path id="Path_2623" data-name="Path 2623" d="M811.4,446.5l-.151.053,2.55,8.372c1.126-.134,2.406-.3,3.859-.5.9-.126,1.832-.26,2.864-.416,12.6-1.9,8.919-7.143,8.919-10.16s-12.459-1.429-12.459-1.429,2.832-6.033,1.841-6.509c-.462-.223-1.938,2.006-3.383,4.447-1.657,2.8-3.272,5.871-3.272,5.871Z" transform="translate(-765.069 -336.462)" fill="#fefaf6"/>
              <path id="Path_2624" data-name="Path 2624" d="M813.9,397.049c-2.065,1.136-5.053,1.946-9.4,1.946a17.043,17.043,0,0,1-5.431-.8,10.775,10.775,0,0,0,6.809,2.424h0c.226,0,.446-.017.668-.031a10.742,10.742,0,0,0,7.358-3.543Z" transform="translate(-765.858 -338.976)" fill="#fefaf6"/>
              <path id="Path_2625" data-name="Path 2625" d="M821.2,359.314c0,.34-.013.7-.032,1.079C821.191,360.018,821.2,359.655,821.2,359.314Z" transform="translate(-764.427 -341.418)" fill="#fefaf6"/>
              <path id="Path_2626" data-name="Path 2626" d="M794.113,377.015c0,5.2,1.922,4.973,1.922,4.973a3.066,3.066,0,0,0,2.6-3.053,3.619,3.619,0,0,1,2.487-3.39h9.043c3.39,0,3.164,5.99,4.859,5.99s2.035-2.713,2.035-4.521a2.49,2.49,0,0,1,1.309-2.24H818.3V363.2c0-.084-.007-.166-.008-.249a11.715,11.715,0,0,1-2.486-3.753c-.041-.1-.065-.192-.1-.287h0c-2.035,0-5.735-6.017-7.2-4.457s-3.568,0-9.671,0c-3.861,0-4.044,11.689-5.263,10.312v10.51A2.71,2.71,0,0,1,794.113,377.015Z" transform="translate(-766.214 -341.749)" fill="#fefaf6"/>
              <path id="Path_2627" data-name="Path 2627" d="M789.308,360.416c-.02-.383-.034-.755-.034-1.1C789.274,359.661,789.288,360.033,789.308,360.416Z" transform="translate(-766.492 -341.418)" fill="#fefaf6"/>
              <path id="Path_2628" data-name="Path 2628" d="M792.946,373.9a2.244,2.244,0,0,1-.36-.868h-1.109s-.282-1.614-.574-4.021c-.642,1.619-.079,6.654,1.992,8.02.018.013.033.02.051.032Z" transform="translate(-766.403 -340.79)" fill="#fefaf6"/>
              <path id="Path_2629" data-name="Path 2629" d="M819.362,368.558a.64.64,0,0,0-.559.012c-.362,2.988-.67,5.279-.67,5.279h-.376a1.591,1.591,0,0,1-.641.544v3.047a6.344,6.344,0,0,0,.64-.373C820.152,375.489,820.534,368.992,819.362,368.558Z" transform="translate(-764.69 -340.824)" fill="#fefaf6"/>
              <path id="Path_2630" data-name="Path 2630" d="M799.7,401.729a17.043,17.043,0,0,0,5.431.8c4.35,0,7.339-.81,9.4-1.946a7.92,7.92,0,0,0,4.306-5.638,5.751,5.751,0,0,0,.081-.893v-14.1a4.691,4.691,0,0,0,4.123-5.016l.191-13.345c0-.037,0-.069,0-.107.019-.375.032-.739.032-1.079,0-.105,0-.208,0-.309,0-.053,0-.105,0-.159s-.009-.126-.01-.191l.01-.671-.043.012a16.88,16.88,0,0,0-3.172-9.07c-1.6-3.841-4.548-7.508-9.726-7.508a16.434,16.434,0,0,0-3.979.434c-.027,0-.051,0-.078,0a16.982,16.982,0,0,0-16.954,16.148l-.043-.012.01.671c0,.065-.01.127-.01.191s0,.105,0,.159c0,.1,0,.2,0,.309,0,.347.014.719.034,1.1v.035l.191,13.393a4.8,4.8,0,0,0,3.535,4.947V393.37s0,.042,0,.114A9.265,9.265,0,0,0,799.7,401.729Zm-5.856-36.206a34.831,34.831,0,0,1,8.606-.759c6.1,0,7.008-2.619,8.477-4.179s3.02-.917,5.054-.917h0c.038.1.063.192.1.288a11.716,11.716,0,0,0,2.486,3.753c0,.083.008.165.008.249v11.572h.065a2.491,2.491,0,0,0-1.309,2.24c0,1.808-.339,4.521-2.035,4.521s-1.469-5.99-4.859-5.99H801.4a3.619,3.619,0,0,0-2.487,3.39,3.066,3.066,0,0,1-2.6,3.053s-1.922.226-1.922-4.973a2.71,2.71,0,0,0-.549-1.739Zm25.717,13.227a6.35,6.35,0,0,1-.64.373v-3.047a1.591,1.591,0,0,0,.641-.544h.376s.308-2.291.67-5.279a.639.639,0,0,1,.559-.012C822.336,370.674,821.953,377.171,819.559,378.75Zm-26.575,0c-2.071-1.366-2.634-6.4-1.992-8.021.292,2.407.574,4.021.574,4.021h1.109a2.244,2.244,0,0,0,.36.868v3.163C793.016,378.77,793,378.763,792.984,378.75Z" transform="translate(-766.492 -342.506)" fill="#2f2f83"/>
              <path id="Path_2631" data-name="Path 2631" d="M815.877,460.228c.779-.679,1.221-1.083,1.221-1.083l-.493-1.619-2.55-8.372-.921-3.026L790.573,455.6c-2.161-23.465-3.181-55.973-6.347-59.517a.689.689,0,0,0-1.038-.145c-28.032,21.273-10.467,66.945-2.823,78.375a6.354,6.354,0,0,0,5.213,2.825C795.072,477.7,811.324,464.194,815.877,460.228Z" transform="translate(-767.877 -339.059)" fill="#0062c7"/>
            </g>
          </g>
        </g>
        <g id="Group_5463" data-name="Group 5463" transform="translate(58.332 114.971)">
          <path id="Path_2632" data-name="Path 2632" d="M799.393,419.237l2.458,7.566h7.956l-6.436,4.676,2.458,7.566-6.436-4.676-6.436,4.676,2.458-7.566-6.436-4.676h7.956Z" transform="translate(-762.744 -419.237)" fill="#f37a20"/>
          <path id="Path_2633" data-name="Path 2633" d="M774.753,419.237l2.458,7.566h7.956l-6.436,4.676,2.458,7.566-6.436-4.676-6.436,4.676,2.459-7.566-6.436-4.676h7.956Z" transform="translate(-764.339 -419.237)" fill="#f37a20"/>
          <path id="Path_2634" data-name="Path 2634" d="M825.1,419.237l2.458,7.566h7.956l-6.436,4.676,2.458,7.566-6.436-4.676-6.436,4.676,2.458-7.566-6.436-4.676h7.956Z" transform="translate(-761.081 -419.237)" fill="#7ab0f6"/>
          <path id="Path_2635" data-name="Path 2635" d="M850.8,419.237l2.458,7.566h7.956l-6.436,4.676,2.458,7.566-6.436-4.676-6.436,4.676,2.458-7.566-6.436-4.676h7.956Z" transform="translate(-759.417 -419.237)" fill="#7ab0f6"/>
          <path id="Path_2636" data-name="Path 2636" d="M876.507,419.237l2.458,7.566h7.956l-6.436,4.676,2.458,7.566-6.436-4.676-6.436,4.676,2.458-7.566-6.436-4.676h7.956Z" transform="translate(-757.754 -419.237)" fill="#7ab0f6"/>
        </g>
        <rect id="Rectangle_161" data-name="Rectangle 161" width="96.362" height="4.589" transform="translate(58.332 145.04)" fill="#7ab0f6"/>
        <rect id="Rectangle_162" data-name="Rectangle 162" width="96.362" height="4.589" transform="translate(167.519 145.04)" fill="#7ab0f6"/>
        <rect id="Rectangle_163" data-name="Rectangle 163" width="59.021" height="4.589" transform="translate(167.519 36.763)" fill="#7ab0f6"/>
        <rect id="Rectangle_164" data-name="Rectangle 164" width="59.021" height="4.589" transform="translate(167.519 45.862)" fill="#7ab0f6"/>
        <rect id="Rectangle_165" data-name="Rectangle 165" width="96.362" height="4.589" transform="translate(167.519 54.961)" fill="#7ab0f6"/>
        <rect id="Rectangle_166" data-name="Rectangle 166" width="96.362" height="4.589" transform="translate(167.519 64.06)" fill="#7ab0f6"/>
        <rect id="Rectangle_167" data-name="Rectangle 167" width="59.021" height="4.589" transform="translate(167.519 206.913)" fill="#7ab0f6"/>
        <rect id="Rectangle_168" data-name="Rectangle 168" width="59.021" height="4.589" transform="translate(167.519 216.012)" fill="#7ab0f6"/>
        <rect id="Rectangle_169" data-name="Rectangle 169" width="96.362" height="4.589" transform="translate(167.519 225.111)" fill="#7ab0f6"/>
        <rect id="Rectangle_170" data-name="Rectangle 170" width="59.021" height="4.589" transform="translate(167.519 375.243)" fill="#7ab0f6"/>
        <rect id="Rectangle_171" data-name="Rectangle 171" width="59.021" height="4.589" transform="translate(167.519 384.342)" fill="#7ab0f6"/>
        <rect id="Rectangle_172" data-name="Rectangle 172" width="96.362" height="4.589" transform="translate(167.519 393.441)" fill="#7ab0f6"/>
        <rect id="Rectangle_173" data-name="Rectangle 173" width="96.362" height="4.589" transform="translate(167.519 402.54)" fill="#7ab0f6"/>
        <rect id="Rectangle_174" data-name="Rectangle 174" width="208.405" height="4.589" transform="translate(58.332 156.512)" fill="#7ab0f6"/>
        <rect id="Rectangle_175" data-name="Rectangle 175" width="208.405" height="4.589" transform="translate(58.332 165.967)" fill="#7ab0f6"/>
        <g id="Group_5469" data-name="Group 5469" transform="translate(40.551 178.579)">
          <g id="Group_5468" data-name="Group 5468" transform="translate(0 0)" clip-path="url(#clip-path-2)">
            <circle id="Ellipse_35" data-name="Ellipse 35" cx="42.926" cy="42.926" r="42.926" transform="translate(0 60.707) rotate(-45)" fill="#b9ddff"/>
            <g id="Group_5467" data-name="Group 5467" transform="translate(-8.364 22.322)">
              <path id="Path_2637" data-name="Path 2637" d="M754.593,568.334a69.366,69.366,0,0,1,.185-8.289c.369-2.486,3.51-10.153,3.51-10.153s-2.957-3.109-4.25,1.864l-.923,2.28s-7.392-10.361-8.5-9.739-6.283,4.973-4.435,11.189,10.349,15.543,10.349,15.543Z" transform="translate(-739.784 -497.076)" fill="#fefaf6"/>
              <path id="Path_2638" data-name="Path 2638" d="M753.381,562.59l-6.283,3.937s3.785,61.3,20.428,49.927c.688-.47,15.98-16.45,15.98-16.45l10.28-37.246s-21.533,27.545-27.632,39.978C766.154,602.736,755.6,562.59,753.381,562.59Z" transform="translate(-739.31 -495.89)" fill="#7ab0f6"/>
              <path id="Path_2639" data-name="Path 2639" d="M813.691,563.361,824.8,569s-2.451,27.952-1.752,53.293c.532,19.27,4.359,37.564,3.881,37.8-1.109.555-51.283-3.88-51.283-3.88s5.425-10.967,7.667-33.481c.34-3.415-2.47-23.658-1.764-26.652,5.36-22.73,10.19-33.707,10.19-33.707l12.151.392Z" transform="translate(-737.463 -495.903)" fill="#0062c7"/>
              <path id="Path_2640" data-name="Path 2640" d="M826.4,769.457l.392,6.365s5.284,9.876,4.893,11.852-12.136,1.536-12.136,1.536,1.37-9.438,3.327-12.291-1.566-8.559-1.566-8.559Z" transform="translate(-734.622 -482.572)" fill="#0b52ff"/>
              <path id="Path_2641" data-name="Path 2641" d="M807.893,766.915l-.179,7.4,3.923,4.4.357,2.6s-26.038,2.4-27.643,1.8.357-3.6.357-3.6l18.37-5.2-.891-8Z" transform="translate(-736.94 -482.705)" fill="#0b52ff"/>
              <path id="Path_2642" data-name="Path 2642" d="M826.609,654.373l7.514,122.649-13.491,1.915S805.784,675.21,804.121,673.759a53.319,53.319,0,0,0-5.771-3.847l4.725,29.452,7.947,75.844-11.273.151s-9.055-56.516-12.382-64.391-14.826-50.236-10.5-61.894C777.322,647.861,826.609,654.373,826.609,654.373Z" transform="translate(-737.446 -490.302)" fill="#0b52ff"/>
              <path id="Path_2643" data-name="Path 2643" d="M798.707,617.457s-5.544-10.568-6.514-10.1,1.8,6.372,1.8,6.372-12.2-1.554-12.2,1.4-3.6,8.082,8.732,9.947,14.414,1.4,14.414,1.4l-.138-6.839Z" transform="translate(-737.096 -492.994)" fill="#fefaf6"/>
              <path id="Path_2644" data-name="Path 2644" d="M823.172,567.362c-3.923-2.977.176,27.4-2.156,52.716l-21.438-2.664L795.7,630.159s22.563,7.374,34.138.5C836.106,626.938,850.615,588.188,823.172,567.362Z" transform="translate(-736.165 -495.594)" fill="#7ab0f6"/>
              <g id="Group_5466" data-name="Group 5466" transform="translate(51.533)">
                <g id="Group_5465" data-name="Group 5465">
                  <g id="Group_5464" data-name="Group 5464" transform="translate(2.612 17.684)">
                    <path id="Path_2645" data-name="Path 2645" d="M806.892,571.665h0c5.46.237,6.475-6.3,6.694-8.865l.263-14.212-14.474-3.133,1.2,17.209C800.928,567.789,803.651,571.665,806.892,571.665Z" transform="translate(-790.073 -514.682)" fill="#fefaf6"/>
                    <path id="Path_2646" data-name="Path 2646" d="M815.681,545.366l-16.1,12.221,1.123,4.491s3.6,1.767,10.224-5.256c5.24-5.552,4.752-8.315,4.752-8.315v-3.141Z" transform="translate(-790.06 -514.705)" fill="#0f3872"/>
                    <path id="Path_2647" data-name="Path 2647" d="M792.789,523.41s-2.915,7.958-1.957,11.631l.958,3.673s2.449-10.966,2.449-11.125S792.789,523.41,792.789,523.41Z" transform="translate(-790.638 -516.109)" fill="#0f3872"/>
                    <circle id="Ellipse_36" data-name="Ellipse 36" cx="17.048" cy="17.048" r="17.048" transform="translate(0.584 0.813)" fill="#fefaf6"/>
                    <path id="Path_2648" data-name="Path 2648" d="M791.186,533.821c0,6.865,3.642,23.958,9.774,24.536,9.373.886,24.829-14.445,21.505-22.225-2.7-6.313-12.658-2.633-18.818-2.633S791.186,526.956,791.186,533.821Z" transform="translate(-790.603 -515.638)" fill="#fefaf6"/>
                    <path id="Path_2649" data-name="Path 2649" d="M792.416,525.123c0,3.785,2.814,5.336,9.422,5.336.424,0,.859-.014,1.3-.039,6.513-.381,15.067-3.471,15.067-7.014,0-3.784-5.357-6.853-11.964-6.853S792.416,521.338,792.416,525.123Z" transform="translate(-790.523 -516.553)" fill="#0f3872"/>
                    <path id="Path_2650" data-name="Path 2650" d="M810.532,517.609a17.053,17.053,0,0,1,13.724,15.033c-.768,4.742-4.538,10.26-9.229,10.285-1.575.008,1.53-9.145-6.933-13.675C803.787,526.947,805.746,518.56,810.532,517.609Z" transform="translate(-789.663 -516.485)" fill="#0f3872"/>
                    <path id="Path_2651" data-name="Path 2651" d="M813.331,535.55c2.078-3.253,7.951-5.936,10.055-5.936,0,.016,1.013,6.217.429,9.688a13.518,13.518,0,0,1-1.327,4.136h0s-2.242,4.736-3.67,5.623-2.977-2.449-2.977-2.449l-.232-1.96a7.792,7.792,0,0,1-1.951-5.35C813.659,538.363,813.331,535.55,813.331,535.55Z" transform="translate(-789.17 -515.708)" fill="#0f3872"/>
                    <path id="Path_2652" data-name="Path 2652" d="M816.247,536.584c0,2.635,1.162,4.771,2.595,4.771s2.6-2.136,2.6-4.771-1.163-4.77-2.6-4.77S816.247,533.95,816.247,536.584Z" transform="translate(-788.981 -515.565)" fill="#fefaf6"/>
                    <path id="Path_2653" data-name="Path 2653" d="M817.47,543.5l.451-.549,1.688-2.056-2.7-3.343s0,3.672-1.636,4.311a10.878,10.878,0,0,0-3.114,2.1l3.011,3.141,2.356,2.4Z" transform="translate(-789.246 -515.194)" fill="#fefaf6"/>
                  </g>
                  <path id="Path_2654" data-name="Path 2654" d="M800.038,532.271s-8.122,3.39-6.025,31.167c0,0-9.693-24.149-4.079-33.131,0,0-3.369-13.753,12.911-14.6s19.928,2.807,19.928,2.807,12.187,21.922-2.328,31.451c0,0-3.006,9.528-5.251,13.458C815.195,563.427,814.914,537.323,800.038,532.271Z" transform="translate(-788.185 -498.932)" fill="#0f3872"/>
                  <path id="Path_2655" data-name="Path 2655" d="M812.54,520.934s-16.56-10.384-5.613-18.244,21.47,3.335,23.857,6.456c3.649,4.771,7.3,15.156-8.7,19.647Z" transform="translate(-787.214 -499.944)" fill="#0f3872"/>
                </g>
              </g>
            </g>
          </g>
        </g>
        <g id="Group_5470" data-name="Group 5470" transform="translate(58.332 286.082)">
          <path id="Path_2656" data-name="Path 2656" d="M774.753,579.948l2.458,7.566h7.956l-6.436,4.676,2.458,7.566-6.436-4.676-6.436,4.676,2.459-7.566-6.436-4.676h7.956Z" transform="translate(-764.339 -579.948)" fill="#f37a20"/>
          <path id="Path_2657" data-name="Path 2657" d="M800.458,579.948l2.458,7.566h7.956l-6.436,4.676,2.458,7.566-6.436-4.676-6.436,4.676,2.458-7.566-6.436-4.676H798Z" transform="translate(-762.675 -579.948)" fill="#f37a20"/>
          <path id="Path_2658" data-name="Path 2658" d="M826.162,579.948l2.458,7.566h7.956l-6.436,4.676,2.458,7.566-6.436-4.676-6.436,4.676,2.458-7.566-6.436-4.676H823.7Z" transform="translate(-761.012 -579.948)" fill="#f37a20"/>
          <path id="Path_2659" data-name="Path 2659" d="M851.867,579.948l2.458,7.566h7.956l-6.436,4.676,2.458,7.566-6.436-4.676-6.436,4.676,2.458-7.566-6.436-4.676h7.956Z" transform="translate(-759.348 -579.948)" fill="#f37a20"/>
          <path id="Path_2660" data-name="Path 2660" d="M877.571,579.948l2.458,7.566h7.956l-6.436,4.676,2.458,7.566-6.436-4.676-6.436,4.676,2.458-7.566-6.436-4.676h7.956Z" transform="translate(-757.685 -579.948)" fill="#7ab0f6"/>
        </g>
        <rect id="Rectangle_176" data-name="Rectangle 176" width="96.362" height="4.589" transform="translate(58.332 316.152)" fill="#7ab0f6"/>
        <rect id="Rectangle_177" data-name="Rectangle 177" width="96.362" height="4.589" transform="translate(168.429 316.152)" fill="#7ab0f6"/>
        <rect id="Rectangle_178" data-name="Rectangle 178" width="208.405" height="4.589" transform="translate(58.332 327.624)" fill="#7ab0f6"/>
        <rect id="Rectangle_179" data-name="Rectangle 179" width="208.405" height="4.589" transform="translate(58.332 337.078)" fill="#7ab0f6"/>
        <g id="Group_5471" data-name="Group 5471" transform="translate(58.332 457.716)">
          <path id="Path_2661" data-name="Path 2661" d="M774.753,741.148l2.458,7.566h7.956l-6.436,4.676,2.458,7.566-6.436-4.676-6.436,4.676,2.459-7.566-6.436-4.676h7.956Z" transform="translate(-764.339 -741.148)" fill="#f37a20"/>
          <path id="Path_2662" data-name="Path 2662" d="M800.458,741.148l2.458,7.566h7.956l-6.436,4.676,2.458,7.566-6.436-4.676-6.436,4.676,2.458-7.566-6.436-4.676H798Z" transform="translate(-762.675 -741.148)" fill="#f37a20"/>
          <path id="Path_2663" data-name="Path 2663" d="M826.162,741.148l2.458,7.566h7.956l-6.436,4.676,2.458,7.566-6.436-4.676-6.436,4.676,2.458-7.566-6.436-4.676H823.7Z" transform="translate(-761.012 -741.148)" fill="#7ab0f6"/>
          <path id="Path_2664" data-name="Path 2664" d="M851.867,741.148l2.458,7.566h7.956l-6.436,4.676,2.458,7.566-6.436-4.676-6.436,4.676,2.458-7.566-6.436-4.676h7.956Z" transform="translate(-759.348 -741.148)" fill="#7ab0f6"/>
          <path id="Path_2665" data-name="Path 2665" d="M877.571,741.148l2.458,7.566h7.956l-6.436,4.676,2.458,7.566-6.436-4.676-6.436,4.676,2.458-7.566-6.436-4.676h7.956Z" transform="translate(-757.685 -741.148)" fill="#7ab0f6"/>
        </g>
        <rect id="Rectangle_180" data-name="Rectangle 180" width="96.362" height="4.589" transform="translate(58.332 487.786)" fill="#7ab0f6"/>
        <g id="Group_5475" data-name="Group 5475" transform="translate(57.337 365.498)">
          <g id="Group_5474" data-name="Group 5474" clip-path="url(#clip-path-3)">
            <circle id="Ellipse_38" data-name="Ellipse 38" cx="43.825" cy="43.825" r="43.825" fill="#b9ddff"/>
            <g id="Group_5473" data-name="Group 5473" transform="translate(2.764 4.633)">
              <g id="Group_5472" data-name="Group 5472">
                <path id="Path_2666" data-name="Path 2666" d="M816.221,698.037s-17.317-.446-19.922-13.864l-3.18,6.191s-5.6-3.98-2.682-8.593,10.285-13.274,23.541-9.873c5.435,1.395,10.559,3.783,13.177,7.992,3.769,6.056,3.9,15.36,5.335,26.477,2.586,20-9.44,15.126-24.422,11.185C801.18,715.74,816,711.3,816.221,698.037Z" transform="translate(-764.474 -658.096)" fill="#25228a"/>
                <path id="Path_2667" data-name="Path 2667" d="M818.327,691.212s.4,18.07-4.622,19.2l.082,7.932,6.775,1.529s-4.336,11.737-16.613,9.807-9.4-13.016-9.4-13.016l-6.89-21.346,2.624-8.877,13.831-3.643,7.773-2.924,6.281,1.593Z" transform="translate(-764.599 -657.529)" fill="#fefaf6"/>
                <path id="Path_2668" data-name="Path 2668" d="M819.284,716.819s14.053,1.748,17.2,8.65,9.782,21.184,9.782,21.184l-14.544-2.285-2.185,24.915-43.92-1.453L784.026,739.6l17.542-12.991s9.359.341,12.83-1.586S819.284,716.819,819.284,716.819Z" transform="translate(-764.834 -655.138)" fill="#ff769d"/>
                <path id="Path_2669" data-name="Path 2669" d="M803.127,681.034s-22.11-18.513-1.134-21.648,27.394,9.245,16.947,16.579S803.127,681.034,803.127,681.034Z" transform="translate(-764.256 -658.888)" fill="#25228a"/>
                <path id="Path_2670" data-name="Path 2670" d="M797.388,716.624s-2.513,11.145,12.181,10.4S782.551,747.054,781.652,747s-10.761,2.4-10.761,2.4,5.953-19.015,14.477-26.446c3.574-3.116,3.514-3.921,5.026-4.808C792.316,717.029,797.388,716.624,797.388,716.624Z" transform="translate(-765.684 -655.151)" fill="#ff769d"/>
                <path id="Path_2671" data-name="Path 2671" d="M799.845,719.465s-21.565,2.536-19.508-9.97c1.347-8.189,4.288-22.944,9.237-31.284,2.609-4.4,7.1-5.28,9.33-6.243,1.468-.634,16.364,1.124,22.106,7.277,4.1,4.394-.3,12.962-.08,15.676.065.8-1.943-3.51-5.922-3.831-1.921-.156-.583-4.69-1.115-5.038-.607-.4-1.023,5.044-1.665,4.725-2.221-1.1-3.968-1.312-7.413-.884-1.279.159-2.349.249-3.241.31-.409.027-.625-2.7-.961-2.679s-.8,2.778-1.078,2.794c-1.463.084-2.012.186-2.116.866-2.552,16.743,3.68,20.311,3.68,20.311Z" transform="translate(-765.082 -658.049)" fill="#25228a"/>
                <path id="Path_2672" data-name="Path 2672" d="M826.224,720.556c-1.99,1.592-1.093,16.172,1.092,21.418,1.064,2.551,4.152,9.615,6.338,11.8s4.371,9.179,3.06,11.8a81.834,81.834,0,0,0-3.259,9.651l.2,11.767s15.736-6.12,15.736-20.981S838.9,732.795,838.9,732.795,830.595,717.058,826.224,720.556Z" transform="translate(-762.175 -654.929)" fill="#f06494"/>
                <path id="Path_2673" data-name="Path 2673" d="M780.034,783.118c0-.707.53-26.5.53-26.5h56v29.328l-27.03,9.54Z" transform="translate(-765.093 -652.563)" fill="#b9ddff"/>
                <path id="Path_2674" data-name="Path 2674" d="M805.09,770.673a1.943,1.943,0,1,1,1.943,1.944A1.943,1.943,0,0,1,805.09,770.673Z" transform="translate(-763.471 -651.779)" fill="#0b52ff"/>
                <path id="Path_2675" data-name="Path 2675" d="M789.168,719.734c1.99,1.593,1.092,16.173-1.094,21.419-1.063,2.551-4.152,9.615-6.338,11.8s-4.371,9.179-3.059,11.8a44.074,44.074,0,0,1,2.417,8.087l-.572,12.165S766,780.055,766,765.193s10.491-33.22,10.491-33.22S784.8,716.237,789.168,719.734Z" transform="translate(-766.001 -654.982)" fill="#f06494"/>
              </g>
            </g>
          </g>
        </g>
      </g>
    </g>
    <g id="Group_5484" data-name="Group 5484" transform="translate(1031.01 385.559)">
      <path id="Path_2676" data-name="Path 2676" d="M1086.157,452.086s-.318-9.977.317-14.254,6.038-17.461,6.038-17.461-5.084-5.345-7.309,3.207l-1.589,3.92S1070.9,409.681,1069,410.75s-10.8,8.553-7.628,19.243,17.8,26.727,17.8,26.727Z" transform="translate(-994.679 -364.615)" fill="#f9c4c9"/>
      <path id="Path_2677" data-name="Path 2677" d="M1084.072,442.553l-10.806,6.771s-.971,115.424,27.649,95.86c1.183-.808,34.962-38.291,34.962-38.291l13.837-70.018s-37.146,38.9-47.633,60.28C1102.081,497.155,1087.886,442.553,1084.072,442.553Z" transform="translate(-993.866 -362.922)" fill="#3c5aa7"/>
      <path id="Path_2678" data-name="Path 2678" d="M1198.652,442.648l18.412,12.474s-4.273,154.122-6.179,155.076-88.19-6.674-88.19-6.674-10.964-66.1-1.747-105.191,25.479-61.184,25.479-61.184l14.9,2.2-1.65,4.125,1.951,8.78s8.533.243,9.8,2.15,4.563,1.332,7.424,1.649S1198.652,442.648,1198.652,442.648Z" transform="translate(-991.018 -362.904)" fill="#4161ac"/>
      <path id="Path_2679" data-name="Path 2679" d="M1191.7,439.215c0,2.672,3.406,7.192-17.94,15.673,0,0-.621,21.367,8.455,15.261,9.533-6.415,16.626-14.46,15.673-22.478S1191.7,439.215,1191.7,439.215Z" transform="translate(-987.362 -362.77)" fill="#3c5aa7"/>
      <path id="Path_2680" data-name="Path 2680" d="M1174.084,455.553s-18.147,10.53-18.147,3.918c0-2.672,1.476-17.78,1.476-17.78Z" transform="translate(-988.515 -362.61)" fill="#3c5aa7"/>
      <path id="Path_2681" data-name="Path 2681" d="M1209.633,797.951l.673,10.946s9.089,16.984,8.416,20.381-20.87,2.643-20.87,2.643,2.356-16.23,5.723-21.137-2.694-14.72-2.694-14.72Z" transform="translate(-985.802 -339.675)" fill="#252969"/>
      <path id="Path_2682" data-name="Path 2682" d="M1177.815,793.582l-.307,12.724,6.747,7.566.613,4.471s-44.777,4.127-47.538,3.1.614-6.19.614-6.19l31.589-8.942L1168,792.549Z" transform="translate(-989.789 -339.902)" fill="#252969"/>
      <g id="Group_5482" data-name="Group 5482" transform="translate(160.963)">
        <g id="Group_5480" data-name="Group 5480" transform="translate(0 0.648)">
          <g id="Group_5479" data-name="Group 5479">
            <g id="Group_5478" data-name="Group 5478">
              <path id="Path_2683" data-name="Path 2683" d="M1174.716,457.06h0a16.271,16.271,0,0,0,16.122-14.077l3.822-28.091h-39.18l3.064,27.687A16.271,16.271,0,0,0,1174.716,457.06Z" transform="translate(-1149.508 -364.993)" fill="#f9c4c9"/>
              <path id="Path_2684" data-name="Path 2684" d="M1149.871,393.59a25.563,25.563,0,1,0,25.563-25.564A25.563,25.563,0,0,0,1149.871,393.59Z" transform="translate(-1149.871 -368.026)" fill="#f9c4c9"/>
              <path id="Path_2685" data-name="Path 2685" d="M1149.871,393.11c0,14.118,11.445,49.2,25.563,49.2S1201,407.228,1201,393.11s-11.445-1.926-25.563-1.926S1149.871,378.992,1149.871,393.11Z" transform="translate(-1149.871 -366.844)" fill="#f9c4c9"/>
              <path id="Path_2686" data-name="Path 2686" d="M1190.572,424.184s-3.468,20.81-15.415,20.681-16.057-20.681-16.057-20.681Z" transform="translate(-1149.274 -364.391)" fill="#252969"/>
              <path id="Path_2687" data-name="Path 2687" d="M1149.871,393.11c0,14.118,11.445,49.2,25.563,49.2S1201,407.228,1201,393.11s-11.445-1.926-25.563-1.926S1149.871,378.992,1149.871,393.11Z" transform="translate(-1149.871 -366.844)" fill="#f9c4c9"/>
              <path id="Path_2688" data-name="Path 2688" d="M1149.876,393.828c0-.08-.005-.159-.005-.239a25.563,25.563,0,1,1,51.126,0c0,.08-.005.159-.005.239,0,.152.005.3.005.464a48.97,48.97,0,0,1-.874,8.326c-3.705.113-7.961-3.4-10.213-8.77a18.572,18.572,0,0,1-1.28-4.621,52.393,52.393,0,0,1-14.416,1.911,54.218,54.218,0,0,1-12.387-1.377,18.769,18.769,0,0,1-1.152,3.861c-2.2,5.254-6.323,8.728-9.97,8.772a48.413,48.413,0,0,1-.833-8.1C1149.871,394.133,1149.873,393.981,1149.876,393.828Z" transform="translate(-1149.871 -368.026)" fill="#252969"/>
              <path id="Path_2689" data-name="Path 2689" d="M1191.437,422.252h0c3.676,0,6.627-3.427,6.529-7.581l.341-23.852-6.87,1.952Z" transform="translate(-1147.181 -366.551)" fill="#252969"/>
              <path id="Path_2690" data-name="Path 2690" d="M1190,415.6s3.563.882,3.755-3.1.038-6.552,1.8-5.9,1.188,10.421-2.414,12.8-3.334-.422-3.87,3.219-1.877.5-1.877.5l-2.375-5.9Z" transform="translate(-1147.596 -365.536)" fill="#f9c4c9"/>
              <path id="Path_2691" data-name="Path 2691" d="M1156.74,422.252h0c-3.675,0-6.628-3.427-6.53-7.581l-.339-23.852,6.869,1.952Z" transform="translate(-1149.871 -366.551)" fill="#252969"/>
              <path id="Path_2692" data-name="Path 2692" d="M1158.457,415.6s-3.563.882-3.754-3.1-.038-6.552-1.8-5.9-1.188,10.421,2.414,12.8,3.333-.422,3.869,3.219,1.877.5,1.877.5l2.376-5.9Z" transform="translate(-1149.737 -365.536)" fill="#f9c4c9"/>
            </g>
          </g>
        </g>
        <g id="Group_5481" data-name="Group 5481" transform="translate(2.285)">
          <path id="Path_2693" data-name="Path 2693" d="M1197.412,409.576h-1.871V395.636s-3.57,6.119-12.749,6.119-12.919-5.1-15.13-7.139-3.91-4.76-6.97-4.76-3.91,2.72-3.91,5.61V410.6h-2.04s-2.89-18.7-2.719-23.629,3.57-19.549,17.169-19.549,12.75,6.63,23.629,8.84S1197.412,409.576,1197.412,409.576Z" transform="translate(-1152.017 -367.417)" fill="#252969"/>
          <path id="Path_2694" data-name="Path 2694" d="M1194.943,414.048v26.859s0,13.769-18.189,13.769-20.74-9.349-20.74-12.749V413.878a3.809,3.809,0,0,1,2.38,3.57c0,2.719.51,6.8,3.06,6.8s2.21-9.01,7.309-9.01h13.6a5.445,5.445,0,0,1,3.74,5.1c.34,4.25,3.91,4.59,3.91,4.59s2.89.34,2.89-7.48C1192.9,417.448,1192.734,414.728,1194.943,414.048Z" transform="translate(-1151.759 -364.41)" fill="#252969"/>
        </g>
      </g>
      <path id="Path_2695" data-name="Path 2695" d="M1210.154,599.947l12.919,210.917-23.2,3.294s-23.2-145.037-26.059-147.532-7.309-7.483-7.309-7.483l3.178,18.174,13.665,130.426-19.385.261s-15.572-97.19-21.292-110.731-28.178-84.724-20.73-104.773C1122.715,590.414,1210.154,599.947,1210.154,599.947Z" transform="translate(-990.812 -352.869)" fill="#25286a"/>
      <g id="Group_5483" data-name="Group 5483" transform="translate(0 37.184)">
        <path id="Path_2696" data-name="Path 2696" d="M1104.759,565.882a82.965,82.965,0,0,0,43.5-29.563l11,6.142,61.474,34.338c4.788,2.675,17.9,5.125,20.571.338s-5.555-14.7-10.343-17.373l-72.6-40.554a83.339,83.339,0,1,0-53.6,46.672Zm-3.694-13.042a69.782,69.782,0,1,1,48.126-86.157A69.781,69.781,0,0,1,1101.065,552.84Z" transform="translate(-998.692 -402.341)" fill="#0f3872"/>
        <path id="Path_2697" data-name="Path 2697" d="M1231.333,569.243h0a9.93,9.93,0,0,0-3.827-13.512l-58.628-32.749a9.93,9.93,0,0,0-13.512,3.827h0a9.93,9.93,0,0,0,3.827,13.512l58.629,32.749A9.929,9.929,0,0,0,1231.333,569.243Z" transform="translate(-988.634 -394.615)" fill="#7da6e2"/>
      </g>
      <path id="Path_2698" data-name="Path 2698" d="M1162.018,536.562s-9.534-18.174-11.2-17.372,3.1,10.958,3.1,10.958-20.975-2.673-20.975,2.405-6.2,13.9,15.016,17.1,24.788,2.405,24.788,2.405l-.238-11.76Z" transform="translate(-990.058 -357.596)" fill="#f9c4c9"/>
      <path id="Path_2699" data-name="Path 2699" d="M1213.93,451.9c-6.746-5.119-8.423,56.909-12.433,100.442l-37.983-15.946-6.674,21.915s48.97,44.78,61.841,25.536S1261.123,487.709,1213.93,451.9Z" transform="translate(-988.457 -361.969)" fill="#3c5aa7"/>
      <circle id="Ellipse_40" data-name="Ellipse 40" cx="7.399" cy="7.399" r="7.399" transform="translate(47.426 68.779)" fill="#fff"/>
      <circle id="Ellipse_41" data-name="Ellipse 41" cx="14.799" cy="14.799" r="14.799" transform="translate(28.399 89.92)" fill="#fff"/>
    </g>
  </g>
</svg>
