<?xml version="1.0" encoding="UTF-8"?>
<svg width="586px" height="477px" viewBox="0 0 586 477" version="1.1" xmlns="http://www.w3.org/2000/svg" xmlns:xlink="http://www.w3.org/1999/xlink">
    <title>contact-img</title>
    <defs>
        <polygon id="path-1" points="0.0609587629 15.8654348 1.37115464 44.8255901 26.8655567 39.3615839 15.8309072 0.0735093168"></polygon>
        <linearGradient x1="43.089122%" y1="29.2163124%" x2="45.3612315%" y2="48.0872085%" id="linearGradient-3">
            <stop stop-color="#FFC1B5" offset="0%"></stop>
            <stop stop-color="#FFF0FD" offset="100%"></stop>
        </linearGradient>
        <path d="M0.234139535,19.5869784 C0.234139535,30.2878489 5.5412093,38.9626835 12.0876279,38.9626835 L12.0876279,38.9626835 C18.6340465,38.9626835 23.9411163,30.2878489 23.9411163,19.5869784 L23.9411163,19.5869784 C23.9411163,8.88638849 18.6340465,0.211273381 12.0876279,0.211273381 L12.0876279,0.211273381 C5.5412093,0.211273381 0.234139535,8.88638849 0.234139535,19.5869784" id="path-4"></path>
        <linearGradient x1="-0.000156327251%" y1="50.000175%" x2="99.9996066%" y2="50.000175%" id="linearGradient-6">
            <stop stop-color="#FFC1B5" offset="0%"></stop>
            <stop stop-color="#FFA395" offset="100%"></stop>
        </linearGradient>
        <path d="M0.164166667,19.5869784 C0.164166667,30.2878489 6.82638889,38.9626835 15.045,38.9626835 L15.045,38.9626835 C23.2636111,38.9626835 29.9258333,30.2878489 29.9258333,19.5869784 L29.9258333,19.5869784 C29.9258333,8.88638849 23.2636111,0.211273381 15.045,0.211273381 L15.045,0.211273381 C6.82638889,0.211273381 0.164166667,8.88638849 0.164166667,19.5869784" id="path-7"></path>
        <linearGradient x1="0.000401989883%" y1="50.000175%" x2="100.000343%" y2="50.000175%" id="linearGradient-9">
            <stop stop-color="#FFC1B5" offset="0%"></stop>
            <stop stop-color="#FFA395" offset="100%"></stop>
        </linearGradient>
        <path d="M26.0723864,1.44513725 C16.8921818,3.93435948 9.84368182,10.5572026 5.76583333,19.0453464 L5.76583333,19.0453464 C2.73351515,25.3573529 1.23753788,32.1957582 0.407560606,39.1142614 L0.407560606,39.1142614 C0.350659091,39.5892288 0.296560606,40.063915 0.241901515,40.5391634 L0.241901515,40.5391634 C0.139871212,41.4224902 1.06823485,42.183 1.88139394,42.183 L1.88139394,42.183 C2.85236364,42.183 3.41885606,41.4250196 3.52116667,40.5391634 L3.52116667,40.5391634 C3.57582576,40.063915 3.62992424,39.5892288 3.68682576,39.1142614 L3.68682576,39.1142614 C3.71709848,38.8624444 3.74793182,38.6106275 3.77960606,38.3588105 L3.77960606,38.3588105 C3.79782576,38.2160392 3.81660606,38.073268 3.83482576,37.9302157 L3.83482576,37.9302157 C3.84155303,37.876817 3.84631818,37.8385948 3.84968182,37.8118954 L3.84968182,37.8118954 C3.85360606,37.784634 3.85893182,37.7461307 3.8665,37.6932941 L3.8665,37.6932941 C4.06243182,36.304085 4.28218939,34.9193725 4.54819697,33.5416863 L4.54819697,33.5416863 C5.22737121,30.0227124 6.17367424,26.5470196 7.49530303,23.213817 L7.49530303,23.213817 C10.4569848,15.7410915 15.8707576,8.80656863 23.6993409,5.69370588 L23.6993409,5.69370588 C32.8618864,2.05079085 43.9806667,2.64745098 52.2524091,8.17871242 L52.2524091,8.17871242 C58.9693106,12.6703856 63.6621439,20.1262484 66.5840227,27.3255163 L66.5840227,27.3255163 C67.7938106,30.3065686 68.7888864,33.3767124 69.5782197,36.4957582 L69.5782197,36.4957582 C69.9855,38.1047451 70.2456212,39.7364967 70.6063712,41.3525098 L70.6063712,41.3525098 C70.6229091,41.4267059 70.6304773,41.5039935 70.6408485,41.5793137 L70.6408485,41.5793137 C70.7655833,42.4589869 71.8823106,42.9409804 72.6579091,42.7273856 L72.6579091,42.7273856 C73.6011288,42.4674183 73.9282424,41.5877451 73.802947,40.7049804 L73.802947,40.7049804 C73.2022576,36.4656863 71.9347273,32.2460654 70.4446364,28.2476275 L70.4446364,28.2476275 C67.4717424,20.2690196 63.0272576,12.4475163 56.279803,7.08684967 L56.279803,7.08684967 C52.4340455,4.03188235 47.9811515,1.83129412 43.1565758,0.855784314 L43.1565758,0.855784314 C40.80175,0.37969281 38.3692803,0.145300654 35.9317652,0.145300654 L35.9317652,0.145300654 C32.5939167,0.145300654 29.2462576,0.584575163 26.0723864,1.44513725" id="path-10"></path>
        <linearGradient x1="-0.000186157141%" y1="49.9998406%" x2="100.00018%" y2="49.9998406%" id="linearGradient-12">
            <stop stop-color="#FFC1B5" offset="0%"></stop>
            <stop stop-color="#FFA395" offset="100%"></stop>
        </linearGradient>
        <path d="M3.56281202,0.210571429 C3.25433011,0.216285714 2.94528782,0.210571429 2.63652573,0.210571429 L2.63652573,0.210571429 C0.884819154,0.210571429 0,1.59514286 0,2.98314286 L0,2.98314286 L0,3.01028571 C0.00616403464,4.39628571 0.884258788,5.77714286 2.63652573,5.77714286 L2.63652573,5.77714286 L17.3046867,5.77714286 L56.8643403,5.77714286 L115.51541,5.77714286 L187.072007,5.77714286 L265.173128,5.77714286 L344.545721,5.77714286 L418.048752,5.77714286 L480.385914,5.77714286 L525.20405,5.77714286 C532.260469,5.77714286 539.332017,5.91485714 546.387596,5.77714286 L546.387596,5.77714286 C546.696358,5.77142857 547.0054,5.77714286 547.313882,5.77714286 L547.313882,5.77714286 C550.826541,5.77714286 550.832425,0.210571429 547.313882,0.210571429 L547.313882,0.210571429 L532.646001,0.210571429 L493.086067,0.210571429 L434.435278,0.210571429 L362.878681,0.210571429 L284.77756,0.210571429 L205.404687,0.210571429 L131.901656,0.210571429 L69.5644931,0.210571429 L24.7466378,0.210571429 C20.0426388,0.210571429 15.3307947,0.149428571 10.622593,0.149428571 L10.622593,0.149428571 C8.26793174,0.149428571 5.9149516,0.164857143 3.56281202,0.210571429" id="path-13"></path>
        <linearGradient x1="0%" y1="49.9999804%" x2="99.9999991%" y2="49.9999804%" id="linearGradient-15">
            <stop stop-color="#9AD4DD" offset="0%"></stop>
            <stop stop-color="#2B50A5" offset="100%"></stop>
        </linearGradient>
        <path d="M0.460763052,34.5858893 C1.4126506,43.0914391 7.15967871,143.396295 6.30365462,151.911941 L6.30365462,151.911941 L69.9918474,148.281328 C68.6584739,134.070731 54.6289558,52.7737269 45.5309237,41.7579336 L45.5309237,41.7579336 C36.9659036,31.3874391 24.5593173,24.8979926 15.1691968,15.2636605 L15.1691968,15.2636605 C10.8435341,10.8253727 7.18807229,5.73842066 4.36417671,0.2260369 L4.36417671,0.2260369 C1.77670683,11.5191882 -0.827911647,23.0728708 0.460763052,34.5858893" id="path-16"></path>
        <linearGradient x1="40.7768557%" y1="-28.9902041%" x2="51.4016263%" y2="103.468171%" id="linearGradient-18">
            <stop stop-color="#2B50A5" offset="0%"></stop>
            <stop stop-color="#230454" offset="100%"></stop>
        </linearGradient>
        <path d="M65.4975464,10.22952 C53.3185979,15.69736 39.5221546,17.13572 27.8305979,23.59084 L27.8305979,23.59084 C15.4119897,30.44776 6.49141237,42.39984 0.0378556701,55.08552 L0.0378556701,55.08552 L59.6658247,55.96024 C62.0106495,47.74728 67.9125155,41.11268 71.916866,33.57676 L71.916866,33.57676 C77.3363505,23.3758 79.1912784,11.70092 80.9657629,0.273 L80.9657629,0.273 C76.3412474,4.34224 71.1085361,7.71064 65.4975464,10.22952" id="path-19"></path>
        <linearGradient x1="100.146305%" y1="1.81468616%" x2="25.4671542%" y2="85.8140762%" id="linearGradient-21">
            <stop stop-color="#2B50A5" offset="0%"></stop>
            <stop stop-color="#230454" offset="100%"></stop>
        </linearGradient>
        <path d="M67.9687143,51.3602909 C56.3258201,63.5970627 41.7210952,72.7032376 29.868164,84.7382338 L29.868164,84.7382338 C13.6529683,101.202793 3.04848148,123.060519 0.169656085,145.951437 L0.169656085,145.951437 L77.2498836,146.818905 C81.1014974,131.143004 90.2051587,117.326122 96.4055979,102.416521 L96.4055979,102.416521 C109.909101,69.9446122 108.935471,31.7933612 93.7923333,0.0477889734 L93.7923333,0.0477889734 C90.478291,19.1781901 81.371545,37.272884 67.9687143,51.3602909" id="path-22"></path>
        <linearGradient x1="87.2452613%" y1="-46.598607%" x2="43.1301961%" y2="95.6954344%" id="linearGradient-24">
            <stop stop-color="#9AD4DD" offset="0%"></stop>
            <stop stop-color="#2B50A5" offset="100%"></stop>
        </linearGradient>
        <path d="M9.51784656,102.416521 C15.7182857,117.326122 24.8219471,131.143004 28.6735608,146.818905 L28.6735608,146.818905 L105.753508,145.951437 C102.874963,123.060519 92.2704762,101.202793 76.0552804,84.7382338 L76.0552804,84.7382338 C64.2023492,72.7032376 49.5976243,63.5970627 37.9547302,51.3602909 L37.9547302,51.3602909 C24.551619,37.272884 15.4451534,19.1781901 12.1308307,0.0477889734 L12.1308307,0.0477889734 C-3.01202646,31.7933612 -3.98593651,69.9446122 9.51784656,102.416521" id="path-25"></path>
        <linearGradient x1="12.7548479%" y1="-46.598607%" x2="56.8698546%" y2="95.6954344%" id="linearGradient-27">
            <stop stop-color="#9AD4DD" offset="0%"></stop>
            <stop stop-color="#2B50A5" offset="100%"></stop>
        </linearGradient>
        <path d="M0.508048907,0.241230769 C0.25696358,0.241230769 0.0529042664,0.436961538 0.0529042664,0.678730769 L0.0529042664,0.678730769 L0.0529042664,6.55819231 C0.0529042664,6.79969231 0.25696358,6.99569231 0.508048907,6.99569231 L0.508048907,6.99569231 L268.474876,6.99569231 C268.725961,6.99569231 268.930021,6.79969231 268.930021,6.55819231 L268.930021,6.55819231 L268.930021,0.678730769 C268.930021,0.436961538 268.725961,0.241230769 268.474876,0.241230769 L268.474876,0.241230769 L0.508048907,0.241230769 Z" id="path-28"></path>
        <linearGradient x1="106.996313%" y1="50.9602794%" x2="76.2248438%" y2="50.4418389%" id="linearGradient-30">
            <stop stop-color="#9AD4DD" offset="0%"></stop>
            <stop stop-color="#2B50A5" offset="100%"></stop>
        </linearGradient>
        <path d="M4.29650155,0.16680292 C1.76278261,0.16680292 -0.213040373,2.37052068 0.0522763975,4.90107056 L0.0522763975,4.90107056 L11.2953556,112.158453 C11.5241351,114.339873 13.3557764,115.995484 15.5398618,115.995484 L15.5398618,115.995484 L176.699845,115.995484 C179.209955,115.995484 181.177908,113.830715 180.949972,111.320769 L180.949972,111.320769 L171.205483,4.06282238 C171.00509,1.85628224 169.162207,0.16680292 166.955637,0.16680292 L166.955637,0.16680292 L4.29650155,0.16680292 Z" id="path-31"></path>
        <linearGradient x1="5.10491142e-05%" y1="49.9999643%" x2="100.000024%" y2="49.9999643%" id="linearGradient-33">
            <stop stop-color="#9AD4DD" offset="0%"></stop>
            <stop stop-color="#2B50A5" offset="100%"></stop>
        </linearGradient>
        <polygon id="path-34" points="0.153802817 81.0466378 6.41464789 103.952778 59.9777465 35.2346378 50.2997183 0.209124324"></polygon>
        <linearGradient x1="0.000210853443%" y1="50.0000233%" x2="100.000189%" y2="50.0000233%" id="linearGradient-36">
            <stop stop-color="#FFC1B5" offset="0%"></stop>
            <stop stop-color="#FFA395" offset="100%"></stop>
        </linearGradient>
        <path d="M17.1241212,0.37492 C13.1170101,0.8946 7.03393939,2.87924 0.258505051,5.41884 L0.258505051,5.41884 L2.3930101,27.9524 C20.5381414,26.60112 23.4102626,23.19296 23.4102626,23.19296 L23.4102626,23.19296 C23.4102626,23.19296 35.7472323,0.18956 19.7824242,0.19068 L19.7824242,0.19068 C18.9715556,0.19096 18.0865859,0.25032 17.1241212,0.37492" id="path-37"></path>
        <linearGradient x1="1.53158359e-06%" y1="49.9998392%" x2="99.9972282%" y2="49.9998392%" id="linearGradient-39">
            <stop stop-color="#FFC1B5" offset="0%"></stop>
            <stop stop-color="#FFA395" offset="100%"></stop>
        </linearGradient>
        <path d="M14.6666132,0.343355844 C7.40566981,2.66914286 2.70821698,9.87063896 3.3839717,17.6390649 L3.3839717,17.6390649 L0.140349057,99.9838753 L21.9218113,107.830847 L28.9863208,17.2886961 C28.8823585,10.1194597 23.1942547,0.0305766234 16.6438113,0.0305766234 L16.6438113,0.0305766234 C15.9918585,0.0305766234 15.3308774,0.130722078 14.6666132,0.343355844" id="path-40"></path>
        <linearGradient x1="47.8176883%" y1="35.2612862%" x2="52.9768405%" y2="76.1513968%" id="linearGradient-42">
            <stop stop-color="#FFC1B5" offset="0%"></stop>
            <stop stop-color="#FFA395" offset="100%"></stop>
        </linearGradient>
        <path d="M54.31048,2.74641322 L0.01456,18.2549091 L4.76252,33.9763967 L104.75584,16.1280826 L91.44576,6.68591736 C85.7066,2.02398347 78.4938,0.21861157 70.97608,0.219173423 L70.97608,0.219173423 C65.42956,0.219173423 59.71616,1.20236364 54.31048,2.74641322" id="path-43"></path>
        <linearGradient x1="0.751771512%" y1="48.4691829%" x2="98.8626002%" y2="52.5575116%" id="linearGradient-45">
            <stop stop-color="#FFA395" offset="0%"></stop>
            <stop stop-color="#FFC1B5" offset="100%"></stop>
        </linearGradient>
        <path d="M13.8789341,0.187417722 C8.42603438,0.866911392 3.55748424,3.59936709 0.0884527221,7.55491139 L0.0884527221,7.55491139 C5.12295702,8.75683544 9.91175931,10.8744051 14.2394842,13.8354937 L14.2394842,13.8354937 C21.1994499,18.5919494 26.536659,25.2011392 29.6743438,32.9624051 L29.6743438,32.9624051 C30.2943553,34.5001772 31.8165845,35.544481 33.640957,35.7021013 L33.640957,35.7021013 C38.9641261,36.138481 44.0561948,38.1053924 48.3620172,41.366962 L48.3620172,41.366962 C49.3501605,42.1183038 50.2804585,42.9334177 51.1458911,43.7919747 L51.1458911,43.7919747 L85.0741089,43.7919747 L85.0741089,43.7777722 C90.0794097,43.7705316 94.9333582,40.8378481 96.9458682,35.6447342 L96.9458682,35.6447342 C98.9221547,30.5518734 97.2053295,24.5865316 92.8349226,21.2673165 L92.8349226,21.2673165 C90.7861891,19.7150633 88.4709742,18.8785063 86.1484585,18.684962 L86.1484585,18.684962 C83.0905215,18.4279241 80.4074556,16.5679494 79.2679599,13.749443 L79.2679599,13.749443 C76.0075645,5.69549367 68.0664756,0.00863291139 58.7842751,0.00863291139 L58.7842751,0.00863291139 C52.8627163,0.00863291139 47.4819828,2.32643038 43.5223897,6.08898734 L43.5223897,6.08898734 C40.3633639,9.10020253 35.3650831,9.372 32.2493009,6.31762025 L32.2493009,6.31762025 C28.2616275,2.41888608 22.7893524,0.00863291139 16.7433983,0.00863291139 L16.7433983,0.00863291139 C15.8010258,0.00863291139 14.8454556,0.0671139241 13.8789341,0.187417722" id="path-46"></path>
        <linearGradient x1="-0.00022740934%" y1="49.9998242%" x2="100.000004%" y2="49.9998242%" id="linearGradient-48">
            <stop stop-color="#FFFFFF" offset="0%"></stop>
            <stop stop-color="#F6F6F9" offset="100%"></stop>
        </linearGradient>
        <path d="M76.727636,9.8646371 C74.1460243,12.3516129 70.7855771,13.6638306 67.4610676,13.6638306 L67.4610676,13.6638306 C64.4105823,13.6638306 61.3890156,12.5545565 59.0452097,10.2273387 L59.0452097,10.2273387 C52.7999272,4.02866935 44.2181386,0.193629032 34.7424021,0.193629032 L34.7424021,0.193629032 C33.2566066,0.193629032 31.756773,0.287620968 30.2350399,0.483225806 L30.2350399,0.483225806 C14.6291334,2.4553629 2.10291161,15.2518145 0.343091854,30.9622984 L0.343091854,30.9622984 C-2.0077331,51.9941935 14.2975529,69.8004435 34.7424021,69.8004435 L34.7424021,69.8004435 L141.898523,69.8004435 L141.898523,69.7854839 C149.752014,69.7784274 157.360118,65.1093145 160.511678,56.8591935 L160.511678,56.8591935 C163.6127,48.7465323 160.922714,39.2708468 154.064527,33.992621 L154.064527,33.992621 C151.122135,31.7235484 147.819525,30.4260081 144.487716,29.9907661 L144.487716,29.9907661 C144.184773,29.9472984 143.88183,29.9108871 143.578887,29.8891532 L143.578887,29.8891532 C138.790482,29.4832661 134.579043,26.5252016 132.783567,22.0375806 L132.783567,22.0375806 C128.369979,10.9668548 118.461026,2.7091129 106.453653,0.686451613 L106.453653,0.686451613 C104.571702,0.36016129 102.638932,0.193629032 100.662925,0.193629032 L100.662925,0.193629032 C91.3744575,0.193629032 82.944,3.87653226 76.727636,9.8646371" id="path-49"></path>
        <linearGradient x1="7.92650509e-05%" y1="49.9997038%" x2="99.9999801%" y2="49.9997038%" id="linearGradient-51">
            <stop stop-color="#FFFFFF" offset="0%"></stop>
            <stop stop-color="#F6F6F9" offset="100%"></stop>
        </linearGradient>
        <path d="M13.9578395,0.384860759 C8.50522063,1.06435443 3.63667049,3.79653165 0.167358166,7.75207595 L0.167358166,7.75207595 C5.20214327,8.954 9.99122636,11.0710127 14.3183897,14.0323797 L14.3183897,14.0323797 C21.2786361,18.7893924 26.6158453,25.3985823 29.7535301,33.1595696 L29.7535301,33.1595696 C30.3738223,34.6973418 31.89549,35.7419241 33.7201433,35.8989873 L33.7201433,35.8989873 C39.0433123,36.3353671 44.1353811,38.302557 48.4412034,41.5644051 L48.4412034,41.5644051 C49.4293467,42.3151899 50.3596447,43.1308608 51.2253582,43.9888608 L51.2253582,43.9888608 L85.1532951,43.9888608 L85.1532951,43.9746582 C90.158596,43.9676962 95.0128252,41.0347342 97.0250544,35.8418987 L97.0250544,35.8418987 C99.001341,30.749038 97.2847966,24.7834177 92.9138281,21.4642025 L92.9138281,21.4642025 C90.8653754,19.9122278 88.5504413,19.0751139 86.2279255,18.8821266 L86.2279255,18.8821266 C83.1699885,18.6245316 80.4866418,16.764557 79.3468653,13.9466076 L79.3468653,13.9466076 C76.0870315,5.89237975 68.1459427,0.205518987 58.8631805,0.205518987 L58.8631805,0.205518987 C52.9421834,0.205518987 47.5614499,2.52331646 43.6015759,6.28587342 L43.6015759,6.28587342 C40.4422693,9.29708861 35.4442693,9.56916456 32.3282063,6.51478481 L32.3282063,6.51478481 C28.3413754,2.61605063 22.8685387,0.205518987 16.8231461,0.205518987 L16.8231461,0.205518987 C15.8804928,0.205518987 14.9249226,0.264278481 13.9578395,0.384860759" id="path-52"></path>
        <linearGradient x1="0.000107666899%" y1="50.0001935%" x2="100.00001%" y2="50.0001935%" id="linearGradient-54">
            <stop stop-color="#CDEDE6" offset="0%"></stop>
            <stop stop-color="#F6F6F9" offset="100%"></stop>
        </linearGradient>
        <path d="M76.8073726,9.68178947 C74.2251993,12.1428826 70.8647522,13.4415911 67.5402426,13.4415911 L67.5402426,13.4415911 C64.4897574,13.4415911 61.4681906,12.3437368 59.1246655,10.0404777 L59.1246655,10.0404777 C52.879383,3.90534413 44.2973137,0.109785425 34.8215771,0.109785425 L34.8215771,0.109785425 C33.3357816,0.109785425 31.835948,0.203089069 30.3142149,0.396959514 L30.3142149,0.396959514 C14.7083085,2.34823482 2.18180589,15.0129474 0.42254766,30.5619717 L0.42254766,30.5619717 C-1.92350433,51.3329271 14.3065373,68.9248543 34.6896187,69 L34.6896187,69 L141.977979,69 L141.977979,68.985753 C149.83147,68.9784899 157.439574,64.3577247 160.591133,56.1917004 L160.591133,56.1917004 C163.691875,48.1628381 161.001889,38.7847045 154.143702,33.5610972 L154.143702,33.5610972 C151.20131,31.3151053 147.898419,30.0309231 144.566891,29.6001619 L144.566891,29.6001619 C144.263948,29.5571417 143.961005,29.5213846 143.658343,29.4998745 L143.658343,29.4998745 C138.869938,29.098166 134.658218,26.1705547 132.862461,21.7291336 L132.862461,21.7291336 C128.449154,10.7721012 118.540201,2.59937247 106.533109,0.597534413 L106.533109,0.597534413 C104.651158,0.274882591 102.718107,0.109785425 100.742101,0.109785425 L100.742101,0.109785425 C91.4536326,0.109785425 83.0234558,3.75477328 76.8073726,9.68178947" id="path-55"></path>
        <linearGradient x1="-2.21602286e-05%" y1="49.9999485%" x2="99.9999543%" y2="49.9999485%" id="linearGradient-57">
            <stop stop-color="#CDEDE6" offset="0%"></stop>
            <stop stop-color="#F6F6F9" offset="100%"></stop>
        </linearGradient>
        <path d="M65.4836495,6.51587421 C62.376856,9.54938365 57.3989891,9.2765283 54.247413,6.28867925 L54.247413,6.28867925 C50.2978668,2.54535849 44.9396277,0.244352201 39.0350408,0.244352201 L39.0350408,0.244352201 C29.7807147,0.244352201 21.8684674,5.89572327 18.6211685,13.8973585 L18.6211685,13.8973585 C17.4836902,16.699522 14.8051304,18.5494591 11.7618723,18.801283 L11.7618723,18.801283 C9.44549185,18.9933333 7.1361087,19.8240755 5.09822011,21.3662893 L5.09822011,21.3662893 C0.738353261,24.6646289 -0.96982337,30.5913459 0.999211957,35.6579874 L0.999211957,35.6579874 C3.00379348,40.8159497 7.83919565,43.7335094 12.8316168,43.7384906 L12.8316168,43.7384906 L12.8316168,43.7501132 L80.9316902,43.7501132 C93.923125,43.7501132 104.284701,32.617283 102.789242,19.4742893 L102.789242,19.4742893 C101.671636,9.65260377 93.7101277,1.65899371 83.7916196,0.423119497 L83.7916196,0.423119497 C82.827394,0.303018868 81.872125,0.244352201 80.9319701,0.244352201 L80.9319701,0.244352201 C74.9087092,0.244352201 69.4544674,2.63833962 65.4836495,6.51587421" id="path-58"></path>
        <linearGradient x1="1.90329121e-05%" y1="50.0000714%" x2="100.000011%" y2="50.0000714%" id="linearGradient-60">
            <stop stop-color="#FFFFFF" offset="0%"></stop>
            <stop stop-color="#F6F6F9" offset="100%"></stop>
        </linearGradient>
        <path d="M18.4689076,13.9251646 C17.3317092,16.7450633 14.6531495,18.6069873 11.6101712,18.8606835 L11.6101712,18.8606835 C9.29379076,19.0536709 6.98412772,19.8899494 4.94623913,21.4416456 L4.94623913,21.4416456 C0.586372283,24.7611392 -1.12180435,30.7250886 0.847230978,35.8237975 L0.847230978,35.8237975 C2.85209239,41.0144051 7.68721467,43.9507089 12.6799158,43.9557215 L12.6799158,43.9557215 L12.6799158,43.9671392 L80.7797092,43.9671392 C93.771144,43.9671392 104.13272,32.7641266 102.637261,19.5382278 L102.637261,19.5382278 C101.519655,9.65410127 93.5581467,1.61017722 83.6396386,0.365924051 L83.6396386,0.365924051 C76.4970924,-0.529949367 69.9224457,1.9858481 65.3316685,6.49751899 L65.3316685,6.49751899 C62.224875,9.55050633 57.247288,9.27564557 54.0951522,6.26888608 L54.0951522,6.26888608 C50.145606,2.50159494 44.7873668,0.186025316 38.8830598,0.186025316 L38.8830598,0.186025316 C29.6287337,0.186025316 21.7164864,5.87316456 18.4689076,13.9251646" id="path-61"></path>
        <linearGradient x1="2.54618384e-05%" y1="50.0003261%" x2="100.000017%" y2="50.0003261%" id="linearGradient-63">
            <stop stop-color="#CDEDE6" offset="0%"></stop>
            <stop stop-color="#F6F6F9" offset="100%"></stop>
        </linearGradient>
        <path d="M16.759404,0.00584810127 C15.8355645,0.00807594937 14.898808,0.066556962 13.9513811,0.184632911 L13.9513811,0.184632911 C8.49876218,0.864405063 3.62993123,3.59686076 0.160899713,7.55240506 L0.160899713,7.55240506 C5.19540401,8.75405063 9.98448711,10.8710633 14.3119312,13.8324304 L14.3119312,13.8324304 C21.2718968,18.5891646 26.6093868,25.1986329 29.7467908,32.9596203 L29.7467908,32.9596203 C30.3670831,34.4976709 31.8890315,35.5416962 33.713404,35.6993165 L33.713404,35.6993165 C39.0365731,36.1354177 44.1286418,38.1026076 48.4344642,41.3644557 L48.4344642,41.3644557 C49.4226074,42.115519 50.3529054,42.9309114 51.2186189,43.7891899 L51.2186189,43.7891899 L85.1465559,43.7891899 L85.1465559,43.7749873 C90.1518567,43.7674684 95.006086,40.8350633 97.0183152,35.6419494 L97.0183152,35.6419494 C97.5630716,34.2378481 97.8273066,32.7677468 97.8326418,31.3046076 L97.8326418,31.3046076 L97.8326418,31.2141013 C97.8186017,27.4014177 96.0484241,23.649443 92.9073696,21.2645316 L92.9073696,21.2645316 C90.8586361,19.712557 88.5434212,18.875443 86.2209054,18.6824557 L86.2209054,18.6824557 C83.1629685,18.4248608 80.4799026,16.5651646 79.3404069,13.7469367 L79.3404069,13.7469367 C76.0802923,5.69270886 68.1392034,0.00584810127 58.8567221,0.00584810127 L58.8567221,0.00584810127 C52.9351633,0.00584810127 47.5547106,2.32336709 43.5948367,6.08592405 L43.5948367,6.08592405 C40.4358109,9.09713924 35.4375301,9.36921519 32.3217479,6.31483544 L32.3217479,6.31483544 C28.3453066,2.42696203 22.8921261,0.0192151899 16.8661089,0.00584810127 L16.8661089,0.00584810127 L16.759404,0.00584810127 Z" id="path-64"></path>
        <linearGradient x1="-0.000105856005%" y1="49.9998956%" x2="100.000103%" y2="49.9998956%" id="linearGradient-66">
            <stop stop-color="#CDEDE6" offset="0%"></stop>
            <stop stop-color="#F6F6F9" offset="100%"></stop>
        </linearGradient>
        <path d="M76.8006343,9.86209677 C74.2187418,12.3487903 70.8580139,13.6610081 67.5335043,13.6610081 L67.5335043,13.6610081 C64.4830191,13.6610081 61.4614523,12.5517339 59.1179272,10.2245161 L59.1179272,10.2245161 C52.8726447,4.02612903 44.2905754,0.190524194 34.8148388,0.190524194 L34.8148388,0.190524194 C33.3290433,0.190524194 31.8292097,0.284798387 30.3074766,0.480685484 L30.3074766,0.480685484 C14.7015702,2.45254032 2.17534835,15.2487097 0.416090121,30.9594758 L0.416090121,30.9594758 C-1.93529636,51.9916532 14.3699896,69.7973387 34.8148388,69.7973387 L34.8148388,69.7973387 L141.97096,69.7973387 L141.97096,69.7829435 C149.824731,69.7758871 157.433116,65.1067742 160.584114,56.856371 L160.584114,56.856371 C163.685137,48.7437097 160.995432,39.2677419 154.136964,33.9897984 L154.136964,33.9897984 C151.194853,31.7207258 147.891962,30.4229032 144.560153,29.9879435 L144.560153,29.9879435 C144.25749,29.9444758 143.954548,29.9083468 143.651324,29.8866129 L143.651324,29.8866129 C138.863199,29.4804435 134.65148,26.5226613 132.856003,22.0347581 L132.856003,22.0347581 C128.442416,10.9640323 118.533744,2.70629032 106.526652,0.683629032 L106.526652,0.683629032 C104.644139,0.357620968 102.711369,0.190524194 100.735362,0.190524194 L100.735362,0.190524194 C91.447175,0.190524194 83.0167175,3.87370968 76.8006343,9.86209677" id="path-67"></path>
        <linearGradient x1="-0.000131526469%" y1="50.0001548%" x2="100.000024%" y2="50.0001548%" id="linearGradient-69">
            <stop stop-color="#CDEDE6" offset="0%"></stop>
            <stop stop-color="#F6F6F9" offset="100%"></stop>
        </linearGradient>
    </defs>
    <g id="Page-1" stroke="none" stroke-width="1" fill="none" fill-rule="evenodd">
        <g id="07-contact" transform="translate(-148.000000, -682.000000)">
            <g id="contact-img" transform="translate(148.000000, 682.000000)">
                <path d="M335.170845,147.99607 C335.170845,147.99607 280.152352,139.903647 285.136387,209.175294 C285.136387,209.175294 289.643105,230.917058 267.191906,244.142036 C267.191906,244.142036 258.846266,252.601492 258,268 L425,245.725673 C425,245.725673 425.453794,210.078261 393.214113,204.406961 C393.214113,204.406961 379.280322,199.477876 378.520637,170.51518 C377.897248,146.743213 343.318185,135.875 335.170845,147.99607" id="Fill-1" fill="#2C51A6"></path>
                <g id="Group-5" transform="translate(325.000000, 211.000000)">
                    <mask id="mask-2" fill="white">
                        <use xlink:href="#path-1"></use>
                    </mask>
                    <g id="Clip-4"></g>
                    <polygon id="Fill-3" fill="url(#linearGradient-3)" mask="url(#mask-2)" points="0.0609587629 15.8654348 1.37115464 44.8255901 26.8655567 39.3615839 15.8309072 0.0735093168"></polygon>
                </g>
                <g id="Group-8" transform="translate(291.000000, 180.000000)">
                    <mask id="mask-5" fill="white">
                        <use xlink:href="#path-4"></use>
                    </mask>
                    <g id="Clip-7"></g>
                    <path d="M0.234139535,19.5869784 C0.234139535,30.2878489 5.5412093,38.9626835 12.0876279,38.9626835 L12.0876279,38.9626835 C18.6340465,38.9626835 23.9411163,30.2878489 23.9411163,19.5869784 L23.9411163,19.5869784 C23.9411163,8.88638849 18.6340465,0.211273381 12.0876279,0.211273381 L12.0876279,0.211273381 C5.5412093,0.211273381 0.234139535,8.88638849 0.234139535,19.5869784" id="Fill-6" fill="url(#linearGradient-6)" mask="url(#mask-5)"></path>
                </g>
                <g id="Group-43" transform="translate(304.000000, 155.000000)" fill="#FFF1FE">
                    <path d="M57.7425294,36.6538538 C57.9245209,57.0167477 45.2016868,73.6384371 29.3248953,73.7799902 C13.4483847,73.9212629 0.430095319,57.5288614 0.24810383,37.1659674 C0.0661123404,16.8033538 12.7889464,0.181384091 28.6657379,0.0398310606 C44.5425294,-0.101441667 57.5605379,16.2909598 57.7425294,36.6538538" id="Fill-9"></path>
                    <path d="M65.5647932,44.3293356 C64.2116528,50.9725174 59.487457,55.6219038 55.0132187,54.7142826 C50.5386996,53.8063811 48.0085123,47.6851235 49.3613719,41.0419417 C50.7145123,34.3987598 55.4387081,29.7493735 59.9129464,30.657275 C64.3874655,31.5651765 66.9179336,37.6864341 65.5647932,44.3293356" id="Fill-11"></path>
                </g>
                <g id="Group-46" transform="translate(355.000000, 180.000000)">
                    <mask id="mask-8" fill="white">
                        <use xlink:href="#path-7"></use>
                    </mask>
                    <g id="Clip-45"></g>
                    <path d="M0.164166667,19.5869784 C0.164166667,30.2878489 6.82638889,38.9626835 15.045,38.9626835 L15.045,38.9626835 C23.2636111,38.9626835 29.9258333,30.2878489 29.9258333,19.5869784 L29.9258333,19.5869784 C29.9258333,8.88638849 23.2636111,0.211273381 15.045,0.211273381 L15.045,0.211273381 C6.82638889,0.211273381 0.164166667,8.88638849 0.164166667,19.5869784" id="Fill-44" fill="url(#linearGradient-9)" mask="url(#mask-8)"></path>
                </g>
                <g id="Group-49" transform="translate(298.000000, 141.000000)">
                    <mask id="mask-11" fill="white">
                        <use xlink:href="#path-10"></use>
                    </mask>
                    <g id="Clip-48"></g>
                    <path d="M26.0723864,1.44513725 C16.8921818,3.93435948 9.84368182,10.5572026 5.76583333,19.0453464 L5.76583333,19.0453464 C2.73351515,25.3573529 1.23753788,32.1957582 0.407560606,39.1142614 L0.407560606,39.1142614 C0.350659091,39.5892288 0.296560606,40.063915 0.241901515,40.5391634 L0.241901515,40.5391634 C0.139871212,41.4224902 1.06823485,42.183 1.88139394,42.183 L1.88139394,42.183 C2.85236364,42.183 3.41885606,41.4250196 3.52116667,40.5391634 L3.52116667,40.5391634 C3.57582576,40.063915 3.62992424,39.5892288 3.68682576,39.1142614 L3.68682576,39.1142614 C3.71709848,38.8624444 3.74793182,38.6106275 3.77960606,38.3588105 L3.77960606,38.3588105 C3.79782576,38.2160392 3.81660606,38.073268 3.83482576,37.9302157 L3.83482576,37.9302157 C3.84155303,37.876817 3.84631818,37.8385948 3.84968182,37.8118954 L3.84968182,37.8118954 C3.85360606,37.784634 3.85893182,37.7461307 3.8665,37.6932941 L3.8665,37.6932941 C4.06243182,36.304085 4.28218939,34.9193725 4.54819697,33.5416863 L4.54819697,33.5416863 C5.22737121,30.0227124 6.17367424,26.5470196 7.49530303,23.213817 L7.49530303,23.213817 C10.4569848,15.7410915 15.8707576,8.80656863 23.6993409,5.69370588 L23.6993409,5.69370588 C32.8618864,2.05079085 43.9806667,2.64745098 52.2524091,8.17871242 L52.2524091,8.17871242 C58.9693106,12.6703856 63.6621439,20.1262484 66.5840227,27.3255163 L66.5840227,27.3255163 C67.7938106,30.3065686 68.7888864,33.3767124 69.5782197,36.4957582 L69.5782197,36.4957582 C69.9855,38.1047451 70.2456212,39.7364967 70.6063712,41.3525098 L70.6063712,41.3525098 C70.6229091,41.4267059 70.6304773,41.5039935 70.6408485,41.5793137 L70.6408485,41.5793137 C70.7655833,42.4589869 71.8823106,42.9409804 72.6579091,42.7273856 L72.6579091,42.7273856 C73.6011288,42.4674183 73.9282424,41.5877451 73.802947,40.7049804 L73.802947,40.7049804 C73.2022576,36.4656863 71.9347273,32.2460654 70.4446364,28.2476275 L70.4446364,28.2476275 C67.4717424,20.2690196 63.0272576,12.4475163 56.279803,7.08684967 L56.279803,7.08684967 C52.4340455,4.03188235 47.9811515,1.83129412 43.1565758,0.855784314 L43.1565758,0.855784314 C40.80175,0.37969281 38.3692803,0.145300654 35.9317652,0.145300654 L35.9317652,0.145300654 C32.5939167,0.145300654 29.2462576,0.584575163 26.0723864,1.44513725" id="Fill-47" fill="url(#linearGradient-12)" mask="url(#mask-11)"></path>
                </g>
                <g id="Group-58" transform="translate(312.000000, 150.000000)">
                    <path d="M71.7330397,48.7290613 C71.7330397,57.2341729 66.3585339,64.1288755 59.7289307,64.1288755 C53.0993276,64.1288755 47.7248218,57.2341729 47.7248218,48.7290613 C47.7248218,40.2239498 53.0993276,33.3292472 59.7289307,33.3292472 C66.3585339,33.3292472 71.7330397,40.2239498 71.7330397,48.7290613" id="Fill-50" fill="#FFA395"></path>
                    <path d="M50.4476545,51.9005297 C44.5243237,57.2542472 37.4506739,61.6220911 30.3703004,65.2544331 C26.6383471,67.169303 22.7934911,68.8488569 18.842456,70.2632621 C17.726316,70.6630762 18.2076233,72.4491357 19.3358101,72.0451394 C30.3644171,68.0963476 40.7780825,62.176645 49.8649307,54.8068494 C50.5064872,54.2865892 51.1474833,53.7613104 51.7604638,53.2073141 C52.6468763,52.406013 51.3307051,51.1025743 50.4476545,51.9005297" id="Fill-52" fill="#2C51A6"></path>
                    <path d="M21.5318381,70.6622398 C22.0036202,71.9500651 20.6056436,73.6399349 18.4097837,74.4362175 C16.2139237,75.2327788 14.0514023,74.8343587 13.5796202,73.5462546 C13.1081183,72.2584294 14.5058148,70.5685595 16.7016747,69.772277 C18.8975346,68.9757156 21.060056,69.3741357 21.5318381,70.6622398" id="Fill-54" fill="#2C51A6"></path>
                    <path d="M21.1585307,0.647871747 L7.64830506,5.99434015 C3.90486537,7.47565985 1.46078755,10.1912732 0.514982101,13.3273327 C-0.55661323,16.8796561 0.294219455,20.9711989 3.35604047,24.4175743 C11.0042895,33.0272398 23.8432623,42.8212918 43.032523,43.6011245 C47.43713,43.779842 50.8054412,40.8860688 50.5280872,37.1569796 C49.7288031,26.416645 45.7040872,5.2080948 26.5921494,0.358466543 C24.7369588,-0.112444238 22.8052856,-0.00370817844 21.1585307,0.647871747" id="Fill-56" fill="#2C51A6"></path>
                </g>
                <g id="Group-61" transform="translate(0.000000, 361.000000)">
                    <mask id="mask-14" fill="white">
                        <use xlink:href="#path-13"></use>
                    </mask>
                    <g id="Clip-60"></g>
                    <path d="M3.56281202,0.210571429 C3.25433011,0.216285714 2.94528782,0.210571429 2.63652573,0.210571429 L2.63652573,0.210571429 C0.884819154,0.210571429 0,1.59514286 0,2.98314286 L0,2.98314286 L0,3.01028571 C0.00616403464,4.39628571 0.884258788,5.77714286 2.63652573,5.77714286 L2.63652573,5.77714286 L17.3046867,5.77714286 L56.8643403,5.77714286 L115.51541,5.77714286 L187.072007,5.77714286 L265.173128,5.77714286 L344.545721,5.77714286 L418.048752,5.77714286 L480.385914,5.77714286 L525.20405,5.77714286 C532.260469,5.77714286 539.332017,5.91485714 546.387596,5.77714286 L546.387596,5.77714286 C546.696358,5.77142857 547.0054,5.77714286 547.313882,5.77714286 L547.313882,5.77714286 C550.826541,5.77714286 550.832425,0.210571429 547.313882,0.210571429 L547.313882,0.210571429 L532.646001,0.210571429 L493.086067,0.210571429 L434.435278,0.210571429 L362.878681,0.210571429 L284.77756,0.210571429 L205.404687,0.210571429 L131.901656,0.210571429 L69.5644931,0.210571429 L24.7466378,0.210571429 C20.0426388,0.210571429 15.3307947,0.149428571 10.622593,0.149428571 L10.622593,0.149428571 C8.26793174,0.149428571 5.9149516,0.164857143 3.56281202,0.210571429" id="Fill-59" fill="url(#linearGradient-15)" mask="url(#mask-14)"></path>
                </g>
                <g id="Group-82" transform="translate(157.000000, 27.000000)">
                    <path d="M152.727257,36.6706058 C152.727257,56.9191813 136.36325,73.3339727 116.17704,73.3339727 C95.9911091,73.3339727 79.6271018,56.9191813 79.6271018,36.6706058 C79.6271018,16.4217496 95.9911091,0.00695827338 116.17704,0.00695827338 C136.36325,0.00695827338 152.727257,16.4217496 152.727257,36.6706058" id="Fill-62" fill="#D7F2ED"></path>
                    <path d="M114.953767,59.7123108 C119.28252,58.5597065 123.024167,56.0381741 125.024356,52.3188647 C125.1161,52.1485554 125.974802,50.5734043 125.948789,50.4011309 C128.272599,45.9113612 128.081559,38.4615194 127.909259,35.9736561 C127.757657,29.0650446 125.897043,24.1193396 124.190827,21.4892245 C124.206491,21.2235194 123.172972,19.7333827 122.963191,19.5061165 C118.973723,15.1886201 116.0698,14.0323683 111.597277,13.4964691 C109.524085,13.2478791 107.514946,14.3555914 107.612844,15.6762604 L108.571961,28.6239799 C108.66846,29.9247281 110.773818,30.7137065 112.766175,30.1831381 C114.609167,29.6924115 116.793403,28.936541 118.669122,27.8201309 C119.50237,29.9988 120.197164,32.8640374 120.269608,36.4573683 L120.274083,36.5502388 C120.455613,39.1312532 120.342052,42.086836 119.966405,44.5342964 C117.955028,43.6956561 115.686041,43.2534691 113.784869,43.0256417 C111.711677,42.7773324 109.702538,43.884764 109.800436,45.2054331 L110.759553,58.1531525 C110.856052,59.4539007 112.96141,60.2428791 114.953767,59.7123108" id="Fill-64" fill="#FFA395"></path>
                    <path d="M52.931287,52.1967863 C52.931287,66.8142108 41.1181207,78.6637576 26.5459196,78.6637576 C11.9739982,78.6637576 0.16083181,66.8142108 0.16083181,52.1967863 C0.16083181,37.5790813 11.9739982,25.7295345 26.5459196,25.7295345 C41.1181207,25.7295345 52.931287,37.5790813 52.931287,52.1967863" id="Fill-66" fill="#D7F2ED"></path>
                    <path d="M26.8564229,52.1965058 C24.0607464,52.1965058 21.7942766,49.9232827 21.7942766,47.1189302 C21.7942766,44.3145777 24.0607464,42.0413547 26.8564229,42.0413547 C29.6520993,42.0413547 31.9182894,44.3145777 31.9182894,47.1189302 C31.9182894,49.9232827 29.6520993,52.1965058 26.8564229,52.1965058 M37.0755362,47.4303691 C37.0755362,41.3059662 32.3613461,36.3409014 26.5459475,36.3409014 C20.7308287,36.3409014 16.0166386,41.3059662 16.0166386,47.4303691 C16.0166386,48.7485129 16.2462784,50.0068942 16.6470993,51.1797 L16.6345124,51.1791388 L16.6879366,51.2981029 C16.9002346,51.8971317 17.1575654,52.4709086 17.460209,53.0155058 L26.9154411,68.0523906 L36.0747428,52.1507719 L36.0635545,52.1499302 C36.7060426,50.7164698 37.0755362,49.1205561 37.0755362,47.4303691" id="Fill-68" fill="#FFA395"></path>
                    <path d="M103.387331,134.739136 C107.219323,129.942697 109.516281,123.859819 109.516281,117.23487 C109.516281,101.761129 97.0111185,89.216877 81.5849704,89.216877 C66.1588223,89.216877 53.6536596,101.761129 53.6536596,117.23487 C53.6536596,132.709172 66.1588223,145.253143 81.5849704,145.253143 C85.1252282,145.253143 88.50857,144.585654 91.6253506,143.380301 L91.6138826,143.388719 L105.505835,148.661294 L103.401875,134.728474 L103.387331,134.739136 Z" id="Fill-70" fill="#D7F2ED"></path>
                    <path d="M73.3037545,118.380824 C73.3037545,119.642573 72.283941,120.665551 71.0260963,120.665551 C69.7682517,120.665551 68.7487179,119.642573 68.7487179,118.380824 C68.7487179,117.119076 69.7682517,116.096098 71.0260963,116.096098 C72.283941,116.096098 73.3037545,117.119076 73.3037545,118.380824" id="Fill-72" fill="#FFA395"></path>
                    <path d="M83.3060386,118.380824 C83.3060386,119.642573 82.286225,120.665551 81.0283804,120.665551 C79.7705358,120.665551 78.751002,119.642573 78.751002,118.380824 C78.751002,117.119076 79.7705358,116.096098 81.0283804,116.096098 C82.286225,116.096098 83.3060386,117.119076 83.3060386,118.380824" id="Fill-74" fill="#FFA395"></path>
                    <path d="M93.3083786,118.380824 C93.3083786,119.642573 92.2885651,120.665551 91.0307205,120.665551 C89.7728759,120.665551 88.753342,119.642573 88.753342,118.380824 C88.753342,117.119076 89.7728759,116.096098 91.0307205,116.096098 C92.2885651,116.096098 93.3083786,117.119076 93.3083786,118.380824" id="Fill-76" fill="#FFA395"></path>
                    <path d="M79.8626995,192.248901 C79.8626995,193.754188 78.6462516,194.974412 77.1456208,194.974412 C75.6449901,194.974412 74.4285422,193.754188 74.4285422,192.248901 C74.4285422,190.743613 75.6449901,189.523109 77.1456208,189.523109 C78.6462516,189.523109 79.8626995,190.743613 79.8626995,192.248901" id="Fill-78" fill="#238DF0"></path>
                    <path d="M65.9419091,169.928892 C65.9419091,171.61964 64.575538,172.990532 62.889741,172.990532 C61.2039439,172.990532 59.8375728,171.61964 59.8375728,169.928892 C59.8375728,168.238144 61.2039439,166.867252 62.889741,166.867252 C64.575538,166.867252 65.9419091,168.238144 65.9419091,169.928892" id="Fill-80" fill="#238DF0"></path>
                </g>
                <g id="Group-85" transform="translate(252.000000, 206.000000)">
                    <mask id="mask-17" fill="white">
                        <use xlink:href="#path-16"></use>
                    </mask>
                    <g id="Clip-84"></g>
                    <path d="M0.460763052,34.5858893 C1.4126506,43.0914391 7.15967871,143.396295 6.30365462,151.911941 L6.30365462,151.911941 L69.9918474,148.281328 C68.6584739,134.070731 54.6289558,52.7737269 45.5309237,41.7579336 L45.5309237,41.7579336 C36.9659036,31.3874391 24.5593173,24.8979926 15.1691968,15.2636605 L15.1691968,15.2636605 C10.8435341,10.8253727 7.18807229,5.73842066 4.36417671,0.2260369 L4.36417671,0.2260369 C1.77670683,11.5191882 -0.827911647,23.0728708 0.460763052,34.5858893" id="Fill-83" fill="url(#linearGradient-18)" mask="url(#mask-17)"></path>
                </g>
                <polygon id="Fill-86" fill="#FFA395" points="302 244.841057 376.510578 237 386 362 321.372997 361.341012"></polygon>
                <g id="Group-90" transform="translate(440.000000, 306.000000)">
                    <mask id="mask-20" fill="white">
                        <use xlink:href="#path-19"></use>
                    </mask>
                    <g id="Clip-89"></g>
                    <path d="M65.4975464,10.22952 C53.3185979,15.69736 39.5221546,17.13572 27.8305979,23.59084 L27.8305979,23.59084 C15.4119897,30.44776 6.49141237,42.39984 0.0378556701,55.08552 L0.0378556701,55.08552 L59.6658247,55.96024 C62.0106495,47.74728 67.9125155,41.11268 71.916866,33.57676 L71.916866,33.57676 C77.3363505,23.3758 79.1912784,11.70092 80.9657629,0.273 L80.9657629,0.273 C76.3412474,4.34224 71.1085361,7.71064 65.4975464,10.22952" id="Fill-88" fill="url(#linearGradient-21)" mask="url(#mask-20)"></path>
                </g>
                <g id="Group-95" transform="translate(256.000000, 212.000000)" fill="#FFFFFF">
                    <path d="M263.678589,99.307034 C258.954298,106.840845 253.428277,113.628309 246.871981,119.656587 C240.81596,125.224607 234.187034,130.107964 227.940325,135.440692 C227.778521,129.760189 227.178976,124.102295 226.133838,118.515016 C225.975119,117.665955 224.673674,118.025452 224.832113,118.872559 C225.893796,124.548596 226.486611,130.294969 226.617007,136.0673 C226.620933,136.230023 226.704219,136.331899 226.78442,136.433775 C226.197775,136.94511 225.590939,137.432999 225.013547,137.955498 C221.171187,141.431289 217.689732,145.289465 215.090489,149.784017 C214.656394,150.534552 215.822394,151.211958 216.256208,150.461982 C221.075563,142.128234 228.896288,136.311803 236.303108,130.402707 C238.058838,129.002398 239.809801,127.584784 241.540293,126.139539 C241.647695,126.176661 241.744722,126.235274 241.879605,126.209317 C246.16251,125.378119 250.478785,124.738393 254.819738,124.295999 C255.675589,124.208916 255.684563,122.86415 254.819738,122.95235 C250.960552,123.345899 247.123521,123.916964 243.307521,124.608605 C247.829626,120.741498 252.187124,116.674825 256.038457,112.159618 C259.296695,108.33996 262.180849,104.232537 264.844309,99.985278 C265.305605,99.2495368 264.137923,98.5740839 263.678589,99.307034" id="Fill-91"></path>
                    <path d="M1.45727566,0.553173567 C3.03998466,9.29331035 5.64539735,17.6357115 9.49028095,25.6535044 C13.0415614,33.058924 17.3802704,40.039534 21.1965508,47.2967447 C23.4618101,42.0804065 26.1255508,37.0466079 29.1765561,32.2427983 C29.6400958,31.5129185 30.7146778,32.3268113 30.2525402,33.0547373 C27.1530217,37.935303 24.4626407,43.0539518 22.1920534,48.366863 C22.1281169,48.5167466 22.0125825,48.5806634 21.9004132,48.6454176 C22.2548683,49.3367799 22.6368048,50.0139074 22.9786407,50.7119684 C25.253154,55.3578002 51.1070587,122.05263 51.8484021,127.185514 C51.9716037,128.043227 27.3894185,66.6026948 27.2657519,65.7460978 C25.892519,56.2280738 19.984281,47.7530941 15.3048577,39.5326652 C14.1957836,37.5844582 13.0973656,35.6220165 12.0283921,33.6414323 C11.9148206,33.6361292 11.8026513,33.6551089 11.6871169,33.5808649 C8.01861958,31.2290608 4.24776772,29.0427706 0.380730688,27.0306468 C-0.381459788,26.6337484 0.110683069,25.3816486 0.88100582,25.7827336 C4.31899524,27.5718464 7.67005344,29.5172623 10.9568947,31.5676246 C8.19640794,26.3074656 5.66362487,20.9231015 3.76768307,15.3087484 C2.16394233,10.5596449 1.0144873,5.68075397 0.122180423,0.753297412 C-0.0323328042,-0.10022939 1.30332328,-0.297003882 1.45727566,0.553173567" id="Fill-93"></path>
                </g>
                <g id="Group-98" transform="translate(381.000000, 216.000000)">
                    <mask id="mask-23" fill="white">
                        <use xlink:href="#path-22"></use>
                    </mask>
                    <g id="Clip-97"></g>
                    <path d="M67.9687143,51.3602909 C56.3258201,63.5970627 41.7210952,72.7032376 29.868164,84.7382338 L29.868164,84.7382338 C13.6529683,101.202793 3.04848148,123.060519 0.169656085,145.951437 L0.169656085,145.951437 L77.2498836,146.818905 C81.1014974,131.143004 90.2051587,117.326122 96.4055979,102.416521 L96.4055979,102.416521 C109.909101,69.9446122 108.935471,31.7933612 93.7923333,0.0477889734 L93.7923333,0.0477889734 C90.478291,19.1781901 81.371545,37.272884 67.9687143,51.3602909" id="Fill-96" fill="url(#linearGradient-24)" mask="url(#mask-23)"></path>
                </g>
                <g id="Group-109" transform="translate(409.000000, 220.000000)" fill="#FFFFFF">
                    <path d="M28.4935391,63.8619029 C27.5605679,74.568233 28.6189053,85.3850097 29.2208313,96.0835107 C29.2692428,96.9447146 30.61693,96.9503068 30.5682387,96.0835107 C29.9660329,85.3850097 28.9074156,74.568233 29.8406667,63.8619029 C29.9159424,62.9990214 28.5682551,63.0040544 28.4935391,63.8619029" id="Fill-99"></path>
                    <path d="M42.1685909,79.1520746 C50.5398667,75.5526338 58.9108626,71.953193 67.2821383,68.3537522 C68.0763111,68.0120668 67.3907144,66.8522377 66.6021383,67.1914066 C58.2308626,70.7908474 49.8598667,74.3905678 41.4885909,77.9900085 C40.6944181,78.3311348 41.3800148,79.4912435 42.1685909,79.1520746" id="Fill-101"></path>
                    <path d="M16.5960296,116.241581 C24.9673053,112.641861 33.3385811,109.04242 41.709577,105.442979 C42.5037498,105.101574 41.8184329,103.941744 41.029577,104.280913 C32.6585811,107.880354 24.2873053,111.479795 15.9160296,115.079236 C15.1221366,115.420362 15.8074535,116.580471 16.5960296,116.241581" id="Fill-103"></path>
                    <path d="M1.1944214,93.0048746 C2.61122798,104.029123 5.13338436,114.865193 8.76424856,125.37216 C9.04548313,126.18611 10.3472774,125.836036 10.0632444,125.014257 C6.47407572,114.627523 3.94240494,103.904696 2.54154897,93.0048746 C2.432693,92.1576513 1.08388642,92.1467464 1.1944214,93.0048746" id="Fill-105"></path>
                    <path d="M1.34472099,143.484592 C8.05937119,124.13267 22.1994535,108.831761 33.6153383,92.2124831 C39.8369185,83.1550229 44.8028774,73.4561336 49.7019556,63.6445608 C54.3780049,54.2792482 59.0406222,44.8532598 62.4772807,34.9477375 C66.3048691,23.9159394 68.3012148,12.391186 67.6156181,0.702300583 C67.5652477,-0.158623689 66.2178403,-0.164495534 66.2684905,0.702300583 C66.8908444,11.3121647 65.3103342,21.7976016 62.075437,31.9013685 C58.8702025,41.9120249 54.2876181,51.4081957 49.6168856,60.8014695 C44.7152889,70.6591783 39.8486716,80.5196831 33.707684,89.6831161 C28.1425975,97.9873025 21.9143012,105.817827 16.1099556,113.95145 C9.63680329,123.021772 3.71548642,132.550658 0.0457251029,143.126969 C-0.23886749,143.946848 1.06208724,144.29938 1.34472099,143.484592" id="Fill-107"></path>
                </g>
                <g id="Group-112" transform="translate(206.000000, 216.000000)">
                    <mask id="mask-26" fill="white">
                        <use xlink:href="#path-25"></use>
                    </mask>
                    <g id="Clip-111"></g>
                    <path d="M9.51784656,102.416521 C15.7182857,117.326122 24.8219471,131.143004 28.6735608,146.818905 L28.6735608,146.818905 L105.753508,145.951437 C102.874963,123.060519 92.2704762,101.202793 76.0552804,84.7382338 L76.0552804,84.7382338 C64.2023492,72.7032376 49.5976243,63.5970627 37.9547302,51.3602909 L37.9547302,51.3602909 C24.551619,37.272884 15.4451534,19.1781901 12.1308307,0.0477889734 L12.1308307,0.0477889734 C-3.01202646,31.7933612 -3.98593651,69.9446122 9.51784656,102.416521" id="Fill-110" fill="url(#linearGradient-27)" mask="url(#mask-26)"></path>
                </g>
                <g id="Group-144" transform="translate(192.000000, 194.000000)">
                    <g id="Group-123" transform="translate(23.825227, 25.322389)" fill="#FFFFFF">
                        <path d="M39.4949382,64.2611897 C40.4294477,75.0344595 39.3693652,85.9188665 38.7664468,96.6842582 C38.7179555,97.5508466 37.3680462,97.5564738 37.4170981,96.6842582 C38.0200165,85.9188665 39.0803792,75.0344595 38.1455894,64.2611897 C38.0701896,63.3929132 39.4200989,63.3979776 39.4949382,64.2611897" id="Fill-113"></path>
                        <path d="M25.7974229,79.6469609 C17.4123446,76.0250151 9.02754658,72.4030694 0.642468261,68.7811237 C-0.153014015,68.4373019 0.533432811,67.2702211 1.32358945,67.6115106 C9.70838747,71.2334564 18.0934658,74.8556835 26.4785441,78.4776292 C27.2740264,78.8208883 26.5872993,79.9882504 25.7974229,79.6469609" id="Fill-115"></path>
                        <path d="M51.4120643,116.968364 C43.026986,113.346137 34.6419077,109.724191 26.2571096,106.102246 C25.4616274,105.758705 26.1480742,104.591624 26.9382308,104.932914 C35.3230289,108.55486 43.7081072,112.176805 52.0931855,115.798751 C52.8883875,116.14201 52.2019406,117.309372 51.4120643,116.968364" id="Fill-117"></path>
                        <path d="M66.8391228,93.5863734 C65.4199802,104.679549 62.8936653,115.58337 59.2568145,126.15603 C58.9751162,126.975069 57.6711756,126.622806 57.9556768,125.79589 C61.5507634,115.344214 64.0866084,104.554344 65.4897741,93.5863734 C65.5988096,92.733853 66.9495598,92.7228799 66.8391228,93.5863734" id="Fill-119"></path>
                        <path d="M66.6885754,144.381707 C59.9628541,124.90879 45.7994575,109.512215 34.3647502,92.7890276 C28.1329118,83.674937 23.158765,73.9154069 18.2518895,64.0424887 C13.56785,54.6186209 8.89754493,45.133698 5.45522012,35.1662429 C1.62132069,24.0654702 -0.37831657,12.46866 0.308130256,0.70669161 C0.358863974,-0.15961546 1.70849299,-0.165524017 1.65775927,0.70669161 C1.03437923,11.3828922 2.61749547,21.9338877 5.8577263,32.100827 C9.06824567,42.1740734 13.6583858,51.7296177 18.3368195,61.1816215 C23.2464979,71.100964 28.1211393,81.0231202 34.2722523,90.2438462 C39.8465144,98.5999532 46.0847997,106.479437 51.8992762,114.663914 C58.3828211,123.790947 64.3139011,133.379411 67.9897131,144.021848 C68.2747749,144.846854 66.9716752,145.20159 66.6885754,144.381707" id="Fill-121"></path>
                    </g>
                    <path d="M2.67162077,22.8315102 C2.67162077,23.5273131 2.10962572,24.0914397 1.41645177,24.0914397 C0.72355812,24.0914397 0.161563067,23.5273131 0.161563067,22.8315102 C0.161563067,22.1357072 0.72355812,21.5715806 1.41645177,21.5715806 C2.10962572,21.5715806 2.67162077,22.1357072 2.67162077,22.8315102" id="Fill-124" fill="#D7F2ED"></path>
                    <path d="M45.2741533,25.4612966 C45.2741533,26.9705109 44.0551426,28.1944264 42.5513504,28.1944264 C41.0475581,28.1944264 39.8285474,26.9705109 39.8285474,25.4612966 C39.8285474,23.9518008 41.0475581,22.7278853 42.5513504,22.7278853 C44.0551426,22.7278853 45.2741533,23.9518008 45.2741533,25.4612966" id="Fill-126" fill="#D7F2ED"></path>
                    <path d="M31.3240346,3.07889303 C31.3240346,4.77436766 29.9547848,6.14909204 28.2654361,6.14909204 C26.5760874,6.14909204 25.2068376,4.77436766 25.2068376,3.07889303 C25.2068376,1.38341839 26.5760874,0.00869402029 28.2654361,0.00869402029 C29.9547848,0.00869402029 31.3240346,1.38341839 31.3240346,3.07889303" id="Fill-128" fill="#D7F2ED"></path>
                    <path d="M329.886948,162.102991 C330.387558,162.584397 330.404376,163.381771 329.924788,163.88428 C329.4452,164.386507 328.650559,164.40367 328.150229,163.922264 C327.649899,163.440857 327.632801,162.643202 328.112389,162.140974 C328.591977,161.638747 329.386338,161.621584 329.886948,162.102991" id="Fill-130" fill="#D7F2ED"></path>
                    <path d="M339.071181,138.823752 C340.15705,139.86816 340.193489,141.598242 339.153027,142.687949 C338.112566,143.777937 336.389021,143.814795 335.303431,142.770388 C334.217561,141.72598 334.180843,139.995898 335.221304,138.90591 C336.261766,137.816203 337.985311,137.779345 339.071181,138.823752" id="Fill-132" fill="#D7F2ED"></path>
                    <path d="M319.75834,103.057819 C320.844209,104.102227 320.880928,105.832309 319.840186,106.922297 C318.800005,108.012004 317.07618,108.048862 315.99059,107.004454 C314.904721,105.960046 314.868002,104.229964 315.908463,103.140258 C316.949205,102.050269 318.67247,102.013411 319.75834,103.057819" id="Fill-134" fill="#D7F2ED"></path>
                    <path d="M237.52983,49.5348699 C238.03016,50.0162767 238.047258,50.8136506 237.56767,51.3161593 C237.088082,51.8183867 236.293441,51.8355496 235.793111,51.3541429 C235.292782,50.8727361 235.275683,50.0750809 235.755271,49.5728535 C236.234859,49.0706261 237.02922,49.0534632 237.52983,49.5348699" id="Fill-136" fill="#D7F2ED"></path>
                    <path d="M268.897759,20.4786944 C269.983629,21.5231023 270.020068,23.2531842 268.979606,24.3431724 C267.939425,25.4328792 266.215599,25.4697374 265.13001,24.4253295 C264.04414,23.3809216 264.007421,21.6508397 265.047883,20.5611329 C266.088345,19.4711447 267.81189,19.4342866 268.897759,20.4786944" id="Fill-138" fill="#D7F2ED"></path>
                    <path d="M243.146725,15.1026105 C244.366577,16.2758812 244.407781,18.2192339 243.238943,19.4437121 C242.070106,20.667909 240.133815,20.7092689 238.914244,19.5362795 C237.694673,18.3630088 237.653469,16.4193748 238.822307,15.1951779 C239.990864,13.9709811 241.927154,13.9293398 243.146725,15.1026105" id="Fill-140" fill="#D7F2ED"></path>
                    <path d="M96.8813322,154.598588 C96.8813322,154.598588 81.5238714,151.921167 75.1423545,153.276478 C68.7605573,154.631507 59.8630965,156.6784 60.0472514,161.752726 L96.8813322,161.788458" id="Fill-142" fill="#FFF1FE"></path>
                </g>
                <g id="Group-147" transform="translate(70.000000, 355.000000)">
                    <mask id="mask-29" fill="white">
                        <use xlink:href="#path-28"></use>
                    </mask>
                    <g id="Clip-146"></g>
                    <path d="M0.508048907,0.241230769 C0.25696358,0.241230769 0.0529042664,0.436961538 0.0529042664,0.678730769 L0.0529042664,0.678730769 L0.0529042664,6.55819231 C0.0529042664,6.79969231 0.25696358,6.99569231 0.508048907,6.99569231 L0.508048907,6.99569231 L268.474876,6.99569231 C268.725961,6.99569231 268.930021,6.79969231 268.930021,6.55819231 L268.930021,6.55819231 L268.930021,0.678730769 C268.930021,0.436961538 268.725961,0.241230769 268.474876,0.241230769 L268.474876,0.241230769 L0.508048907,0.241230769 Z" id="Fill-145" fill="url(#linearGradient-30)" mask="url(#mask-29)"></path>
                </g>
                <g id="Group-150" transform="translate(58.000000, 246.000000)">
                    <mask id="mask-32" fill="white">
                        <use xlink:href="#path-31"></use>
                    </mask>
                    <g id="Clip-149"></g>
                    <path d="M4.29650155,0.16680292 C1.76278261,0.16680292 -0.213040373,2.37052068 0.0522763975,4.90107056 L0.0522763975,4.90107056 L11.2953556,112.158453 C11.5241351,114.339873 13.3557764,115.995484 15.5398618,115.995484 L15.5398618,115.995484 L176.699845,115.995484 C179.209955,115.995484 181.177908,113.830715 180.949972,111.320769 L180.949972,111.320769 L171.205483,4.06282238 C171.00509,1.85628224 169.162207,0.16680292 166.955637,0.16680292 L166.955637,0.16680292 L4.29650155,0.16680292 Z" id="Fill-148" fill="url(#linearGradient-33)" mask="url(#mask-32)"></path>
                </g>
                <g id="Group-155" transform="translate(53.000000, 246.000000)">
                    <path d="M176.515606,115.995456 L15.6052026,115.995456 C13.4245034,115.995456 11.5957019,114.339845 11.3675577,112.158424 L0.141628992,4.90104234 C-0.122995814,2.37049246 1.84948326,0.166774696 4.37927395,0.166774696 L166.786224,0.166774696 C168.989373,0.166774696 170.8294,1.85625401 171.029482,4.06279416 L180.758863,111.320741 C180.986727,113.830687 179.021824,115.995456 176.515606,115.995456" id="Fill-151" fill="#D7F2ED"></path>
                    <path d="M93.0552429,59.5011698 C93.0552429,64.4536078 89.0634212,68.4681674 84.13966,68.4681674 C79.2156181,68.4681674 75.2237964,64.4536078 75.2237964,59.5011698 C75.2237964,54.5487319 79.2156181,50.5341723 84.13966,50.5341723 C89.0634212,50.5341723 93.0552429,54.5487319 93.0552429,59.5011698" id="Fill-153" fill="#FFA395"></path>
                </g>
                <g id="Group-158" transform="translate(253.000000, 244.000000)">
                    <mask id="mask-35" fill="white">
                        <use xlink:href="#path-34"></use>
                    </mask>
                    <g id="Clip-157"></g>
                    <polygon id="Fill-156" fill="url(#linearGradient-36)" mask="url(#mask-35)" points="0.153802817 81.0466378 6.41464789 103.952778 59.9777465 35.2346378 50.2997183 0.209124324"></polygon>
                </g>
                <g id="Group-161" transform="translate(236.000000, 325.000000)">
                    <mask id="mask-38" fill="white">
                        <use xlink:href="#path-37"></use>
                    </mask>
                    <g id="Clip-160"></g>
                    <path d="M17.1241212,0.37492 C13.1170101,0.8946 7.03393939,2.87924 0.258505051,5.41884 L0.258505051,5.41884 L2.3930101,27.9524 C20.5381414,26.60112 23.4102626,23.19296 23.4102626,23.19296 L23.4102626,23.19296 C23.4102626,23.19296 35.7472323,0.18956 19.7824242,0.19068 L19.7824242,0.19068 C18.9715556,0.19096 18.0865859,0.25032 17.1241212,0.37492" id="Fill-159" fill="url(#linearGradient-39)" mask="url(#mask-38)"></path>
                </g>
                <g id="Group-164" transform="translate(362.000000, 234.000000)">
                    <mask id="mask-41" fill="white">
                        <use xlink:href="#path-40"></use>
                    </mask>
                    <g id="Clip-163"></g>
                    <path d="M14.6666132,0.343355844 C7.40566981,2.66914286 2.70821698,9.87063896 3.3839717,17.6390649 L3.3839717,17.6390649 L0.140349057,99.9838753 L21.9218113,107.830847 L28.9863208,17.2886961 C28.8823585,10.1194597 23.1942547,0.0305766234 16.6438113,0.0305766234 L16.6438113,0.0305766234 C15.9918585,0.0305766234 15.3308774,0.130722078 14.6666132,0.343355844" id="Fill-162" fill="url(#linearGradient-42)" mask="url(#mask-41)"></path>
                </g>
                <g id="Group-167" transform="translate(280.000000, 326.000000)">
                    <mask id="mask-44" fill="white">
                        <use xlink:href="#path-43"></use>
                    </mask>
                    <g id="Clip-166"></g>
                    <path d="M54.31048,2.74641322 L0.01456,18.2549091 L4.76252,33.9763967 L104.75584,16.1280826 L91.44576,6.68591736 C85.7066,2.02398347 78.4938,0.21861157 70.97608,0.219173423 L70.97608,0.219173423 C65.42956,0.219173423 59.71616,1.20236364 54.31048,2.74641322" id="Fill-165" fill="url(#linearGradient-45)" mask="url(#mask-44)"></path>
                </g>
                <polyline id="Fill-168" fill="#FFA395" points="319 250 320.127009 236.397107 348.381195 231 354 243.963284"></polyline>
                <g id="Group-172" transform="translate(460.000000, 13.000000)">
                    <mask id="mask-47" fill="white">
                        <use xlink:href="#path-46"></use>
                    </mask>
                    <g id="Clip-171"></g>
                    <path d="M13.8789341,0.187417722 C8.42603438,0.866911392 3.55748424,3.59936709 0.0884527221,7.55491139 L0.0884527221,7.55491139 C5.12295702,8.75683544 9.91175931,10.8744051 14.2394842,13.8354937 L14.2394842,13.8354937 C21.1994499,18.5919494 26.536659,25.2011392 29.6743438,32.9624051 L29.6743438,32.9624051 C30.2943553,34.5001772 31.8165845,35.544481 33.640957,35.7021013 L33.640957,35.7021013 C38.9641261,36.138481 44.0561948,38.1053924 48.3620172,41.366962 L48.3620172,41.366962 C49.3501605,42.1183038 50.2804585,42.9334177 51.1458911,43.7919747 L51.1458911,43.7919747 L85.0741089,43.7919747 L85.0741089,43.7777722 C90.0794097,43.7705316 94.9333582,40.8378481 96.9458682,35.6447342 L96.9458682,35.6447342 C98.9221547,30.5518734 97.2053295,24.5865316 92.8349226,21.2673165 L92.8349226,21.2673165 C90.7861891,19.7150633 88.4709742,18.8785063 86.1484585,18.684962 L86.1484585,18.684962 C83.0905215,18.4279241 80.4074556,16.5679494 79.2679599,13.749443 L79.2679599,13.749443 C76.0075645,5.69549367 68.0664756,0.00863291139 58.7842751,0.00863291139 L58.7842751,0.00863291139 C52.8627163,0.00863291139 47.4819828,2.32643038 43.5223897,6.08898734 L43.5223897,6.08898734 C40.3633639,9.10020253 35.3650831,9.372 32.2493009,6.31762025 L32.2493009,6.31762025 C28.2616275,2.41888608 22.7893524,0.00863291139 16.7433983,0.00863291139 L16.7433983,0.00863291139 C15.8010258,0.00863291139 14.8454556,0.0671139241 13.8789341,0.187417722" id="Fill-170" fill="url(#linearGradient-48)" mask="url(#mask-47)"></path>
                </g>
                <g id="Group-175" transform="translate(350.000000, 26.000000)">
                    <mask id="mask-50" fill="white">
                        <use xlink:href="#path-49"></use>
                    </mask>
                    <g id="Clip-174"></g>
                    <path d="M76.727636,9.8646371 C74.1460243,12.3516129 70.7855771,13.6638306 67.4610676,13.6638306 L67.4610676,13.6638306 C64.4105823,13.6638306 61.3890156,12.5545565 59.0452097,10.2273387 L59.0452097,10.2273387 C52.7999272,4.02866935 44.2181386,0.193629032 34.7424021,0.193629032 L34.7424021,0.193629032 C33.2566066,0.193629032 31.756773,0.287620968 30.2350399,0.483225806 L30.2350399,0.483225806 C14.6291334,2.4553629 2.10291161,15.2518145 0.343091854,30.9622984 L0.343091854,30.9622984 C-2.0077331,51.9941935 14.2975529,69.8004435 34.7424021,69.8004435 L34.7424021,69.8004435 L141.898523,69.8004435 L141.898523,69.7854839 C149.752014,69.7784274 157.360118,65.1093145 160.511678,56.8591935 L160.511678,56.8591935 C163.6127,48.7465323 160.922714,39.2708468 154.064527,33.992621 L154.064527,33.992621 C151.122135,31.7235484 147.819525,30.4260081 144.487716,29.9907661 L144.487716,29.9907661 C144.184773,29.9472984 143.88183,29.9108871 143.578887,29.8891532 L143.578887,29.8891532 C138.790482,29.4832661 134.579043,26.5252016 132.783567,22.0375806 L132.783567,22.0375806 C128.369979,10.9668548 118.461026,2.7091129 106.453653,0.686451613 L106.453653,0.686451613 C104.571702,0.36016129 102.638932,0.193629032 100.662925,0.193629032 L100.662925,0.193629032 C91.3744575,0.193629032 82.944,3.87653226 76.727636,9.8646371" id="Fill-173" fill="url(#linearGradient-51)" mask="url(#mask-50)"></path>
                </g>
                <g id="Group-178" transform="translate(168.000000, 393.000000)">
                    <mask id="mask-53" fill="white">
                        <use xlink:href="#path-52"></use>
                    </mask>
                    <g id="Clip-177"></g>
                    <path d="M13.9578395,0.384860759 C8.50522063,1.06435443 3.63667049,3.79653165 0.167358166,7.75207595 L0.167358166,7.75207595 C5.20214327,8.954 9.99122636,11.0710127 14.3183897,14.0323797 L14.3183897,14.0323797 C21.2786361,18.7893924 26.6158453,25.3985823 29.7535301,33.1595696 L29.7535301,33.1595696 C30.3738223,34.6973418 31.89549,35.7419241 33.7201433,35.8989873 L33.7201433,35.8989873 C39.0433123,36.3353671 44.1353811,38.302557 48.4412034,41.5644051 L48.4412034,41.5644051 C49.4293467,42.3151899 50.3596447,43.1308608 51.2253582,43.9888608 L51.2253582,43.9888608 L85.1532951,43.9888608 L85.1532951,43.9746582 C90.158596,43.9676962 95.0128252,41.0347342 97.0250544,35.8418987 L97.0250544,35.8418987 C99.001341,30.749038 97.2847966,24.7834177 92.9138281,21.4642025 L92.9138281,21.4642025 C90.8653754,19.9122278 88.5504413,19.0751139 86.2279255,18.8821266 L86.2279255,18.8821266 C83.1699885,18.6245316 80.4866418,16.764557 79.3468653,13.9466076 L79.3468653,13.9466076 C76.0870315,5.89237975 68.1459427,0.205518987 58.8631805,0.205518987 L58.8631805,0.205518987 C52.9421834,0.205518987 47.5614499,2.52331646 43.6015759,6.28587342 L43.6015759,6.28587342 C40.4422693,9.29708861 35.4442693,9.56916456 32.3282063,6.51478481 L32.3282063,6.51478481 C28.3413754,2.61605063 22.8685387,0.205518987 16.8231461,0.205518987 L16.8231461,0.205518987 C15.8804928,0.205518987 14.9249226,0.264278481 13.9578395,0.384860759" id="Fill-176" fill="url(#linearGradient-54)" mask="url(#mask-53)"></path>
                </g>
                <g id="Group-181" transform="translate(58.000000, 408.000000)">
                    <mask id="mask-56" fill="white">
                        <use xlink:href="#path-55"></use>
                    </mask>
                    <g id="Clip-180"></g>
                    <path d="M76.8073726,9.68178947 C74.2251993,12.1428826 70.8647522,13.4415911 67.5402426,13.4415911 L67.5402426,13.4415911 C64.4897574,13.4415911 61.4681906,12.3437368 59.1246655,10.0404777 L59.1246655,10.0404777 C52.879383,3.90534413 44.2973137,0.109785425 34.8215771,0.109785425 L34.8215771,0.109785425 C33.3357816,0.109785425 31.835948,0.203089069 30.3142149,0.396959514 L30.3142149,0.396959514 C14.7083085,2.34823482 2.18180589,15.0129474 0.42254766,30.5619717 L0.42254766,30.5619717 C-1.92350433,51.3329271 14.3065373,68.9248543 34.6896187,69 L34.6896187,69 L141.977979,69 L141.977979,68.985753 C149.83147,68.9784899 157.439574,64.3577247 160.591133,56.1917004 L160.591133,56.1917004 C163.691875,48.1628381 161.001889,38.7847045 154.143702,33.5610972 L154.143702,33.5610972 C151.20131,31.3151053 147.898419,30.0309231 144.566891,29.6001619 L144.566891,29.6001619 C144.263948,29.5571417 143.961005,29.5213846 143.658343,29.4998745 L143.658343,29.4998745 C138.869938,29.098166 134.658218,26.1705547 132.862461,21.7291336 L132.862461,21.7291336 C128.449154,10.7721012 118.540201,2.59937247 106.533109,0.597534413 L106.533109,0.597534413 C104.651158,0.274882591 102.718107,0.109785425 100.742101,0.109785425 L100.742101,0.109785425 C91.4536326,0.109785425 83.0234558,3.75477328 76.8073726,9.68178947" id="Fill-179" fill="url(#linearGradient-57)" mask="url(#mask-56)"></path>
                </g>
                <g id="Group-184" transform="translate(26.000000, 153.000000)">
                    <mask id="mask-59" fill="white">
                        <use xlink:href="#path-58"></use>
                    </mask>
                    <g id="Clip-183"></g>
                    <path d="M65.4836495,6.51587421 C62.376856,9.54938365 57.3989891,9.2765283 54.247413,6.28867925 L54.247413,6.28867925 C50.2978668,2.54535849 44.9396277,0.244352201 39.0350408,0.244352201 L39.0350408,0.244352201 C29.7807147,0.244352201 21.8684674,5.89572327 18.6211685,13.8973585 L18.6211685,13.8973585 C17.4836902,16.699522 14.8051304,18.5494591 11.7618723,18.801283 L11.7618723,18.801283 C9.44549185,18.9933333 7.1361087,19.8240755 5.09822011,21.3662893 L5.09822011,21.3662893 C0.738353261,24.6646289 -0.96982337,30.5913459 0.999211957,35.6579874 L0.999211957,35.6579874 C3.00379348,40.8159497 7.83919565,43.7335094 12.8316168,43.7384906 L12.8316168,43.7384906 L12.8316168,43.7501132 L80.9316902,43.7501132 C93.923125,43.7501132 104.284701,32.617283 102.789242,19.4742893 L102.789242,19.4742893 C101.671636,9.65260377 93.7101277,1.65899371 83.7916196,0.423119497 L83.7916196,0.423119497 C82.827394,0.303018868 81.872125,0.244352201 80.9319701,0.244352201 L80.9319701,0.244352201 C74.9087092,0.244352201 69.4544674,2.63833962 65.4836495,6.51587421" id="Fill-182" fill="url(#linearGradient-60)" mask="url(#mask-59)"></path>
                </g>
                <g id="Group-187" transform="translate(60.000000, 161.000000)">
                    <mask id="mask-62" fill="white">
                        <use xlink:href="#path-61"></use>
                    </mask>
                    <g id="Clip-186"></g>
                    <path d="M18.4689076,13.9251646 C17.3317092,16.7450633 14.6531495,18.6069873 11.6101712,18.8606835 L11.6101712,18.8606835 C9.29379076,19.0536709 6.98412772,19.8899494 4.94623913,21.4416456 L4.94623913,21.4416456 C0.586372283,24.7611392 -1.12180435,30.7250886 0.847230978,35.8237975 L0.847230978,35.8237975 C2.85209239,41.0144051 7.68721467,43.9507089 12.6799158,43.9557215 L12.6799158,43.9557215 L12.6799158,43.9671392 L80.7797092,43.9671392 C93.771144,43.9671392 104.13272,32.7641266 102.637261,19.5382278 L102.637261,19.5382278 C101.519655,9.65410127 93.5581467,1.61017722 83.6396386,0.365924051 L83.6396386,0.365924051 C76.4970924,-0.529949367 69.9224457,1.9858481 65.3316685,6.49751899 L65.3316685,6.49751899 C62.224875,9.55050633 57.247288,9.27564557 54.0951522,6.26888608 L54.0951522,6.26888608 C50.145606,2.50159494 44.7873668,0.186025316 38.8830598,0.186025316 L38.8830598,0.186025316 C29.6287337,0.186025316 21.7164864,5.87316456 18.4689076,13.9251646" id="Fill-185" fill="url(#linearGradient-63)" mask="url(#mask-62)"></path>
                </g>
                <g id="Group-190" transform="translate(488.000000, 0.000000)">
                    <mask id="mask-65" fill="white">
                        <use xlink:href="#path-64"></use>
                    </mask>
                    <g id="Clip-189"></g>
                    <path d="M16.759404,0.00584810127 C15.8355645,0.00807594937 14.898808,0.066556962 13.9513811,0.184632911 L13.9513811,0.184632911 C8.49876218,0.864405063 3.62993123,3.59686076 0.160899713,7.55240506 L0.160899713,7.55240506 C5.19540401,8.75405063 9.98448711,10.8710633 14.3119312,13.8324304 L14.3119312,13.8324304 C21.2718968,18.5891646 26.6093868,25.1986329 29.7467908,32.9596203 L29.7467908,32.9596203 C30.3670831,34.4976709 31.8890315,35.5416962 33.713404,35.6993165 L33.713404,35.6993165 C39.0365731,36.1354177 44.1286418,38.1026076 48.4344642,41.3644557 L48.4344642,41.3644557 C49.4226074,42.115519 50.3529054,42.9309114 51.2186189,43.7891899 L51.2186189,43.7891899 L85.1465559,43.7891899 L85.1465559,43.7749873 C90.1518567,43.7674684 95.006086,40.8350633 97.0183152,35.6419494 L97.0183152,35.6419494 C97.5630716,34.2378481 97.8273066,32.7677468 97.8326418,31.3046076 L97.8326418,31.3046076 L97.8326418,31.2141013 C97.8186017,27.4014177 96.0484241,23.649443 92.9073696,21.2645316 L92.9073696,21.2645316 C90.8586361,19.712557 88.5434212,18.875443 86.2209054,18.6824557 L86.2209054,18.6824557 C83.1629685,18.4248608 80.4799026,16.5651646 79.3404069,13.7469367 L79.3404069,13.7469367 C76.0802923,5.69270886 68.1392034,0.00584810127 58.8567221,0.00584810127 L58.8567221,0.00584810127 C52.9351633,0.00584810127 47.5547106,2.32336709 43.5948367,6.08592405 L43.5948367,6.08592405 C40.4358109,9.09713924 35.4375301,9.36921519 32.3217479,6.31483544 L32.3217479,6.31483544 C28.3453066,2.42696203 22.8921261,0.0192151899 16.8661089,0.00584810127 L16.8661089,0.00584810127 L16.759404,0.00584810127 Z" id="Fill-188" fill="url(#linearGradient-66)" mask="url(#mask-65)"></path>
                </g>
                <g id="Group-193" transform="translate(377.000000, 15.000000)">
                    <mask id="mask-68" fill="white">
                        <use xlink:href="#path-67"></use>
                    </mask>
                    <g id="Clip-192"></g>
                    <path d="M76.8006343,9.86209677 C74.2187418,12.3487903 70.8580139,13.6610081 67.5335043,13.6610081 L67.5335043,13.6610081 C64.4830191,13.6610081 61.4614523,12.5517339 59.1179272,10.2245161 L59.1179272,10.2245161 C52.8726447,4.02612903 44.2905754,0.190524194 34.8148388,0.190524194 L34.8148388,0.190524194 C33.3290433,0.190524194 31.8292097,0.284798387 30.3074766,0.480685484 L30.3074766,0.480685484 C14.7015702,2.45254032 2.17534835,15.2487097 0.416090121,30.9594758 L0.416090121,30.9594758 C-1.93529636,51.9916532 14.3699896,69.7973387 34.8148388,69.7973387 L34.8148388,69.7973387 L141.97096,69.7973387 L141.97096,69.7829435 C149.824731,69.7758871 157.433116,65.1067742 160.584114,56.856371 L160.584114,56.856371 C163.685137,48.7437097 160.995432,39.2677419 154.136964,33.9897984 L154.136964,33.9897984 C151.194853,31.7207258 147.891962,30.4229032 144.560153,29.9879435 L144.560153,29.9879435 C144.25749,29.9444758 143.954548,29.9083468 143.651324,29.8866129 L143.651324,29.8866129 C138.863199,29.4804435 134.65148,26.5226613 132.856003,22.0347581 L132.856003,22.0347581 C128.442416,10.9640323 118.533744,2.70629032 106.526652,0.683629032 L106.526652,0.683629032 C104.644139,0.357620968 102.711369,0.190524194 100.735362,0.190524194 L100.735362,0.190524194 C91.447175,0.190524194 83.0167175,3.87370968 76.8006343,9.86209677" id="Fill-191" fill="url(#linearGradient-69)" mask="url(#mask-68)"></path>
                </g>
            </g>
        </g>
    </g>
</svg>