<svg width="540" height="411" viewBox="0 0 540 411" fill="none" xmlns="http://www.w3.org/2000/svg">
<rect width="540" height="411" fill="white"/>
<path d="M429.4 330.085C345.61 373.855 209.77 373.855 125.99 330.085C42.2095 286.315 42.1995 215.345 125.99 171.575C209.78 127.805 345.62 127.805 429.4 171.575C513.18 215.345 513.19 286.315 429.4 330.085Z" fill="#FAFAFA"/>
<path d="M228.29 270.825C248 282.195 248 300.645 228.29 312.025C208.58 323.405 176.64 323.405 156.93 312.025C137.22 300.645 137.23 282.195 156.93 270.825C176.63 259.455 208.59 259.445 228.29 270.825Z" fill="#EBEBEB"/>
<path d="M435.809 107.725L383.009 91.3049L423.629 119.445L435.809 107.725Z" fill="#009FE3"/>
<path d="M383.009 91.305L439.879 100.685L452.059 88.955L383.009 91.305Z" fill="#009FE3"/>
<path d="M439.879 100.685V114.755L435.809 107.725L383.009 91.3049L439.879 100.685Z" fill="#455A64"/>
<path d="M439.879 114.755L431.749 111.635L435.809 107.725L439.879 114.755Z" fill="#009FE3"/>
<path d="M435.809 107.725L431.749 111.635L433.049 112.125L435.809 107.725Z" fill="#455A64"/>
<path d="M448.629 112.635C448.797 112.638 448.961 112.585 449.095 112.483C449.229 112.382 449.325 112.238 449.368 112.075C449.411 111.913 449.397 111.741 449.33 111.586C449.263 111.432 449.147 111.305 448.999 111.225C448.099 110.725 447.189 110.225 446.289 109.835C446.199 109.787 446.101 109.757 446 109.748C445.899 109.738 445.797 109.75 445.701 109.781C445.604 109.812 445.515 109.863 445.439 109.93C445.362 109.996 445.3 110.078 445.256 110.169C445.212 110.261 445.187 110.36 445.182 110.461C445.178 110.563 445.194 110.664 445.23 110.759C445.266 110.854 445.32 110.941 445.391 111.014C445.461 111.087 445.545 111.145 445.639 111.185C446.509 111.605 447.399 112.055 448.269 112.545C448.38 112.603 448.503 112.634 448.629 112.635Z" fill="#E0E0E0"/>
<path d="M457.859 193.395C458.013 193.397 458.163 193.351 458.289 193.265C459.916 192.119 461.456 190.855 462.899 189.485C462.991 189.426 463.068 189.347 463.126 189.255C463.184 189.162 463.221 189.059 463.235 188.95C463.249 188.842 463.239 188.732 463.206 188.629C463.173 188.525 463.117 188.429 463.044 188.349C462.97 188.269 462.88 188.205 462.779 188.163C462.678 188.122 462.57 188.102 462.461 188.107C462.352 188.111 462.245 188.139 462.148 188.189C462.051 188.239 461.966 188.309 461.899 188.395C460.507 189.716 459.02 190.933 457.449 192.035C457.32 192.128 457.223 192.259 457.173 192.41C457.123 192.561 457.123 192.724 457.172 192.876C457.221 193.027 457.317 193.159 457.446 193.253C457.575 193.346 457.73 193.396 457.889 193.395H457.859ZM465.699 186.115C465.81 186.116 465.92 186.093 466.02 186.046C466.12 185.999 466.209 185.931 466.279 185.845C467.539 184.307 468.686 182.679 469.709 180.975C469.813 180.804 469.844 180.599 469.796 180.405C469.748 180.211 469.625 180.043 469.454 179.94C469.283 179.837 469.078 179.805 468.884 179.853C468.69 179.901 468.523 180.024 468.419 180.195C467.433 181.839 466.33 183.409 465.119 184.895C464.994 185.048 464.935 185.244 464.954 185.441C464.972 185.637 465.068 185.818 465.219 185.945C465.353 186.058 465.524 186.119 465.699 186.115ZM471.329 177.015C471.475 177.016 471.617 176.976 471.74 176.897C471.862 176.819 471.959 176.707 472.019 176.575C472.836 174.765 473.538 172.904 474.119 171.005C474.162 170.82 474.133 170.626 474.038 170.462C473.944 170.298 473.79 170.175 473.609 170.119C473.428 170.064 473.232 170.079 473.062 170.161C472.891 170.244 472.758 170.388 472.689 170.565C472.136 172.402 471.468 174.202 470.689 175.955C470.647 176.045 470.624 176.142 470.62 176.241C470.616 176.34 470.631 176.439 470.666 176.532C470.7 176.625 470.753 176.71 470.82 176.783C470.888 176.856 470.969 176.914 471.059 176.955C471.144 176.993 471.236 177.013 471.329 177.015ZM474.579 166.805C474.753 166.803 474.92 166.742 475.053 166.631C475.186 166.519 475.277 166.365 475.309 166.195C475.691 164.252 475.961 162.289 476.119 160.315C476.135 160.116 476.071 159.919 475.942 159.767C475.813 159.615 475.628 159.521 475.429 159.505C475.23 159.489 475.033 159.553 474.881 159.682C474.729 159.812 474.635 159.996 474.619 160.195C474.472 162.112 474.212 164.019 473.839 165.905C473.819 166.002 473.818 166.101 473.837 166.198C473.856 166.295 473.894 166.387 473.949 166.469C474.004 166.551 474.075 166.622 474.157 166.676C474.24 166.73 474.332 166.767 474.429 166.785L474.579 166.805ZM475.529 156.125C475.628 156.125 475.726 156.105 475.817 156.067C475.908 156.028 475.991 155.972 476.06 155.901C476.129 155.83 476.183 155.746 476.219 155.654C476.255 155.562 476.272 155.464 476.269 155.365C476.246 153.386 476.112 151.409 475.869 149.445C475.868 149.34 475.845 149.236 475.801 149.14C475.757 149.044 475.693 148.959 475.614 148.889C475.534 148.82 475.441 148.768 475.34 148.736C475.24 148.705 475.133 148.696 475.029 148.709C474.924 148.721 474.823 148.756 474.733 148.81C474.643 148.865 474.565 148.937 474.504 149.024C474.444 149.11 474.402 149.209 474.383 149.312C474.363 149.416 474.365 149.522 474.389 149.625C474.62 151.537 474.747 153.46 474.769 155.385C474.771 155.484 474.791 155.581 474.83 155.671C474.869 155.762 474.925 155.844 474.996 155.912C475.067 155.981 475.15 156.035 475.241 156.072C475.333 156.108 475.431 156.126 475.529 156.125ZM474.309 145.475C474.366 145.485 474.423 145.485 474.479 145.475C474.673 145.432 474.841 145.314 474.948 145.147C475.054 144.981 475.091 144.779 475.049 144.585C474.611 142.648 474.05 140.741 473.369 138.875C473.336 138.778 473.283 138.688 473.214 138.612C473.145 138.536 473.061 138.475 472.967 138.433C472.873 138.391 472.772 138.368 472.669 138.367C472.566 138.365 472.464 138.385 472.369 138.425C472.273 138.459 472.184 138.513 472.109 138.582C472.034 138.652 471.973 138.736 471.931 138.829C471.889 138.923 471.866 139.023 471.864 139.126C471.862 139.228 471.881 139.33 471.919 139.425C472.575 141.229 473.116 143.073 473.539 144.945C473.589 145.107 473.692 145.248 473.832 145.345C473.971 145.441 474.14 145.487 474.309 145.475ZM470.749 135.375C470.865 135.38 470.979 135.352 471.079 135.295C471.169 135.253 471.249 135.194 471.315 135.121C471.381 135.048 471.432 134.962 471.465 134.869C471.498 134.776 471.511 134.677 471.505 134.578C471.499 134.48 471.473 134.383 471.429 134.295C470.556 132.513 469.575 130.786 468.489 129.125C468.38 128.97 468.216 128.862 468.031 128.823C467.845 128.784 467.652 128.817 467.489 128.915C467.331 129.021 467.219 129.184 467.178 129.371C467.137 129.557 467.17 129.752 467.269 129.915C468.324 131.52 469.276 133.19 470.119 134.915C470.171 135.043 470.257 135.153 470.369 135.235C470.48 135.316 470.612 135.365 470.749 135.375ZM464.999 126.375C465.167 126.377 465.329 126.32 465.459 126.215C465.537 126.154 465.602 126.077 465.651 125.991C465.699 125.904 465.729 125.809 465.741 125.71C465.752 125.611 465.743 125.512 465.716 125.416C465.688 125.321 465.642 125.232 465.579 125.155C464.33 123.611 462.994 122.139 461.579 120.745C461.439 120.605 461.248 120.526 461.049 120.526C460.851 120.526 460.66 120.605 460.519 120.745C460.379 120.886 460.3 121.076 460.3 121.275C460.3 121.474 460.379 121.664 460.519 121.805C461.882 123.165 463.171 124.597 464.379 126.095C464.457 126.181 464.553 126.247 464.661 126.289C464.768 126.33 464.884 126.346 464.999 126.335V126.375ZM457.479 118.695C457.588 118.695 457.696 118.67 457.794 118.624C457.893 118.577 457.98 118.509 458.049 118.425C458.176 118.272 458.237 118.075 458.221 117.877C458.204 117.678 458.11 117.495 457.959 117.365C456.437 116.099 454.852 114.911 453.209 113.805C453.048 113.706 452.855 113.672 452.67 113.709C452.485 113.746 452.32 113.852 452.209 114.005C452.098 114.171 452.056 114.375 452.093 114.571C452.131 114.768 452.244 114.942 452.409 115.055C454.012 116.131 455.557 117.289 457.039 118.525C457.165 118.626 457.319 118.685 457.479 118.695Z" fill="#E0E0E0"/>
<path d="M450.979 197.305C451.086 197.306 451.192 197.282 451.289 197.235C452.219 196.815 453.139 196.365 454.019 195.885C454.105 195.84 454.181 195.778 454.243 195.703C454.305 195.628 454.352 195.542 454.381 195.449C454.41 195.356 454.42 195.259 454.411 195.162C454.402 195.065 454.374 194.971 454.329 194.885C454.235 194.713 454.078 194.585 453.892 194.527C453.705 194.469 453.503 194.486 453.329 194.575C452.469 195.035 451.579 195.475 450.679 195.885C450.524 195.957 450.399 196.079 450.323 196.231C450.248 196.384 450.226 196.558 450.262 196.724C450.298 196.89 450.39 197.039 450.522 197.147C450.654 197.254 450.818 197.314 450.989 197.315L450.979 197.305Z" fill="#E0E0E0"/>
<path d="M108.93 161.015L66.6297 133.935L47.9997 139.915L108.93 161.015Z" fill="#009FE3"/>
<path d="M108.93 161.015L72.3697 130.535L80.4997 121.155L108.93 161.015Z" fill="#009FE3"/>
<path d="M72.3697 130.535V137.605L108.93 161.015L72.3697 130.535Z" fill="#455A64"/>
<path d="M64.1195 127.585C64.3009 127.586 64.4759 127.518 64.6095 127.395C64.7573 127.262 64.8474 127.077 64.8605 126.879C64.8736 126.681 64.8086 126.486 64.6795 126.335C63.3772 124.882 62.2216 123.305 61.2295 121.625C61.1287 121.453 60.9636 121.327 60.7704 121.277C60.5772 121.226 60.3719 121.254 60.1995 121.355C60.0271 121.456 59.9018 121.621 59.8512 121.814C59.8006 122.007 59.8287 122.213 59.9295 122.385C60.9768 124.146 62.1889 125.803 63.5495 127.335C63.6211 127.415 63.709 127.479 63.8073 127.522C63.9057 127.565 64.0121 127.587 64.1195 127.585ZM58.3995 118.265C58.4889 118.279 58.58 118.279 58.6695 118.265C58.7642 118.229 58.8506 118.174 58.9234 118.103C58.9963 118.033 59.0541 117.948 59.0933 117.855C59.1326 117.761 59.1525 117.661 59.1518 117.56C59.1512 117.458 59.13 117.358 59.0895 117.265C58.3829 115.444 57.8538 113.558 57.5095 111.635C57.4737 111.439 57.3614 111.265 57.1973 111.151C57.0332 111.038 56.8308 110.994 56.6345 111.03C56.4383 111.066 56.2642 111.178 56.1508 111.342C56.0373 111.506 55.9937 111.709 56.0295 111.905C56.3979 113.92 56.9571 115.896 57.6995 117.805C57.756 117.943 57.8532 118.061 57.9781 118.144C58.1031 118.226 58.25 118.268 58.3995 118.265ZM56.2595 107.535C56.3576 107.534 56.4544 107.513 56.5443 107.474C56.6343 107.435 56.7155 107.378 56.7835 107.308C56.8514 107.237 56.9046 107.153 56.9399 107.062C56.9753 106.971 56.9921 106.873 56.9895 106.775C56.9895 106.515 56.9895 106.255 56.9895 105.995C56.9938 104.297 57.1275 102.602 57.3895 100.925C57.4183 100.728 57.3684 100.527 57.2506 100.366C57.1327 100.205 56.9564 100.097 56.7595 100.065C56.5626 100.039 56.3631 100.09 56.2028 100.207C56.0426 100.325 55.9339 100.499 55.8995 100.695C55.6292 102.449 55.4921 104.221 55.4895 105.995C55.4895 106.265 55.4895 106.535 55.4895 106.805C55.4973 107.003 55.5822 107.19 55.726 107.327C55.8699 107.463 56.0613 107.538 56.2595 107.535ZM57.7695 96.695C57.9305 96.6945 58.0869 96.6414 58.215 96.544C58.3431 96.4465 58.436 96.31 58.4795 96.155C59.0532 94.2787 59.7721 92.4498 60.6295 90.685C60.6734 90.5966 60.6992 90.5003 60.7054 90.4017C60.7115 90.3032 60.6979 90.2044 60.6653 90.1112C60.6327 90.018 60.5817 89.9323 60.5155 89.8591C60.4492 89.7859 60.369 89.7267 60.2795 89.685C60.1004 89.599 59.8946 89.5876 59.7071 89.6532C59.5196 89.7188 59.3659 89.8561 59.2795 90.035C58.3851 91.8689 57.6393 93.7717 57.0495 95.725C57.0203 95.8189 57.0102 95.9176 57.0196 96.0155C57.029 96.1133 57.0579 96.2083 57.1044 96.2949C57.151 96.3814 57.2143 96.4579 57.2907 96.5197C57.3671 96.5815 57.4551 96.6275 57.5495 96.655C57.6195 96.6827 57.6942 96.6963 57.7695 96.695ZM62.4095 86.765C62.5358 86.7662 62.6603 86.7345 62.7707 86.6732C62.8811 86.6118 62.9738 86.5229 63.0395 86.415C64.1117 84.7693 65.2909 83.1959 66.5695 81.705C66.6341 81.6302 66.6832 81.5435 66.7141 81.4497C66.7451 81.3559 66.7571 81.2569 66.7497 81.1584C66.7423 81.0599 66.7155 80.9638 66.6708 80.8757C66.6262 80.7876 66.5645 80.7092 66.4895 80.645C66.4156 80.5807 66.3296 80.5318 66.2366 80.501C66.1436 80.4702 66.0454 80.4582 65.9478 80.4656C65.8501 80.4731 65.7549 80.4998 65.6676 80.5443C65.5804 80.5889 65.5028 80.6503 65.4395 80.725C64.1121 82.2682 62.8893 83.8985 61.7795 85.605C61.6872 85.7697 61.6587 85.9625 61.6992 86.1469C61.7398 86.3312 61.8466 86.4943 61.9995 86.605C62.1191 86.693 62.2614 86.745 62.4095 86.755V86.765ZM69.4095 78.355C69.6004 78.3544 69.7835 78.279 69.9195 78.145C71.3596 76.7973 72.8718 75.5287 74.4495 74.345C74.5283 74.2859 74.5947 74.2119 74.6449 74.1271C74.695 74.0424 74.728 73.9486 74.742 73.8511C74.7559 73.7536 74.7505 73.6543 74.726 73.5589C74.7016 73.4634 74.6586 73.3738 74.5995 73.295C74.5404 73.2162 74.4664 73.1498 74.3816 73.0996C74.2969 73.0495 74.2031 73.0165 74.1056 73.0025C74.008 72.9886 73.9088 72.994 73.8134 73.0185C73.718 73.0429 73.6283 73.0859 73.5495 73.145C71.9241 74.3599 70.3683 75.6653 68.8895 77.055C68.7783 77.1581 68.7009 77.2924 68.6676 77.4403C68.6343 77.5883 68.6467 77.7428 68.703 77.8836C68.7593 78.0244 68.857 78.1448 68.9831 78.229C69.1092 78.3131 69.2579 78.3571 69.4095 78.355ZM78.1795 71.695C78.3215 71.6937 78.4602 71.6521 78.5795 71.575C79.2595 71.155 79.9695 70.735 80.6895 70.325C81.6895 69.765 82.6895 69.205 83.7495 68.675C83.8463 68.6362 83.9339 68.5776 84.0067 68.5031C84.0796 68.4285 84.1361 68.3396 84.1727 68.242C84.2093 68.1443 84.2251 68.0401 84.2192 67.9361C84.2132 67.832 84.1856 67.7303 84.1381 67.6374C84.0907 67.5446 84.0244 67.4627 83.9435 67.3969C83.8626 67.3312 83.7689 67.283 83.6684 67.2555C83.5678 67.2279 83.4626 67.2217 83.3595 67.2371C83.2564 67.2525 83.1576 67.2893 83.0695 67.345C82.0195 67.885 80.9695 68.445 79.9495 69.025C79.2095 69.435 78.4895 69.865 77.7895 70.305C77.6279 70.4082 77.512 70.5693 77.4655 70.7552C77.419 70.9412 77.4455 71.1379 77.5395 71.305C77.6041 71.4191 77.6969 71.5149 77.8089 71.5831C77.9209 71.6514 78.0484 71.6899 78.1795 71.695ZM167.829 71.185C167.962 71.1836 168.091 71.1478 168.205 71.0811C168.319 71.0145 168.413 70.9193 168.479 70.805C168.574 70.6361 168.599 70.4368 168.549 70.2499C168.498 70.0629 168.376 69.9032 168.209 69.805C166.469 68.805 164.68 67.805 162.87 66.965C162.692 66.8783 162.487 66.8654 162.299 66.9291C162.112 66.9928 161.958 67.1279 161.87 67.305C161.786 67.4844 161.776 67.6893 161.842 67.876C161.907 68.0628 162.042 68.2167 162.22 68.305C164 69.175 165.76 70.105 167.47 71.095C167.581 71.1495 167.705 71.1736 167.829 71.165V71.185ZM87.9295 66.615C88.0336 66.6156 88.1364 66.5917 88.2295 66.545C90.0295 65.755 91.8895 65.015 93.7495 64.355C93.9378 64.2874 94.0915 64.1477 94.1769 63.9667C94.2622 63.7858 94.2721 63.5783 94.2045 63.39C94.1369 63.2017 93.9972 63.048 93.8162 62.9626C93.6353 62.8773 93.4278 62.8674 93.2395 62.935C91.3495 63.615 89.4595 64.365 87.6195 65.175C87.4591 65.2432 87.3274 65.3652 87.2472 65.52C87.1669 65.6747 87.1431 65.8526 87.1798 66.023C87.2165 66.1934 87.3114 66.3458 87.4482 66.4538C87.5851 66.5618 87.7552 66.6188 87.9295 66.615ZM157.979 66.305C158.127 66.306 158.272 66.2627 158.395 66.1807C158.518 66.0987 158.614 65.9818 158.669 65.845C158.71 65.7533 158.733 65.6543 158.735 65.5538C158.737 65.4534 158.718 65.3536 158.681 65.2603C158.644 65.1671 158.588 65.0822 158.517 65.0109C158.447 64.9395 158.362 64.8831 158.269 64.845C156.419 64.065 154.52 63.345 152.62 62.695C152.524 62.6554 152.421 62.636 152.318 62.638C152.215 62.64 152.113 62.6633 152.019 62.7065C151.925 62.7497 151.841 62.8118 151.772 62.889C151.704 62.9662 151.652 63.0567 151.62 63.155C151.583 63.2514 151.566 63.3541 151.571 63.4571C151.575 63.56 151.599 63.6611 151.643 63.7544C151.687 63.8476 151.749 63.9311 151.826 63.9999C151.902 64.0688 151.992 64.1215 152.09 64.155C153.96 64.795 155.84 65.505 157.65 66.265C157.757 66.2949 157.869 66.3017 157.979 66.285V66.305ZM98.2495 62.845C98.3192 62.8547 98.3898 62.8547 98.4595 62.845C100.349 62.295 102.29 61.845 104.22 61.375C104.316 61.354 104.407 61.3142 104.489 61.2578C104.57 61.2015 104.639 61.1297 104.692 61.0466C104.746 60.9635 104.782 60.8707 104.8 60.7734C104.817 60.6762 104.816 60.5765 104.794 60.48C104.773 60.3835 104.734 60.292 104.677 60.2109C104.621 60.1298 104.549 60.0605 104.466 60.0071C104.383 59.9537 104.29 59.9172 104.193 59.8997C104.096 59.8822 103.996 59.884 103.899 59.905C101.899 60.335 99.9595 60.845 98.0395 61.405C97.8662 61.4555 97.7169 61.5669 97.6191 61.7187C97.5213 61.8704 97.4815 62.0523 97.507 62.2311C97.5326 62.4098 97.6217 62.5733 97.7581 62.6916C97.8945 62.8099 98.069 62.875 98.2495 62.875V62.845ZM147.6 62.695C147.763 62.6944 147.922 62.6403 148.052 62.541C148.182 62.4417 148.276 62.3026 148.32 62.145C148.347 62.0511 148.356 61.9527 148.345 61.8555C148.334 61.7583 148.304 61.6642 148.256 61.5786C148.209 61.493 148.145 61.4177 148.068 61.357C147.992 61.2964 147.904 61.2515 147.81 61.225C145.88 60.685 143.899 60.225 141.93 59.785C141.83 59.7531 141.724 59.7425 141.62 59.7539C141.516 59.7653 141.415 59.7984 141.325 59.851C141.234 59.9036 141.156 59.9747 141.094 60.0595C141.033 60.1444 140.99 60.2412 140.968 60.3437C140.946 60.4462 140.946 60.5521 140.968 60.6547C140.989 60.7572 141.032 60.854 141.094 60.9389C141.155 61.0239 141.234 61.095 141.324 61.1477C141.415 61.2004 141.515 61.2335 141.62 61.245C143.56 61.655 145.5 62.135 147.4 62.665L147.6 62.695ZM108.97 60.435H109.12C111.07 60.125 113.059 59.875 115.019 59.695C115.123 59.6939 115.225 59.6714 115.319 59.629C115.413 59.5867 115.498 59.5253 115.567 59.4488C115.636 59.3722 115.689 59.2822 115.722 59.1843C115.755 59.0864 115.767 58.9828 115.758 58.8798C115.749 58.7769 115.719 58.677 115.67 58.5863C115.621 58.4956 115.553 58.4161 115.471 58.3527C115.39 58.2893 115.296 58.2435 115.196 58.2181C115.096 58.1927 114.991 58.1882 114.889 58.205C112.889 58.385 110.889 58.635 108.889 58.955C108.694 58.9893 108.521 59.0984 108.405 59.259C108.289 59.4197 108.24 59.6191 108.269 59.815C108.305 59.9768 108.392 60.1225 108.519 60.2292C108.646 60.3359 108.804 60.3977 108.97 60.405V60.435ZM136.859 60.365C137.038 60.3649 137.21 60.3015 137.345 60.1861C137.481 60.0706 137.571 59.9108 137.6 59.735C137.628 59.5377 137.578 59.3369 137.461 59.176C137.343 59.0151 137.166 58.907 136.97 58.875C134.97 58.575 132.97 58.325 130.97 58.155C130.871 58.1465 130.772 58.1574 130.678 58.1872C130.583 58.217 130.496 58.2651 130.42 58.3287C130.344 58.3923 130.282 58.4702 130.236 58.5579C130.191 58.6457 130.163 58.7415 130.155 58.84C130.146 58.9385 130.157 59.0377 130.187 59.132C130.217 59.2262 130.265 59.3137 130.328 59.3894C130.392 59.465 130.47 59.5275 130.557 59.573C130.645 59.6186 130.741 59.6465 130.84 59.655C132.84 59.825 134.789 60.055 136.739 60.365H136.859ZM119.91 59.365C121.91 59.295 123.909 59.285 125.859 59.365C125.958 59.3704 126.056 59.3558 126.149 59.3222C126.241 59.2886 126.326 59.2366 126.398 59.1693C126.47 59.102 126.528 59.0209 126.567 58.9308C126.607 58.8407 126.628 58.7435 126.63 58.645C126.634 58.5462 126.618 58.4475 126.583 58.3549C126.548 58.2623 126.495 58.1776 126.427 58.1058C126.359 58.034 126.277 57.9766 126.187 57.937C126.096 57.8973 125.998 57.8762 125.9 57.875C123.9 57.805 121.9 57.815 119.9 57.875C119.801 57.8776 119.704 57.8996 119.614 57.9397C119.524 57.9798 119.443 58.0372 119.375 58.1087C119.307 58.1802 119.254 58.2644 119.219 58.3564C119.184 58.4484 119.167 58.5465 119.169 58.645C119.184 58.8326 119.268 59.008 119.405 59.1373C119.542 59.2666 119.721 59.3406 119.91 59.345V59.365Z" fill="#E0E0E0"/>
<path d="M123.681 175.635V174.035H124.071C124.664 172.951 125.565 172.067 126.661 171.495C128.895 170.361 131.365 169.77 133.871 169.77C136.376 169.77 138.846 170.361 141.081 171.495C142.176 172.067 143.077 172.951 143.671 174.035H144.061V175.585C144.061 177.115 143.061 178.655 141.061 179.825C138.825 180.954 136.355 181.542 133.851 181.542C131.346 181.542 128.876 180.954 126.641 179.825C124.661 178.695 123.671 177.155 123.681 175.635Z" fill="#37474F"/>
<path d="M133.871 179.925C128.243 179.925 123.681 177.288 123.681 174.035C123.681 170.782 128.243 168.145 133.871 168.145C139.498 168.145 144.061 170.782 144.061 174.035C144.061 177.288 139.498 179.925 133.871 179.925Z" fill="#455A64"/>
<path d="M136.49 124.995V173.345C136.469 173.574 136.387 173.794 136.254 173.982C136.12 174.17 135.94 174.319 135.73 174.415C135.155 174.706 134.52 174.857 133.875 174.857C133.231 174.857 132.595 174.706 132.02 174.415C131.808 174.321 131.625 174.173 131.49 173.985C131.354 173.797 131.272 173.576 131.25 173.345V124.995H136.49Z" fill="#37474F"/>
<path d="M122.119 88.805C124.669 87.335 126.989 87.215 128.729 88.185L161.119 106.905L144.869 139.495L112.369 120.695V106.435C112.369 99.805 116.739 91.915 122.119 88.805Z" fill="#455A64"/>
<path d="M144.869 125.225V139.495L164.359 128.235V113.975C164.359 107.345 159.999 104.495 154.619 107.605C151.169 109.605 148.139 113.545 146.409 117.865C145.442 120.201 144.919 122.697 144.869 125.225Z" fill="#37474F"/>
<path d="M144.869 125.225V139.495L164.359 128.235L146.409 117.865C145.442 120.201 144.919 122.697 144.869 125.225Z" fill="#263238"/>
<path d="M148.12 130.115C149.91 124.935 155.73 118.215 161.12 115.115C166.51 112.015 169.41 113.685 167.62 118.865L164.37 128.245L144.87 139.505C144.87 139.505 146.32 135.295 148.12 130.115Z" fill="#455A64"/>
<path d="M134.71 125.765L135.8 125.135C136.034 125.027 136.292 124.984 136.549 125.008C136.805 125.033 137.051 125.125 137.26 125.275C137.862 125.669 138.363 126.199 138.723 126.823C139.083 127.447 139.291 128.146 139.33 128.865C139.357 129.122 139.315 129.383 139.208 129.618C139.1 129.854 138.932 130.056 138.72 130.205L137.72 130.785L137.53 130.475C137.322 130.43 137.123 130.353 136.94 130.245C136.338 129.853 135.836 129.325 135.477 128.703C135.117 128.081 134.909 127.382 134.87 126.665C134.871 126.486 134.894 126.308 134.94 126.135L134.71 125.765Z" fill="#263238"/>
<path d="M136.219 125.885C136.821 126.277 137.322 126.805 137.682 127.428C138.042 128.05 138.25 128.748 138.289 129.465C138.289 130.785 137.359 131.315 136.219 130.655C135.616 130.264 135.115 129.735 134.755 129.113C134.395 128.491 134.188 127.793 134.149 127.075C134.119 125.755 135.119 125.225 136.219 125.885Z" fill="#37474F"/>
<path d="M136.22 128.835C136.299 128.835 136.377 128.819 136.45 128.789C136.523 128.759 136.589 128.715 136.645 128.659C136.7 128.604 136.744 128.537 136.775 128.465C136.805 128.392 136.82 128.314 136.82 128.235V107.605C136.82 107.446 136.757 107.293 136.645 107.181C136.532 107.068 136.379 107.005 136.22 107.005C136.061 107.005 135.909 107.068 135.796 107.181C135.684 107.293 135.62 107.446 135.62 107.605V128.235C135.62 128.394 135.684 128.547 135.796 128.659C135.909 128.772 136.061 128.835 136.22 128.835Z" fill="#263238"/>
<path d="M135.68 108.145V113.525L129.91 107.605L135.68 108.145Z" fill="#37474F"/>
<path d="M439.04 286.605C439.54 286.875 448.72 289.475 452.12 284.985C455.52 280.495 449.87 273.495 453.06 270.915C456.25 268.335 465.19 270.915 467.34 265.495C469.49 260.075 463.12 257.735 466.7 252.265C468.96 248.815 475.28 246.915 474.99 243.705C474.57 239.015 465.93 237.705 458.39 242.775C450.85 247.845 447.33 243.685 444.94 243.345C442.55 243.005 437.39 243.755 437.55 252.155C437.71 260.555 439.04 286.605 439.04 286.605Z" fill="#009FE3"/>
<path d="M438.431 274.695C438.551 274.695 438.666 274.652 438.757 274.576C438.849 274.499 438.91 274.392 438.931 274.275C441.561 258.275 460.091 245.345 469.731 242.565C469.795 242.548 469.855 242.518 469.907 242.477C469.958 242.436 470.002 242.385 470.033 242.327C470.065 242.27 470.085 242.206 470.091 242.14C470.098 242.074 470.091 242.008 470.071 241.945C470.034 241.818 469.948 241.71 469.832 241.647C469.715 241.583 469.579 241.568 469.451 241.605C459.601 244.455 440.641 257.745 437.941 274.115C437.921 274.245 437.953 274.377 438.029 274.484C438.106 274.591 438.222 274.663 438.351 274.685L438.431 274.695Z" fill="white"/>
<path d="M460.29 261.305C460.4 261.306 460.507 261.271 460.595 261.205C460.683 261.139 460.747 261.046 460.776 260.94C460.806 260.834 460.8 260.721 460.759 260.619C460.718 260.517 460.645 260.431 460.55 260.375C460.25 260.195 453.11 256.025 446.09 257.975C445.957 258.009 445.844 258.095 445.775 258.213C445.705 258.331 445.686 258.472 445.72 258.605C445.755 258.738 445.84 258.851 445.958 258.92C446.077 258.99 446.217 259.009 446.35 258.975C452.97 257.135 459.97 261.225 460.04 261.265C460.118 261.302 460.205 261.316 460.29 261.305Z" fill="white"/>
<path d="M177.621 202.115C173.681 202.655 166.971 200.375 166.491 193.815C166.011 187.255 163.301 185.475 158.331 184.405C153.361 183.335 151.901 181.605 151.331 178.485C150.761 175.365 154.541 171.635 153.481 166.935C152.421 162.235 148.881 162.245 145.401 156.935C143.171 153.515 147.741 148.295 155.351 150.535C162.961 152.775 162.351 157.685 169.961 158.315C177.571 158.945 182.341 163.565 182.491 169.315C182.641 175.065 177.621 202.115 177.621 202.115Z" fill="#009FE3"/>
<path opacity="0.2" d="M177.621 202.115C173.681 202.655 166.971 200.375 166.491 193.815C166.011 187.255 163.301 185.475 158.331 184.405C153.361 183.335 151.901 181.605 151.331 178.485C150.761 175.365 154.541 171.635 153.481 166.935C152.421 162.235 148.881 162.245 145.401 156.935C143.171 153.515 147.741 148.295 155.351 150.535C162.961 152.775 162.351 157.685 169.961 158.315C177.571 158.945 182.341 163.565 182.491 169.315C182.641 175.065 177.621 202.115 177.621 202.115Z" fill="black"/>
<path d="M179.059 189.535H179.119C179.184 189.522 179.245 189.496 179.299 189.459C179.354 189.423 179.4 189.376 179.437 189.321C179.473 189.266 179.498 189.205 179.51 189.14C179.523 189.076 179.523 189.009 179.509 188.945C175.829 170.755 155.759 154.105 150.869 152.405C150.737 152.361 150.592 152.372 150.468 152.435C150.343 152.498 150.248 152.607 150.204 152.74C150.161 152.873 150.171 153.017 150.234 153.142C150.297 153.267 150.407 153.361 150.539 153.405C155.319 155.065 174.929 171.405 178.539 189.195C178.577 189.301 178.648 189.392 178.742 189.453C178.836 189.515 178.947 189.543 179.059 189.535Z" fill="white"/>
<path d="M443.24 183.085C443.191 182.183 442.93 181.306 442.479 180.524C442.027 179.742 441.397 179.078 440.64 178.585L307.73 101.845C306.925 101.44 306.036 101.23 305.135 101.23C304.234 101.23 303.345 101.44 302.54 101.845L299.61 103.545C298.852 104.036 298.221 104.7 297.769 105.482C297.317 106.264 297.057 107.143 297.01 108.045V209.925C297.061 210.826 297.323 211.703 297.775 212.484C298.226 213.266 298.855 213.931 299.61 214.425L432.52 291.155C433.326 291.564 434.217 291.778 435.12 291.778C436.024 291.778 436.915 291.564 437.72 291.155L440.64 289.465C441.396 288.971 442.025 288.307 442.477 287.525C442.928 286.743 443.19 285.866 443.24 284.965V183.085Z" fill="#009FE3"/>
<path opacity="0.3" d="M443.24 183.085C443.191 182.183 442.93 181.306 442.479 180.524C442.027 179.742 441.397 179.078 440.64 178.585L307.73 101.845C306.925 101.44 306.036 101.23 305.135 101.23C304.234 101.23 303.345 101.44 302.54 101.845L299.61 103.545C298.852 104.036 298.221 104.7 297.769 105.482C297.317 106.264 297.057 107.143 297.01 108.045V209.925C297.061 210.826 297.323 211.703 297.775 212.484C298.226 213.266 298.855 213.931 299.61 214.425L432.52 291.155C433.326 291.564 434.217 291.778 435.12 291.778C436.024 291.778 436.915 291.564 437.72 291.155L440.64 289.465C441.396 288.971 442.025 288.307 442.477 287.525C442.928 286.743 443.19 285.866 443.24 284.965V183.085Z" fill="black"/>
<path d="M431.06 187.125L442.48 180.525C442.947 181.3 443.209 182.181 443.24 183.085V284.965C443.19 285.866 442.928 286.743 442.477 287.525C442.025 288.307 441.396 288.971 440.64 289.465L437.72 291.155C436.915 291.564 436.024 291.778 435.12 291.778C434.217 291.778 433.326 291.564 432.52 291.155L431.06 290.315V187.125Z" fill="#009FE3"/>
<path opacity="0.5" d="M431.06 187.125L442.48 180.525C442.947 181.3 443.209 182.181 443.24 183.085V284.965C443.19 285.866 442.928 286.743 442.477 287.525C442.025 288.307 441.396 288.971 440.64 289.465L437.72 291.155C436.915 291.564 436.024 291.778 435.12 291.778C434.217 291.778 433.326 291.564 432.52 291.155L431.06 290.315V187.125Z" fill="black"/>
<path d="M297.011 108.045V209.925C297.045 210.858 297.324 211.765 297.821 212.555C298.205 213.221 298.723 213.799 299.341 214.255L299.441 214.315L299.611 214.425L432.521 291.155C432.775 291.335 433.071 291.447 433.38 291.482C433.69 291.517 434.003 291.473 434.291 291.355C434.568 291.181 434.792 290.934 434.938 290.641C435.084 290.348 435.148 290.021 435.121 289.695V187.775C435.144 187.41 435.077 187.046 434.928 186.712C434.779 186.378 434.551 186.086 434.264 185.86C433.977 185.634 433.639 185.481 433.28 185.414C432.921 185.347 432.55 185.368 432.201 185.475L376.311 198.765L368.991 200.505C368.127 200.667 367.235 200.589 366.412 200.281C365.589 199.973 364.866 199.445 364.321 198.755L355.841 186.945L298.761 107.475C297.801 106.135 297.011 106.385 297.011 108.045Z" fill="#009FE3"/>
<path opacity="0.2" d="M297.011 108.045V209.925C297.045 210.858 297.324 211.765 297.821 212.555C298.205 213.221 298.723 213.799 299.341 214.255L299.441 214.315L299.611 214.425L432.521 291.155C432.775 291.335 433.071 291.447 433.38 291.482C433.69 291.517 434.003 291.473 434.291 291.355C434.568 291.181 434.792 290.934 434.938 290.641C435.084 290.348 435.148 290.021 435.121 289.695V187.775C435.144 187.41 435.077 187.046 434.928 186.712C434.779 186.378 434.551 186.086 434.264 185.86C433.977 185.634 433.639 185.481 433.28 185.414C432.921 185.347 432.55 185.368 432.201 185.475L376.311 198.765L368.991 200.505C368.127 200.667 367.235 200.589 366.412 200.281C365.589 199.973 364.866 199.445 364.321 198.755L355.841 186.945L298.761 107.475C297.801 106.135 297.011 106.385 297.011 108.045Z" fill="black"/>
<path d="M299.61 214.425L299.44 214.315L299.34 214.255C298.721 213.799 298.204 213.22 297.82 212.555C297.328 211.777 297.049 210.884 297.01 209.965L355.84 186.965L316.44 224.165L299.61 214.425Z" fill="#009FE3"/>
<path opacity="0.6" d="M299.61 214.425L299.44 214.315L299.34 214.255C298.721 213.799 298.204 213.22 297.82 212.555C297.328 211.777 297.049 210.884 297.01 209.965L355.84 186.965L316.44 224.165L299.61 214.425Z" fill="black"/>
<path d="M435.121 289.695C435.159 290.027 435.104 290.364 434.961 290.666C434.817 290.968 434.592 291.224 434.311 291.405C434.023 291.523 433.71 291.567 433.4 291.532C433.091 291.497 432.795 291.385 432.541 291.205L386.761 264.695L376.311 198.695L435.121 287.965V289.695Z" fill="#009FE3"/>
<path opacity="0.6" d="M435.121 289.695C435.159 290.027 435.104 290.364 434.961 290.666C434.817 290.968 434.592 291.224 434.311 291.405C434.023 291.523 433.71 291.567 433.4 291.532C433.091 291.497 432.795 291.385 432.541 291.205L386.761 264.695L376.311 198.695L435.121 287.965V289.695Z" fill="black"/>
<path d="M297.821 212.555C298.205 213.22 298.723 213.799 299.341 214.255L299.441 214.315L432.521 291.155C432.775 291.335 433.071 291.447 433.38 291.482C433.69 291.517 434.003 291.473 434.291 291.355L370.641 189.745C369.362 187.71 367.392 186.203 365.093 185.502C362.794 184.8 360.319 184.951 358.121 185.925L297.821 212.555Z" fill="#009FE3"/>
<path opacity="0.2" d="M297.821 212.555C298.205 213.22 298.723 213.799 299.341 214.255L299.441 214.315L432.521 291.155C432.775 291.335 433.071 291.447 433.38 291.482C433.69 291.517 434.003 291.473 434.291 291.355L370.641 189.745C369.362 187.71 367.392 186.203 365.093 185.502C362.794 184.8 360.319 184.951 358.121 185.925L297.821 212.555Z" fill="black"/>
<path d="M435.121 184.775L373.991 211.775C371.79 212.747 369.313 212.892 367.013 212.185C364.713 211.478 362.746 209.966 361.471 207.925L297.281 105.195L435.121 184.775Z" fill="#009FE3"/>
<path opacity="0.6" d="M435.121 184.775L373.991 211.775C371.79 212.747 369.313 212.892 367.013 212.185C364.713 211.478 362.746 209.966 361.471 207.925L297.281 105.195L435.121 184.775Z" fill="black"/>
<path d="M435.121 184.775L373.561 207.775C371.434 208.569 369.099 208.616 366.942 207.907C364.785 207.198 362.933 205.776 361.691 203.875L297.281 105.195L435.121 184.775Z" fill="#009FE3"/>
<path opacity="0.2" d="M435.121 184.775L373.561 207.775C371.434 208.569 369.099 208.616 366.942 207.907C364.785 207.198 362.933 205.776 361.691 203.875L297.281 105.195L435.121 184.775Z" fill="black"/>
<path d="M420.541 195.635C420.495 194.733 420.235 193.854 419.783 193.072C419.331 192.29 418.7 191.626 417.941 191.135L285.031 114.395C284.225 113.986 283.335 113.772 282.431 113.772C281.527 113.772 280.637 113.986 279.831 114.395L276.901 116.085C276.146 116.579 275.518 117.244 275.068 118.025C274.618 118.807 274.359 119.684 274.311 120.585V222.465C274.36 223.366 274.62 224.242 275.07 225.023C275.52 225.805 276.147 226.47 276.901 226.965L409.821 303.695C410.626 304.1 411.515 304.31 412.416 304.31C413.317 304.31 414.206 304.1 415.011 303.695L417.941 302.005C418.696 301.511 419.325 300.846 419.776 300.064C420.228 299.283 420.49 298.406 420.541 297.505V195.635Z" fill="#455A64"/>
<path d="M420.541 195.635C420.495 194.733 420.235 193.854 419.783 193.072C419.331 192.29 418.7 191.626 417.941 191.135L285.031 114.395C284.225 113.986 283.335 113.772 282.431 113.772C281.527 113.772 280.637 113.986 279.831 114.395L276.901 116.085C276.146 116.579 275.518 117.244 275.068 118.025C274.618 118.807 274.359 119.684 274.311 120.585V222.465C274.36 223.366 274.62 224.242 275.07 225.023C275.52 225.805 276.147 226.47 276.901 226.965L409.821 303.695C410.626 304.1 411.515 304.31 412.416 304.31C413.317 304.31 414.206 304.1 415.011 303.695L417.941 302.005C418.696 301.511 419.325 300.846 419.776 300.064C420.228 299.283 420.49 298.406 420.541 297.505V195.635Z" fill="#455A64"/>
<path d="M408.351 199.695L419.781 193.105C420.249 193.879 420.511 194.761 420.541 195.665V297.515C420.49 298.416 420.228 299.293 419.776 300.074C419.325 300.856 418.696 301.521 417.941 302.015L415.011 303.705C414.206 304.11 413.317 304.32 412.416 304.32C411.515 304.32 410.626 304.11 409.821 303.705L408.351 302.855V199.695Z" fill="#263238"/>
<path d="M274.301 120.585V222.465C274.334 223.398 274.614 224.305 275.111 225.095C275.495 225.76 276.012 226.339 276.631 226.795L276.731 226.855L276.901 226.965L409.811 303.695C410.065 303.875 410.361 303.987 410.67 304.022C410.979 304.057 411.293 304.013 411.581 303.895C411.862 303.714 412.087 303.458 412.23 303.156C412.373 302.854 412.429 302.517 412.391 302.185V200.315C412.413 199.95 412.347 199.585 412.198 199.252C412.048 198.918 411.82 198.626 411.533 198.4C411.246 198.174 410.909 198.021 410.549 197.954C410.19 197.887 409.82 197.908 409.471 198.015L353.581 211.305L346.261 213.045C345.397 213.207 344.505 213.129 343.682 212.821C342.859 212.513 342.135 211.985 341.591 211.295L333.121 199.485L276.041 120.015C275.121 118.695 274.301 118.925 274.301 120.585Z" fill="#37474F"/>
<path d="M276.901 226.965L276.731 226.855L276.631 226.795C276.012 226.339 275.495 225.76 275.111 225.095C274.625 224.319 274.35 223.43 274.311 222.515L333.131 199.515L293.741 236.695L276.901 226.965Z" fill="#263238"/>
<path d="M412.41 302.195C412.448 302.527 412.392 302.864 412.249 303.166C412.106 303.468 411.881 303.724 411.6 303.905C411.312 304.023 410.998 304.067 410.689 304.032C410.38 303.997 410.084 303.885 409.83 303.705L364.07 277.285L353.62 211.285L412.43 300.485L412.41 302.195Z" fill="#263238"/>
<path d="M275.12 225.095C275.504 225.76 276.022 226.339 276.64 226.795L276.74 226.855L409.81 303.695C410.064 303.875 410.36 303.987 410.669 304.022C410.979 304.057 411.292 304.013 411.58 303.895L347.94 202.295C346.664 200.256 344.696 198.746 342.396 198.041C340.097 197.335 337.62 197.482 335.42 198.455L275.12 225.095Z" fill="#37474F"/>
<path d="M412.41 197.325L351.28 224.325C349.08 225.294 346.605 225.438 344.308 224.731C342.01 224.024 340.045 222.513 338.77 220.475L274.58 117.695L412.41 197.325Z" fill="#263238"/>
<path d="M412.41 197.325L350.86 220.325C348.732 221.122 346.395 221.17 344.235 220.461C342.076 219.752 340.222 218.328 338.98 216.425L274.58 117.695L412.41 197.325Z" fill="#37474F"/>
<path d="M323.051 276.505V174.625C322.958 172.692 322.354 170.818 321.301 169.195L257.911 80.925C256.754 79.3123 255.144 78.0803 253.284 77.3858C251.425 76.6913 249.402 76.5657 247.471 77.025L187.861 91.195C185.94 91.7063 184.087 92.4448 182.341 93.395L179.411 95.085C178.658 95.5806 178.031 96.2457 177.581 97.0272C177.131 97.8087 176.871 98.6847 176.821 99.585V201.465C176.872 202.365 177.133 203.24 177.583 204.022C178.033 204.803 178.659 205.468 179.411 205.965L312.331 282.695C313.135 283.102 314.024 283.314 314.926 283.314C315.827 283.314 316.716 283.102 317.521 282.695L320.451 281.005C321.206 280.511 321.836 279.847 322.287 279.065C322.739 278.283 323 277.406 323.051 276.505Z" fill="#009FE3"/>
<path opacity="0.3" d="M323.051 276.505V174.625C322.958 172.692 322.354 170.818 321.301 169.195L257.911 80.925C256.754 79.3123 255.144 78.0803 253.284 77.3858C251.425 76.6913 249.402 76.5657 247.471 77.025L187.861 91.195C185.94 91.7063 184.087 92.4448 182.341 93.395L179.411 95.085C178.658 95.5806 178.031 96.2457 177.581 97.0272C177.131 97.8087 176.871 98.6847 176.821 99.585V201.465C176.872 202.365 177.133 203.24 177.583 204.022C178.033 204.803 178.659 205.468 179.411 205.965L312.331 282.695C313.135 283.102 314.024 283.314 314.926 283.314C315.827 283.314 316.716 283.102 317.521 282.695L320.451 281.005C321.206 280.511 321.836 279.847 322.287 279.065C322.739 278.283 323 277.406 323.051 276.505Z" fill="white"/>
<path d="M310.871 125.385V255.385C310.871 257.035 309.701 257.715 308.271 256.885L183.481 184.885C182.724 184.393 182.093 183.729 181.642 182.947C181.19 182.165 180.929 181.287 180.881 180.385V50.385C180.881 48.725 182.041 48.055 183.481 48.885L308.271 120.885C309.028 121.378 309.658 122.042 310.11 122.824C310.561 123.606 310.822 124.483 310.871 125.385Z" fill="#FAFAFA"/>
<path d="M309.431 257.755C309.753 257.758 310.07 257.675 310.351 257.515C310.693 257.287 310.966 256.97 311.143 256.598C311.319 256.227 311.391 255.814 311.351 255.405V125.405C311.303 124.414 311.02 123.449 310.524 122.59C310.028 121.731 309.335 121.002 308.501 120.465L183.711 48.465C183.385 48.1997 182.986 48.0398 182.567 48.0065C182.148 47.9732 181.729 48.0682 181.366 48.2787C181.002 48.4892 180.711 48.8054 180.532 49.1852C180.352 49.565 180.293 49.9905 180.361 50.405V180.405C180.407 181.395 180.69 182.359 181.186 183.217C181.682 184.074 182.376 184.801 183.211 185.335L308.001 257.335C308.432 257.599 308.925 257.744 309.431 257.755ZM182.321 48.975C182.643 48.9935 182.956 49.0933 183.231 49.265L308.021 121.315C308.7 121.766 309.266 122.368 309.673 123.074C310.081 123.78 310.32 124.571 310.371 125.385V255.385C310.43 255.62 310.412 255.867 310.318 256.09C310.225 256.313 310.06 256.5 309.851 256.621C309.641 256.742 309.398 256.791 309.158 256.761C308.918 256.732 308.694 256.624 308.521 256.455L183.731 184.455C183.051 184.005 182.484 183.403 182.077 182.697C181.669 181.99 181.431 181.199 181.381 180.385V50.385C181.352 50.1505 181.384 49.9127 181.474 49.694C181.563 49.4753 181.706 49.2829 181.891 49.135C182.017 49.0438 182.165 48.9885 182.321 48.975Z" fill="#E0E0E0"/>
<path d="M313.561 177.105L322.561 171.905C322.852 172.784 323.014 173.7 323.041 174.625V276.505C322.991 277.406 322.729 278.283 322.277 279.065C321.826 279.847 321.197 280.511 320.441 281.005L317.521 282.695C316.717 283.104 315.828 283.318 314.926 283.318C314.024 283.318 313.135 283.104 312.331 282.695L311.081 281.985L313.561 177.105Z" fill="#009FE3"/>
<g opacity="0.1">
<path opacity="0.1" d="M313.561 177.105L322.561 171.905C322.852 172.784 323.014 173.7 323.041 174.625V276.505C322.991 277.406 322.729 278.283 322.277 279.065C321.826 279.847 321.197 280.511 320.441 281.005L317.521 282.695C316.717 283.104 315.828 283.318 314.926 283.318C314.024 283.318 313.135 283.104 312.331 282.695L311.081 281.985L313.561 177.105Z" fill="black"/>
</g>
<path d="M176.81 99.5851V201.465C176.844 202.398 177.124 203.305 177.62 204.095C178.004 204.76 178.522 205.339 179.14 205.795L179.24 205.855L179.41 205.965L312.32 282.695C312.575 282.875 312.87 282.987 313.18 283.022C313.489 283.057 313.802 283.013 314.09 282.895C314.372 282.714 314.597 282.458 314.74 282.156C314.883 281.854 314.939 281.517 314.9 281.185V179.315C314.923 178.95 314.857 178.585 314.708 178.252C314.558 177.918 314.33 177.626 314.043 177.4C313.756 177.174 313.418 177.021 313.059 176.954C312.7 176.887 312.33 176.908 311.98 177.015L256.12 190.305L248.8 192.045C247.935 192.209 247.041 192.132 246.216 191.824C245.391 191.515 244.666 190.987 244.12 190.295L235.64 178.485L178.56 99.0151C177.6 97.6951 176.81 97.9251 176.81 99.5851Z" fill="#009FE3"/>
<path opacity="0.3" d="M176.81 99.5851V201.465C176.844 202.398 177.124 203.305 177.62 204.095C178.004 204.76 178.522 205.339 179.14 205.795L179.24 205.855L179.41 205.965L312.32 282.695C312.575 282.875 312.87 282.987 313.18 283.022C313.489 283.057 313.802 283.013 314.09 282.895C314.372 282.714 314.597 282.458 314.74 282.156C314.883 281.854 314.939 281.517 314.9 281.185V179.315C314.923 178.95 314.857 178.585 314.708 178.252C314.558 177.918 314.33 177.626 314.043 177.4C313.756 177.174 313.418 177.021 313.059 176.954C312.7 176.887 312.33 176.908 311.98 177.015L256.12 190.305L248.8 192.045C247.935 192.209 247.041 192.132 246.216 191.824C245.391 191.515 244.666 190.987 244.12 190.295L235.64 178.485L178.56 99.0151C177.6 97.6951 176.81 97.9251 176.81 99.5851Z" fill="white"/>
<path d="M179.411 205.965L179.241 205.855L179.141 205.795C178.522 205.339 178.005 204.76 177.621 204.095C177.135 203.315 176.859 202.423 176.821 201.505L235.641 178.505L196.251 215.695L179.411 205.965Z" fill="#009FE3"/>
<path d="M314.919 281.195C314.958 281.527 314.902 281.864 314.759 282.166C314.616 282.468 314.391 282.724 314.109 282.905C313.821 283.023 313.508 283.067 313.199 283.032C312.889 282.997 312.594 282.885 312.339 282.705L266.579 256.285L256.129 190.285L314.939 279.485L314.919 281.195Z" fill="#009FE3"/>
<path d="M177.62 204.095C178.004 204.761 178.521 205.339 179.14 205.795L179.24 205.855L312.32 282.695C312.574 282.875 312.87 282.987 313.179 283.022C313.489 283.057 313.802 283.013 314.09 282.895L250.45 181.295C249.174 179.259 247.207 177.75 244.91 177.045C242.613 176.34 240.139 176.485 237.94 177.455L177.62 204.095Z" fill="#009FE3"/>
<path opacity="0.3" d="M177.62 204.095C178.004 204.761 178.521 205.339 179.14 205.795L179.24 205.855L312.32 282.695C312.574 282.875 312.87 282.987 313.179 283.022C313.489 283.057 313.802 283.013 314.09 282.895L250.45 181.295C249.174 179.259 247.207 177.75 244.91 177.045C242.613 176.34 240.139 176.485 237.94 177.455L177.62 204.095Z" fill="white"/>
<path d="M236.862 144.405C236.04 143.761 235.195 142.811 234.399 141.638C233.603 140.466 232.88 139.105 232.293 137.673C231.19 134.908 230.61 131.761 230.551 128.252C230.487 124.294 231.023 120.981 232.122 118.534C233.25 116.014 234.835 114.271 236.807 113.386C238.925 112.374 241.355 112.11 244.026 112.601C246.644 113.096 248.889 114.164 250.761 115.807C252.645 117.455 254.078 119.566 255.08 122.142C256.083 124.718 256.604 127.648 256.659 130.928C256.754 134.221 256.262 136.89 255.23 138.682C254.321 140.332 252.906 141.051 251.147 140.755C250.542 140.758 249.792 140.281 249.039 139.414C248.771 139.072 248.521 138.644 248.321 138.18C248.121 137.717 247.979 137.238 247.911 136.801C247.348 137.787 246.624 138.484 245.762 138.87C244.889 139.28 243.889 139.382 242.79 139.173C240.893 138.79 239.366 137.715 238.226 136.054C237.085 134.393 236.521 132.236 236.476 129.536C236.436 126.159 237.121 123.592 238.44 122.169C239.876 120.563 241.809 119.978 244.086 120.46C245.037 120.612 246.074 121.065 247.161 121.804C247.969 122.305 248.826 123.162 249.643 124.286L249.818 134.814C249.832 135.664 249.947 136.29 250.155 136.695C250.364 137.1 250.701 137.34 251.176 137.431C252.058 137.502 252.7 136.924 252.991 135.795C253.437 134.323 253.63 132.495 253.562 130.398C253.519 127.771 253.082 125.456 252.251 123.452C251.808 122.42 251.272 121.448 250.688 120.618C250.105 119.788 249.49 119.124 248.897 118.682C247.177 117.329 245.538 116.546 244.081 116.384C240.996 115.71 238.357 116.432 236.363 118.498C234.521 120.466 233.585 124.067 233.683 128.807C233.731 131.68 234.182 134.194 235.039 136.348C235.482 137.441 236.032 138.482 236.639 139.377C237.246 140.272 237.891 140.994 238.517 141.478C240.271 142.886 241.944 143.697 243.424 143.858C244.448 144.047 245.414 144.052 246.31 143.873C247.146 143.731 247.902 143.386 248.567 142.846C248.636 142.788 248.718 142.757 248.809 142.754C248.872 142.767 248.936 142.881 248.995 143.057L249.806 145.835C249.836 145.943 249.858 146.048 249.874 146.149C249.853 146.347 249.779 146.474 249.664 146.509C248.834 147.107 247.909 147.499 246.902 147.68C245.842 147.882 244.704 147.876 243.501 147.662C241.5 147.445 239.236 146.334 236.862 144.405ZM245.743 134.8C246.397 134.35 246.767 133.337 246.794 131.918L246.693 125.819C245.685 124.93 244.721 124.432 243.887 124.37C242.556 124.094 241.432 124.457 240.608 125.428C239.835 126.301 239.437 127.844 239.465 129.86C239.493 131.55 239.807 132.856 240.413 133.757C241.019 134.658 241.94 135.285 243.188 135.481C244.199 135.667 245.077 135.445 245.771 134.829L245.743 134.8Z" fill="#E0E0E0"/>
<path d="M383.28 165.345L393.03 159.695H393.1C396.43 157.815 401.02 158.095 406.1 161.025C416.31 166.915 424.58 181.245 424.58 193.025C424.58 198.915 422.52 203.025 419.19 205.025L410.12 210.215L408.48 207.485C406.62 207.068 404.833 206.374 403.18 205.425C392.98 199.525 384.7 185.195 384.7 173.425C384.706 171.834 384.9 170.25 385.28 168.705L383.28 165.345Z" fill="#F28F8F"/>
<path d="M383.28 165.345L393.03 159.695H393.1C396.43 157.815 401.02 158.095 406.1 161.025C416.31 166.915 424.58 181.245 424.58 193.025C424.58 198.915 422.52 203.025 419.19 205.025L410.12 210.215L408.48 207.485C406.62 207.068 404.833 206.374 403.18 205.425C392.98 199.525 384.7 185.195 384.7 173.425C384.706 171.834 384.9 170.25 385.28 168.705L383.28 165.345Z" fill="#009FE3"/>
<path opacity="0.4" d="M383.28 165.345L393.03 159.695H393.1C396.43 157.815 401.02 158.095 406.1 161.025C416.31 166.915 424.58 181.245 424.58 193.025C424.58 198.915 422.52 203.025 419.19 205.025L410.12 210.215L408.48 207.485C406.62 207.068 404.833 206.374 403.18 205.425C392.98 199.525 384.7 185.195 384.7 173.425C384.706 171.834 384.9 170.25 385.28 168.705L383.28 165.345Z" fill="black"/>
<path d="M396.731 166.395C406.941 172.295 415.211 186.625 415.211 198.395C415.211 210.165 406.941 214.955 396.731 209.065C386.521 203.175 378.251 188.845 378.251 177.065C378.251 165.285 386.521 160.505 396.731 166.395Z" fill="#009FE3"/>
<path d="M392.655 195.357C392.521 195.222 392.448 195.042 392.446 194.872C392.456 194.697 392.492 194.553 392.55 194.445L393.173 193.013C393.213 192.852 393.296 192.757 393.412 192.74C393.508 192.776 393.614 192.847 393.721 192.951C394.309 193.49 394.887 193.906 395.438 194.187C396.172 194.574 396.876 194.823 397.537 194.928C398.567 195.172 399.463 194.991 400.17 194.396C400.7 193.941 400.985 193.023 400.982 191.776C400.946 189.566 399.986 188.292 398.102 187.912L396.269 187.642C395.968 187.578 395.758 187.456 395.629 187.249C395.501 187.042 395.433 186.738 395.426 186.338L395.413 185.508C395.397 185.145 395.458 184.863 395.587 184.699C395.752 184.544 395.967 184.498 396.217 184.563L398.038 184.899C398.768 185.069 399.382 184.875 399.823 184.333C400.192 183.878 400.387 183.116 400.384 182.132C400.349 179.992 399.28 178.727 397.178 178.336C395.885 178.081 394.728 178.252 393.751 178.842C393.66 178.898 393.558 178.931 393.447 178.941C393.406 178.927 393.359 178.887 393.314 178.828C393.269 178.769 393.228 178.693 393.198 178.613L392.552 176.984C392.516 176.903 392.487 176.819 392.467 176.738C392.446 176.657 392.435 176.579 392.433 176.511C392.444 176.296 392.51 176.15 392.621 176.099C393.229 175.618 393.924 175.323 394.693 175.221C395.588 175.082 396.544 175.111 397.552 175.308C398.461 175.418 399.469 175.864 400.529 176.623C400.862 176.843 401.211 177.181 401.551 177.614C401.891 178.047 402.214 178.565 402.497 179.132C402.754 179.725 402.955 180.336 403.085 180.92C403.215 181.505 403.271 182.047 403.248 182.508C403.251 183.593 403.096 184.505 402.792 185.189C402.47 186.006 402.009 186.596 401.43 186.934C401.733 187.095 402.059 187.388 402.377 187.787C402.695 188.186 402.995 188.677 403.248 189.214C403.472 189.791 403.644 190.372 403.755 190.925C403.866 191.478 403.913 191.991 403.893 192.435C403.876 194.598 403.361 196.183 402.424 196.964C401.276 198.028 399.792 198.375 398.074 197.983C395.619 197.554 393.813 196.678 392.655 195.357Z" fill="white"/>
<path d="M229.12 308.565C231.84 305.405 229.42 300.155 226.78 293.345C223.88 285.855 219.4 273.125 219.4 273.125L187.59 266.555C187.59 266.555 153.7 265.905 150.59 272.385C148.07 277.575 170.39 285.385 173.59 285.665L193.18 286.695L195.24 287.695L209 305.105L229.12 308.565Z" fill="#009FE3"/>
<path d="M170.511 277.695C172.981 280.207 175.283 282.88 177.401 285.695C183.131 293.695 192.201 308.225 192.201 308.225C192.201 308.225 190.791 312.825 186.461 312.625C186.461 312.625 156.661 284.795 154.221 282.225C150.531 278.325 147.571 271.895 153.951 271.365C160.331 270.835 168.031 275.015 170.511 277.695Z" fill="#009FE3"/>
<path d="M177.56 285.855C177.56 285.855 172.24 278.075 166.73 274.855C166.73 274.855 172.21 275.935 180.51 286.035L177.56 285.855Z" fill="#009FE3"/>
<path opacity="0.1" d="M177.56 285.855C177.56 285.855 172.24 278.075 166.73 274.855C166.73 274.855 172.21 275.935 180.51 286.035L177.56 285.855Z" fill="black"/>
<path d="M173.941 295.695L176.031 296.095L174.091 303.265C174.091 303.265 172.211 303.085 171.561 303.125C170.614 302.9 169.702 302.547 168.851 302.075L169.351 297.695L171.651 295.295L173.941 295.695Z" fill="#FFA8A7"/>
<path d="M157.439 297.385C156.442 297.787 155.538 298.391 154.784 299.158C154.031 299.926 153.444 300.84 153.059 301.845C152.614 302.896 152.25 303.979 151.969 305.085C151.639 306.245 151.799 308.215 153.269 308.535C153.747 308.591 154.231 308.504 154.659 308.285C157.609 307.145 160.489 305.825 163.509 304.865C166.097 303.906 168.807 303.317 171.559 303.115C170.934 302.152 170.621 301.019 170.664 299.872C170.707 298.724 171.104 297.618 171.799 296.705C172.392 296.157 173.14 295.808 173.939 295.705C173.179 295.365 172.469 294.925 171.739 294.515C170.38 293.564 168.715 293.154 167.069 293.365C165.809 293.635 164.849 294.635 163.779 295.365C161.739 296.695 159.769 296.605 157.439 297.385Z" fill="#263238"/>
<path d="M224.829 301.695C222.199 300.885 217.999 300.165 205.539 299.525C193.079 298.885 176.029 296.085 176.029 296.085C173.129 298.875 174.089 303.255 174.089 303.255C174.089 303.255 196.219 310.255 203.429 311.185C214.909 312.665 218.869 312.555 224.049 311.445C229.869 310.195 233.539 304.365 224.829 301.695Z" fill="#009FE3"/>
<path d="M179.29 242.345L169.93 264.715L176.63 268.835L189.51 247.025L179.29 242.345Z" fill="#F28F8F"/>
<path d="M198.65 221.265C193.53 221.325 187.9 223.185 185.96 227.195L177.96 243.695C177.96 243.695 182.48 250.315 189.66 249.845L198.65 221.265Z" fill="#E0E0E0"/>
<path d="M232.69 256.035C232.63 255.165 231.38 250.915 230.04 246.335L220.32 249.695L222.93 257.925L231.12 265.695C232.894 262.807 233.458 259.336 232.69 256.035Z" fill="#FFA8A7"/>
<path d="M209.121 221.575C215.221 223.045 223.531 224.955 225.941 231.575C228.351 238.195 231.801 249.885 231.801 249.885C230.461 252.205 223.111 254.125 220.561 252.785L219.361 248.785V273.105C214.591 278.295 191.061 276.965 187.551 266.535V233.405C187.551 228.105 190.491 221.735 198.621 221.265L209.121 221.575Z" fill="#FAFAFA"/>
<path d="M219.391 248.805L216.331 239.175L219.391 253.115V248.805Z" fill="#E0E0E0"/>
<path d="M211.441 194.465C211.984 194.395 212.536 194.448 213.055 194.621C213.575 194.794 214.048 195.083 214.441 195.465C215.731 196.785 215.441 199.225 214.441 204.825L210.441 205.275L211.441 194.465Z" fill="#263238"/>
<path d="M188.231 192.845C187.375 192.849 186.527 192.675 185.741 192.335C184.521 191.635 184.201 193.025 184.871 194.225C185.314 195.09 185.971 195.828 186.78 196.367C187.588 196.906 188.522 197.229 189.491 197.305C189.491 197.135 190.631 194.195 190.631 194.195L188.231 192.845Z" fill="#263238"/>
<path d="M209.571 205.335C210.161 205.685 211.011 204.555 211.741 203.785C212.028 203.458 212.393 203.208 212.802 203.061C213.211 202.914 213.651 202.874 214.081 202.944C214.51 203.014 214.914 203.192 215.256 203.462C215.597 203.731 215.864 204.083 216.031 204.485C217.241 207.035 214.491 210.425 212.881 211.545C212.429 211.935 211.866 212.171 211.272 212.222C210.677 212.272 210.082 212.133 209.571 211.825L209.151 221.575C208.438 223.138 207.349 224.499 205.98 225.537C204.612 226.576 203.008 227.258 201.311 227.525C195.591 228.295 196.771 223.575 198.651 221.265V217.695C197.219 218.001 195.747 218.075 194.291 217.915C193.551 217.715 191.771 215.565 190.621 213.155C189.331 210.455 187.181 205.655 189.091 197.525C191.151 188.805 200.521 188.525 206.091 192.055C211.661 195.585 209.571 205.335 209.571 205.335Z" fill="#FFA8A7"/>
<path d="M209.571 206.325C209.871 206.325 211.001 204.455 211.741 203.785C212.741 202.855 211.441 194.465 211.441 194.465C211.441 194.465 212.441 191.275 210.441 189.165C208.441 187.055 204.521 187.405 201.661 187.305C198.157 187.324 194.686 186.627 191.461 185.255C187.401 183.495 187.101 183.255 186.601 185.065C186.101 186.875 185.901 190.925 188.321 193.655L189.641 195.805C189.641 195.805 190.871 196.805 194.641 197.305C198.411 197.805 204.871 195.735 205.641 195.625C206.741 195.475 206.971 196.535 207.561 199.435C208.121 201.985 208.571 206.305 209.571 206.325Z" fill="#263238"/>
<path d="M211.43 195.115L215.01 193.195C214.892 192.957 214.728 192.745 214.527 192.571C214.327 192.397 214.094 192.265 213.841 192.182C213.589 192.099 213.323 192.067 213.058 192.088C212.793 192.11 212.536 192.183 212.3 192.305C211.823 192.573 211.467 193.014 211.305 193.537C211.144 194.059 211.188 194.624 211.43 195.115Z" fill="#263238"/>
<path d="M198.661 217.695C198.661 217.695 203.961 216.625 205.811 215.695C206.9 215.124 207.792 214.239 208.371 213.155C208.09 214.243 207.593 215.263 206.911 216.155C205.561 217.885 198.661 219.155 198.661 219.155V217.695Z" fill="#F28F8F"/>
<path d="M198.49 205.135C198.498 205.343 198.567 205.544 198.688 205.713C198.809 205.882 198.977 206.011 199.171 206.085C199.366 206.16 199.577 206.175 199.78 206.13C199.983 206.084 200.168 205.98 200.313 205.831C200.457 205.681 200.554 205.492 200.592 205.288C200.63 205.083 200.606 204.872 200.525 204.681C200.444 204.489 200.308 204.326 200.135 204.211C199.961 204.096 199.758 204.035 199.55 204.035C199.408 204.038 199.268 204.068 199.138 204.125C199.008 204.182 198.891 204.263 198.792 204.365C198.694 204.468 198.616 204.588 198.565 204.72C198.513 204.852 198.487 204.993 198.49 205.135Z" fill="#263238"/>
<path d="M199.611 201.135L201.891 202.385C202.049 202.072 202.082 201.711 201.983 201.375C201.885 201.039 201.663 200.753 201.361 200.575C201.21 200.493 201.044 200.442 200.873 200.426C200.702 200.41 200.53 200.428 200.366 200.481C200.203 200.533 200.051 200.618 199.922 200.73C199.792 200.843 199.686 200.981 199.611 201.135Z" fill="#263238"/>
<path d="M199.121 212.235L196.691 213.155C196.744 213.317 196.83 213.467 196.943 213.595C197.056 213.724 197.193 213.828 197.347 213.903C197.501 213.978 197.668 214.021 197.838 214.03C198.009 214.038 198.18 214.013 198.341 213.955C198.668 213.825 198.932 213.573 199.078 213.252C199.223 212.932 199.239 212.567 199.121 212.235Z" fill="#F28F8F"/>
<path d="M189.02 202.015L191.09 200.415C190.992 200.276 190.867 200.158 190.722 200.069C190.577 199.98 190.416 199.921 190.247 199.896C190.079 199.87 189.908 199.88 189.743 199.922C189.579 199.965 189.424 200.041 189.29 200.145C189.013 200.362 188.831 200.678 188.781 201.026C188.731 201.374 188.816 201.728 189.02 202.015Z" fill="#263238"/>
<path d="M189.66 204.835C189.668 205.043 189.737 205.244 189.858 205.413C189.979 205.582 190.147 205.711 190.341 205.785C190.536 205.859 190.747 205.875 190.95 205.83C191.153 205.784 191.338 205.68 191.483 205.531C191.627 205.381 191.724 205.192 191.762 204.988C191.799 204.783 191.776 204.572 191.695 204.381C191.614 204.189 191.478 204.026 191.305 203.911C191.131 203.796 190.928 203.735 190.72 203.735C190.578 203.738 190.438 203.768 190.308 203.825C190.178 203.882 190.061 203.963 189.962 204.065C189.864 204.168 189.786 204.288 189.735 204.42C189.683 204.552 189.657 204.693 189.66 204.835Z" fill="#263238"/>
<path d="M194.66 204.705L195.66 211.025L192.16 210.615L194.66 204.705Z" fill="#F28F8F"/>
<path d="M158.18 276.475L179.73 264.035C179.919 263.927 180.132 263.87 180.35 263.87C180.567 263.87 180.781 263.927 180.97 264.035L218.76 285.855L196.6 298.695L158.18 276.475Z" fill="#37474F"/>
<path d="M196.8 296.825L208.42 290.125L174.44 270.505L162.76 277.175L196.8 296.825Z" fill="#263238"/>
<path d="M202.51 278.185L202.29 278.305L196.6 281.595L186.47 275.745L186.26 275.625L192.17 272.215L202.51 278.185Z" fill="#263238"/>
<path d="M202.291 278.305L196.601 281.595L186.471 275.745L192.171 272.455L202.291 278.305Z" fill="#263238"/>
<path d="M218.76 285.855V286.365C218.763 286.726 218.672 287.081 218.497 287.397C218.321 287.712 218.068 287.977 217.76 288.165L197.68 299.755C197.364 299.939 197.005 300.035 196.64 300.035C196.274 300.035 195.916 299.939 195.6 299.755L159.26 278.755C158.952 278.566 158.699 278.301 158.524 277.986C158.349 277.671 158.258 277.316 158.26 276.955V276.445L196.6 298.695L218.76 285.855Z" fill="#263238"/>
<path d="M196.6 298.695V300.075C196.247 300.071 195.902 299.975 195.6 299.795L159.26 278.795C158.952 278.606 158.699 278.341 158.524 278.026C158.349 277.711 158.258 277.356 158.26 276.995V276.485L196.6 298.695Z" fill="#263238"/>
<path d="M196.01 298.965C195.666 299.096 195.297 299.149 194.931 299.12C194.564 299.09 194.208 298.98 193.89 298.795L157.71 277.905C157.396 277.725 157.126 277.477 156.92 277.18C156.714 276.882 156.578 276.542 156.52 276.185L152.52 252.575C152.51 252.439 152.51 252.302 152.52 252.165C152.522 251.508 152.784 250.879 153.25 250.415L190.85 272.125C191.081 272.259 191.28 272.442 191.432 272.661C191.584 272.881 191.686 273.132 191.73 273.395L196.01 298.965Z" fill="#263238"/>
<path d="M196.6 298.695L196.35 298.835C196.239 298.898 196.126 298.954 196.01 299.005L191.73 273.435C191.686 273.171 191.584 272.921 191.432 272.701C191.28 272.482 191.081 272.299 190.85 272.165L153.25 250.455C153.403 250.312 153.571 250.185 153.75 250.075L191.42 271.785C191.652 271.919 191.852 272.102 192.006 272.321C192.16 272.541 192.263 272.791 192.31 273.055L196.6 298.695Z" fill="#455A64"/>
<path d="M175.64 277.155C175.071 275.181 173.764 273.502 171.99 272.465C170.24 271.465 169.04 271.915 169.3 273.465C169.87 275.439 171.177 277.118 172.95 278.155C174.7 279.205 175.9 278.695 175.64 277.155Z" fill="#37474F"/>
<path d="M222.931 257.905C222.931 257.905 216.441 282.905 213.701 284.695C210.961 286.485 205.861 287.795 203.421 288.695C200.981 289.595 199.871 290.825 200.291 291.165C200.711 291.505 204.231 291.875 205.451 292.305C206.671 292.735 205.091 294.705 202.391 296.795C199.691 298.885 197.391 298.695 197.691 300.085C197.991 301.475 204.011 302.865 209.091 299.885C214.171 296.905 215.711 292.885 218.741 289.475C221.771 286.065 228.691 271.895 231.121 265.695C231.121 265.695 230.891 254.175 227.121 254.905C223.351 255.635 222.931 257.905 222.931 257.905Z" fill="#FFA8A7"/>
<path d="M192.051 308.565C191.591 309.675 190.001 312.735 186.461 312.565L177.761 304.425L192.051 308.565Z" fill="#009FE3"/>
<path opacity="0.1" d="M192.051 308.565C191.591 309.675 190.001 312.735 186.461 312.565L177.761 304.425L192.051 308.565Z" fill="black"/>
<path d="M186.801 313.535C186.797 313.572 186.797 313.608 186.801 313.645C186.797 313.608 186.797 313.572 186.801 313.535Z" fill="#263238"/>
<path d="M189.42 322.885C189.504 320.267 189.072 317.657 188.15 315.205C188.569 315.497 189.052 315.685 189.558 315.751C190.065 315.817 190.58 315.76 191.06 315.585C193.97 314.715 194.7 310.655 194.24 309.775C194.66 310.145 195.1 310.495 195.53 310.855C196.909 311.781 197.89 313.19 198.28 314.805C198.48 316.075 197.89 317.325 197.6 318.585C197.04 320.985 197.6 323.485 197.69 325.945C197.669 327.019 197.429 328.077 196.984 329.054C196.538 330.031 195.897 330.906 195.1 331.625C194.28 332.425 193.397 333.157 192.46 333.815C192.119 334.199 191.667 334.467 191.167 334.583C190.667 334.699 190.143 334.657 189.668 334.462C189.193 334.268 188.79 333.931 188.515 333.498C188.239 333.065 188.105 332.558 188.13 332.045C188.51 328.925 189.24 326.135 189.42 322.885Z" fill="#263238"/>
<path d="M186.12 312.045C186.39 312.555 186.63 313.045 186.84 313.535C186.59 313.055 186.35 312.555 186.12 312.045Z" fill="#37474F"/>
<path d="M194.26 309.775L194.07 309.605L194.26 309.775Z" fill="#37474F"/>
</svg>
