<svg width="432" height="416" viewBox="0 0 432 416" fill="none" xmlns="http://www.w3.org/2000/svg">
<g clip-path="url(#clip0)">
<path d="M432 132.053C432 132.053 371.325 115.377 355.766 87.9212C340.207 60.4651 321.018 33.645 295.606 48.5595C270.195 63.4741 235.447 -10.3075 195 1.26364C154.553 12.8348 126.026 46.9286 93.3546 66.2302C60.6829 85.5319 72.6118 123.14 49.2773 129.696C25.9427 136.253 0.00823975 132.086 0.00823975 132.086C0.00823975 132.086 62.7597 135.07 70.5351 170.257C78.3106 205.443 112.021 214.96 130.678 182.154C149.336 149.349 168.534 146.372 178.386 174.399C188.238 202.426 216.241 282.951 239.061 237.621C261.88 192.29 263.949 142.793 290.423 162.477C316.897 182.162 328.801 274.006 352.136 229.874C375.471 185.742 399.328 120.727 432 132.053Z" fill="#FAD4E5"/>
<path d="M247.998 186.321C247.998 186.321 249.191 185.718 245.332 181.861C241.473 178.004 235.521 168.178 235.521 168.178L232.062 177.352L242.765 187.479L247.998 186.321Z" fill="#723146"/>
<path d="M146.574 284.917L189.834 252.299L221.394 267.246L149.444 312.267L93.3479 270.059C95.0404 267.54 99.0711 261.448 101.172 259.32L146.574 284.917Z" fill="#5163AC"/>
<path d="M92.203 260.054L99.1445 263.226C97.0125 265.332 95.0802 267.631 93.3722 270.092L88.4093 266.357L92.203 260.054Z" fill="#F17575"/>
<path d="M13.9811 106.971H131.553C132.56 106.971 133.376 107.785 133.376 108.789V187.675C133.376 188.68 132.56 189.494 131.553 189.494H13.9811C12.9741 189.494 12.1578 188.68 12.1578 187.675V108.789C12.1578 107.785 12.9741 106.971 13.9811 106.971Z" fill="#BFD3FF"/>
<path d="M59.8163 121.306H120.769V138.87H112.004L116.28 148.232L105.602 138.87H59.8163V121.306Z" fill="white"/>
<path d="M75.0562 153.051H23.5876V170.615H30.987L27.3732 179.977L36.3996 170.615H75.0562V153.051Z" fill="white"/>
<path d="M186.276 322.501L191.01 278.019C191.01 278.019 189.374 275.32 185.491 268.959C181.607 262.599 196.717 252.308 196.717 252.308L221.417 262.256L208.76 341.575L130.269 349.052C129.918 345.595 129.158 338.451 128.634 334.994L186.276 322.501Z" fill="#6F7CBA"/>
<path d="M115.682 337.815L128.575 335.018C129.123 338.475 129.45 341.933 129.802 345.398L115.682 347.845V337.815Z" fill="#F17575"/>
<path d="M180.864 416.008C140.68 416.008 108.104 414.573 108.104 412.803C108.104 411.033 140.68 409.599 180.864 409.599C221.047 409.599 253.623 411.033 253.623 412.803C253.623 414.573 221.047 416.008 180.864 416.008Z" fill="#255994"/>
<path d="M92.6349 247.276L82.4802 251.297C78.3023 252.927 71.4343 255.113 69.3494 255.936C67.2645 256.76 61.5821 264.499 62.6941 265.852C63.806 267.206 70.5186 264.091 74.8029 264.417C79.0871 264.743 87.5004 268.494 88.0809 267.206C88.6614 265.917 94.8834 263.626 95.6192 261.987C96.3551 260.348 94.0821 247.88 92.6349 247.276Z" fill="#17A5C2"/>
<path d="M71.8749 258.26L93.8032 249.576C93.4026 248.312 92.9856 247.431 92.634 247.276L82.4793 251.297C78.3013 252.927 71.4334 255.113 69.3484 255.936C67.2635 256.76 61.5811 264.499 62.6931 265.852C63.0528 266.284 63.9849 266.26 65.2277 266.032C66.2252 264.164 68.9805 259.41 71.8749 258.26Z" fill="#C5D5EC"/>
<path d="M87.0506 257.028C87.0506 257.028 76.8632 263.552 75.9148 264.547C74.9664 265.542 82.6764 267.287 82.6764 267.287C82.6764 267.287 90.2311 261.636 90.2474 260.274C90.2638 258.912 88.4651 257.689 87.0506 257.028Z" fill="#C5D5EC"/>
<path d="M90.249 260.274C90.388 258.594 88.0414 257.314 87.0358 256.743C84.8936 258.08 78.4345 261.995 75.9 264.547C77.0446 263.732 81.9748 260.861 87.0766 257.322C88.3194 257.86 90.1018 258.896 90.249 260.274Z" fill="#135461"/>
<path d="M196.207 177.352C196.207 177.352 186.583 180.94 186.583 199.01C186.583 210.85 192.307 240.328 192.307 240.328L179.143 253.449C179.143 253.449 212.665 270.573 231.233 273.623C231.233 273.623 225.158 257.428 225.158 248.874C225.158 240.32 228.167 199.679 218.617 189.812C211.365 182.383 196.207 177.352 196.207 177.352Z" fill="#F17531"/>
<path d="M200.737 161.793C200.737 161.793 196.519 167.346 196.216 177.352C195.914 187.357 194.082 187.259 196.592 188.491C200.051 190.187 209.927 189.967 211.898 186.664C211.898 186.664 207.188 174.93 209.584 169.923L200.737 161.793Z" fill="#F17575"/>
<path d="M200.739 161.793C199.338 163.863 198.283 166.146 197.616 168.553C201.132 172.973 205.629 174.995 208.94 174.905C208.735 173.218 208.954 171.505 209.578 169.923L200.739 161.793Z" fill="#EF5F5C"/>
<path d="M201.752 140.999C205.603 141.195 210.484 143.136 212.43 148.616C212.773 149.594 212.021 152.823 212.348 153.728C213.82 157.879 216.011 158.703 216.011 158.703L213.379 159.803C213.648 161.774 213.787 163.76 213.795 165.748C213.795 167.893 213.648 170.013 212.471 171.236C209.65 174.147 199.626 172.337 195.113 163.506C190.6 154.674 193.911 140.608 201.752 140.999Z" fill="#F17575"/>
<path d="M198.966 136.783L198.721 136.098C198.095 136.48 197.554 136.986 197.132 137.585C196.71 138.184 196.416 138.863 196.267 139.58C196.014 141.211 196.717 142.271 197.698 143.575L197.846 143.445C197.427 142.884 197.091 142.266 196.848 141.61C196.63 140.986 196.587 140.314 196.724 139.668C196.861 139.021 197.173 138.424 197.625 137.941C197.998 137.509 198.433 137.135 198.917 136.832C198.941 136.791 199.031 136.758 198.966 136.783Z" fill="#053043"/>
<path d="M209.677 154.148C209.239 154.089 208.942 153.61 209.015 153.079C209.087 152.548 209.501 152.166 209.94 152.225C210.378 152.285 210.675 152.763 210.603 153.295C210.53 153.826 210.116 154.208 209.677 154.148Z" fill="#053043"/>
<path d="M206.293 151.453C207.188 150.728 208.26 150.253 209.4 150.075C210.077 149.996 210.762 150.031 211.427 150.181V149.259C211.427 149.259 207.707 148.876 206.293 151.453Z" fill="#053043"/>
<path d="M200.175 136.726L211.483 138.087L210.919 140.534L213.028 138.365L216.912 139.996C216.912 139.996 211.851 143.494 210.837 145.606C210.837 145.606 203.675 145.369 202.718 147.367C201.761 149.365 204.353 155.864 202.195 156.623C200.036 157.381 198.924 158.107 198.409 159.159C197.894 160.21 197.951 167.549 197.951 167.549L197.616 168.577C197.616 168.577 190.609 157.976 189.955 152.969C189.301 147.962 191.59 138.642 191.59 138.642L195.556 137.247L196.79 139.188L200.175 136.726Z" fill="#053043"/>
<path d="M200.174 156.044C200.174 156.044 197.566 151.543 196.486 153.785C195.407 156.028 197.639 160.097 198.604 159.763C199.569 159.428 201.253 158.963 200.174 156.044Z" fill="#F17575"/>
<path d="M199.849 156.55C199.849 156.55 198.075 154.234 197.544 155.343C197.012 156.452 197.543 158.947 198.68 158.547C199.817 158.148 200.176 157.446 199.849 156.55Z" fill="#EF5F5C"/>
<path d="M206.7 159.778C204.984 159.778 203.593 159.183 203.593 158.449C203.593 157.715 204.984 157.12 206.7 157.12C208.416 157.12 209.807 157.715 209.807 158.449C209.807 159.183 208.416 159.778 206.7 159.778Z" fill="#EF5F5C"/>
<path d="M211.891 165.756C211.98 165.73 212.058 165.677 212.114 165.603C212.17 165.53 212.2 165.44 212.2 165.348C212.2 165.256 212.17 165.166 212.114 165.093C212.058 165.019 211.98 164.965 211.891 164.94C211.891 164.94 209.161 164.655 208.367 163.073C208.348 163.015 208.317 162.962 208.276 162.917C208.234 162.872 208.184 162.837 208.127 162.813C208.071 162.79 208.01 162.778 207.949 162.781C207.888 162.783 207.828 162.798 207.773 162.825C207.718 162.852 207.67 162.891 207.632 162.939C207.594 162.986 207.566 163.041 207.551 163.1C207.536 163.16 207.534 163.221 207.545 163.281C207.556 163.341 207.58 163.398 207.615 163.448C208.621 165.454 211.703 165.764 211.818 165.78L211.891 165.756Z" fill="#053043"/>
<path d="M167.896 260.054H167.969C168.04 260.033 168.099 259.985 168.134 259.921C168.169 259.857 168.178 259.781 168.157 259.711C165.198 249.469 165.533 240.956 169.163 234.489C171.691 229.988 175.783 226.566 180.667 224.867C180.706 224.862 180.743 224.848 180.777 224.827C180.81 224.805 180.838 224.777 180.86 224.744C180.882 224.711 180.896 224.674 180.902 224.635C180.908 224.596 180.906 224.557 180.895 224.519C180.885 224.481 180.866 224.445 180.841 224.415C180.816 224.385 180.784 224.36 180.749 224.343C180.713 224.326 180.674 224.317 180.635 224.316C180.595 224.314 180.556 224.322 180.52 224.337C175.498 226.076 171.289 229.589 168.689 234.212C164.985 240.834 164.601 249.469 167.634 259.858C167.651 259.914 167.686 259.963 167.733 259.998C167.78 260.033 167.837 260.053 167.896 260.054Z" fill="#2F4A9D"/>
<path d="M105.129 332.025L102.521 342.626C101.45 346.98 99.2503 353.806 98.6943 355.983C98.1383 358.16 101.147 367.261 102.93 367.138C104.712 367.016 106.036 359.799 108.784 356.472C111.531 353.145 119.486 348.53 118.767 347.307C118.047 346.083 119.789 339.699 118.881 338.157C117.974 336.616 106.462 331.202 105.129 332.025Z" fill="#17A5C2"/>
<path d="M102.064 355.265L106.356 342.218C107.269 339.45 107.724 336.553 107.705 333.639V332.408C106.438 332 105.482 331.821 105.155 332.025L102.546 342.626C101.475 346.98 99.2759 353.806 98.7199 355.983C98.164 358.16 101.173 367.26 102.955 367.138C103.519 367.138 104.034 366.323 104.59 365.181C103.593 363.273 101.312 358.282 102.064 355.265Z" fill="#C5D5EC"/>
<path d="M109.851 342.219C109.851 342.219 109.287 354.287 109.524 355.633C109.761 356.978 115.681 351.727 115.681 351.727C115.681 351.727 115.452 342.317 114.356 341.509C113.261 340.702 111.208 341.46 109.851 342.219Z" fill="#C5D5EC"/>
<path d="M114.328 341.509C113.036 340.416 110.624 341.582 109.578 342.063C109.439 344.575 108.883 352.11 109.496 355.624C109.496 354.222 110.011 348.546 110.077 342.357C111.262 341.672 113.159 340.832 114.328 341.509Z" fill="#135461"/>
<path d="M99.1177 343.996C101.072 338.288 103.852 331.047 105.127 332.025C107.416 333.795 103.819 340.098 103.083 341.982C101.458 346.118 100.36 350.441 99.8127 354.849C99.2976 359.033 101.93 361.055 103.083 364.79C103.312 365.507 103.427 366.421 102.805 366.885C102.184 367.35 101.096 366.722 100.54 366.021C99.334 364.369 98.3473 362.568 97.6051 360.664C96.7875 358.829 95.9699 356.929 95.9699 354.955C96.0564 353.398 96.3932 351.864 96.9674 350.413C97.1964 349.851 98.0303 347.16 99.1177 343.996Z" fill="#135461"/>
<path d="M123.885 11.71H246.812C247.869 11.71 248.726 12.5643 248.726 13.6181V96.0924C248.726 97.1462 247.869 98.0005 246.812 98.0005H123.885C122.828 98.0005 121.972 97.1462 121.972 96.0924V13.6181C121.972 12.5643 122.828 11.71 123.885 11.71Z" fill="#BFD3FF"/>
<path d="M185.352 22.1064H231.244V85.3035H185.352V22.1064Z" fill="#EAEEF8"/>
<path d="M172.05 83.7217C167.962 83.7217 164.691 84.953 164.691 86.4616C164.691 87.2199 165.509 87.9049 166.842 88.4023L166.163 91.0363L168.657 88.8998C169.767 89.1093 170.895 89.213 172.025 89.2096C176.113 89.2096 179.384 87.9783 179.384 86.4697C179.384 84.9612 176.105 83.7217 172.05 83.7217Z" fill="#EAEEF8"/>
<path d="M129.027 22.1064H179.384V24.9279H129.027V22.1064Z" fill="#EAEEF8"/>
<path d="M129.027 28.2227H179.384V31.0441H129.027V28.2227Z" fill="#EAEEF8"/>
<path d="M129.027 34.3467H179.384V37.1681H129.027V34.3467Z" fill="#EAEEF8"/>
<path d="M129.027 40.4707H179.384V43.2921H129.027V40.4707Z" fill="#EAEEF8"/>
<path d="M208.696 63.956C202.338 63.956 197.184 57.6436 197.184 49.8569C197.184 42.0702 202.338 35.7578 208.696 35.7578C215.053 35.7578 220.208 42.0702 220.208 49.8569C220.208 57.6436 215.053 63.956 208.696 63.956Z" fill="#D9DFF1"/>
<path d="M220.495 49.8566C220.494 49.0847 220.442 48.3138 220.34 47.5488C221.042 47.7767 221.65 48.2261 222.073 48.8292C222.497 49.4323 222.712 50.1564 222.686 50.8921C222.722 51.7017 222.46 52.4964 221.949 53.127C221.439 53.7576 220.716 54.1807 219.915 54.317C220.302 52.8618 220.497 51.3623 220.495 49.8566Z" fill="#D9DFF1"/>
<path d="M197.069 47.5C196.964 48.2812 196.912 49.0685 196.914 49.8567C196.911 51.3651 197.106 52.8674 197.494 54.3253C196.65 54.2464 195.869 53.8434 195.317 53.2014C194.765 52.5594 194.484 51.7285 194.534 50.8841C194.506 50.1163 194.743 49.362 195.204 48.7465C195.665 48.1309 196.323 47.6911 197.069 47.5Z" fill="#D9DFF1"/>
<path d="M208.703 64.2332C209.449 64.2338 210.192 64.1489 210.919 63.9804V77.1988H205.081V63.54C206.234 63.9974 207.463 64.2326 208.703 64.2332Z" fill="#D9DFF1"/>
<path d="M208.703 35.4638C203.077 35.4638 198.36 40.2913 197.191 46.7251C195.375 42.5582 201.794 31.6312 201.794 31.6312C201.794 31.6312 202.235 34.2814 204.541 33.572C206.847 32.8625 206.135 28.2145 206.135 28.2145L208.302 31.5415L209.855 27.5703L210.918 31.6475L213.216 28.2308C213.216 28.2308 212.063 30.6772 213.216 32.5282C214.369 34.3793 218.35 35.4394 219.144 38.4402C219.542 39.8086 219.44 41.2736 218.857 42.5745C216.813 38.326 213.02 35.4638 208.703 35.4638Z" fill="#D9DFF1"/>
<path d="M217.509 74.0186H197.944C196.149 74.0186 194.427 74.7299 193.157 75.9961C191.888 77.2624 191.174 78.9797 191.174 80.7705V84.5704H224.279V80.7705C224.279 78.9797 223.566 77.2624 222.296 75.9961C221.027 74.7299 219.305 74.0186 217.509 74.0186Z" fill="#D9DFF1"/>
<path d="M285.018 110.281C285.018 110.281 284.928 118.273 283.546 118.827C282.165 119.382 282.426 109.58 282.426 109.58L285.018 110.281Z" fill="#EF5F5C"/>
<path d="M241.3 162.78C248.569 148.624 270.505 126.9 270.505 126.9C270.505 126.9 271.552 118.909 272.46 116.299C273.367 113.69 276.548 107.623 277.496 105.038C278.444 102.453 283.718 96.1742 284.732 96.5248C285.746 96.8755 280.84 102.812 280.529 105.103C280.219 107.395 278.428 111.627 278.297 111.904C278.42 111.611 280.129 107.664 281.151 107.175C281.968 106.783 283.604 107.232 283.792 108.226C284.805 108.226 285.648 109.417 285.648 110.534C285.648 110.534 287.896 110.673 287.896 112.002C287.896 113.331 285.713 119.569 284.871 119.569C284.029 119.569 285.157 114.244 285.157 114.244L280.685 121.861C280.399 122.415 280.072 122.994 279.704 123.573C278.099 126.042 276.335 128.403 274.422 130.643C274.422 130.643 261.16 157.227 256.99 163.408C252.821 169.589 250.867 171.22 248.463 178.029C247.645 180.475 244.048 185.319 239.469 190.578C235.79 185.604 233.19 179.635 230.753 174.482C235.267 170.828 239.167 166.939 241.3 162.78Z" fill="#F17575"/>
<path d="M208.354 189.966C210.365 184.258 224.706 176.968 235.531 168.186C236.349 177.971 242.227 184.282 247.983 186.321C239.726 195.854 224.453 204.62 219.801 204.457C211.575 204.171 205.525 198.031 208.354 189.966Z" fill="#FDCA58"/>
<path d="M129.117 78.9268C129.383 78.9185 129.642 78.8336 129.861 78.6821C131.005 77.9482 132.183 77.2143 133.368 76.5049C133.541 76.4189 133.694 76.2982 133.817 76.1504C133.941 76.0026 134.032 75.831 134.086 75.6462C134.14 75.4615 134.154 75.2676 134.129 75.0769C134.104 74.8861 134.04 74.7026 133.94 74.5379C133.841 74.3731 133.708 74.2307 133.551 74.1196C133.393 74.0084 133.215 73.931 133.026 73.8921C132.837 73.8532 132.642 73.8537 132.453 73.8936C132.265 73.9334 132.086 74.0118 131.929 74.1238C130.719 74.8495 129.476 75.5998 128.348 76.35C128.092 76.5104 127.895 76.7501 127.787 77.0324C127.68 77.3147 127.668 77.6243 127.753 77.9141C127.838 78.2039 128.016 78.458 128.259 78.6378C128.502 78.8177 128.798 78.9134 129.1 78.9105L129.117 78.9268Z" fill="#A0D5F2"/>
<path d="M314.46 281.085C314.691 281.086 314.919 281.03 315.123 280.921C318.115 279.291 320.56 277.97 322.383 276.942C322.544 276.852 322.686 276.731 322.8 276.587C322.914 276.442 322.999 276.277 323.049 276.099C323.099 275.922 323.114 275.737 323.092 275.554C323.07 275.371 323.013 275.195 322.922 275.034C322.832 274.873 322.711 274.732 322.566 274.618C322.421 274.504 322.255 274.42 322.078 274.37C321.9 274.32 321.714 274.305 321.531 274.327C321.348 274.348 321.17 274.406 321.009 274.496C319.202 275.515 316.774 276.844 313.798 278.451C313.526 278.599 313.312 278.833 313.188 279.116C313.064 279.399 313.038 279.715 313.114 280.015C313.189 280.315 313.363 280.58 313.606 280.771C313.85 280.962 314.151 281.066 314.46 281.068V281.085ZM331.63 270.533C331.925 270.529 332.212 270.432 332.448 270.255C334.688 268.624 336.887 266.888 338.989 265.159C339.245 264.917 339.4 264.586 339.423 264.235C339.445 263.883 339.333 263.536 339.109 263.263C338.886 262.991 338.567 262.812 338.217 262.765C337.867 262.717 337.511 262.803 337.222 263.006C335.154 264.702 332.987 266.39 330.788 268.013C330.554 268.187 330.38 268.43 330.292 268.708C330.203 268.985 330.204 269.284 330.295 269.561C330.385 269.838 330.56 270.08 330.795 270.253C331.03 270.425 331.313 270.521 331.605 270.525L331.63 270.533ZM347.009 257.608C347.37 257.607 347.715 257.467 347.974 257.216C349.977 255.292 351.939 253.31 353.795 251.304C353.92 251.171 354.017 251.014 354.081 250.842C354.144 250.671 354.174 250.489 354.167 250.307C354.16 250.124 354.117 249.945 354.041 249.779C353.964 249.613 353.856 249.463 353.722 249.339C353.588 249.215 353.43 249.118 353.259 249.055C353.087 248.991 352.904 248.962 352.721 248.969C352.538 248.976 352.359 249.018 352.192 249.094C352.026 249.171 351.876 249.279 351.751 249.413C349.928 251.378 348.007 253.327 346.028 255.21C345.831 255.404 345.696 255.651 345.639 255.92C345.583 256.19 345.608 256.471 345.711 256.726C345.814 256.982 345.991 257.201 346.219 257.357C346.447 257.512 346.717 257.597 346.993 257.6L347.009 257.608ZM360.426 242.71C360.639 242.71 360.85 242.662 361.041 242.569C361.232 242.475 361.4 242.339 361.53 242.171C363.231 239.97 364.874 237.711 366.436 235.444C366.607 235.138 366.657 234.78 366.575 234.439C366.493 234.098 366.286 233.801 365.995 233.606C365.703 233.411 365.349 233.332 365.002 233.385C364.655 233.439 364.341 233.621 364.122 233.895C362.626 236.113 361.023 238.331 359.355 240.475C359.197 240.681 359.099 240.928 359.074 241.186C359.048 241.444 359.095 241.705 359.21 241.938C359.325 242.171 359.502 242.367 359.723 242.505C359.944 242.643 360.199 242.717 360.459 242.718L360.426 242.71ZM371.382 225.895C371.634 225.895 371.881 225.827 372.097 225.698C372.313 225.568 372.49 225.383 372.609 225.161C373.917 222.715 375.151 220.211 376.271 217.692C376.401 217.358 376.396 216.988 376.26 216.657C376.123 216.327 375.864 216.061 375.536 215.916C375.209 215.77 374.838 215.756 374.5 215.875C374.162 215.995 373.883 216.239 373.721 216.558C372.625 219.005 371.423 221.451 370.148 223.84C370.033 224.052 369.975 224.289 369.98 224.53C369.985 224.77 370.053 225.005 370.176 225.212C370.3 225.418 370.476 225.589 370.686 225.707C370.896 225.826 371.133 225.888 371.374 225.887L371.382 225.895ZM379.231 207.442C379.525 207.441 379.812 207.347 380.05 207.174C380.287 207.001 380.465 206.758 380.556 206.479C381.373 203.854 382.191 201.154 382.812 198.472C382.875 198.288 382.899 198.093 382.883 197.9C382.866 197.707 382.809 197.519 382.715 197.349C382.622 197.179 382.494 197.03 382.339 196.912C382.185 196.795 382.007 196.71 381.818 196.665C381.629 196.619 381.432 196.613 381.241 196.648C381.05 196.682 380.868 196.756 380.706 196.865C380.545 196.974 380.409 197.115 380.305 197.279C380.202 197.443 380.134 197.627 380.106 197.819C379.468 200.437 378.732 203.063 377.907 205.623C377.793 205.975 377.824 206.357 377.993 206.685C378.162 207.014 378.454 207.262 378.806 207.376C378.944 207.42 379.087 207.442 379.231 207.442ZM383.638 187.871C383.976 187.872 384.303 187.75 384.557 187.527C384.812 187.305 384.976 186.998 385.02 186.664C385.102 186.033 385.181 185.403 385.257 184.772C385.502 182.66 385.69 180.516 385.821 178.395C385.844 178.028 385.719 177.666 385.475 177.39C385.23 177.114 384.886 176.946 384.517 176.923C384.148 176.901 383.786 177.025 383.509 177.269C383.232 177.513 383.064 177.856 383.041 178.224C382.919 180.295 382.731 182.391 382.493 184.454C382.423 185.074 382.346 185.691 382.265 186.305C382.24 186.486 382.252 186.67 382.3 186.847C382.347 187.023 382.429 187.188 382.541 187.333C382.653 187.478 382.792 187.599 382.951 187.69C383.11 187.781 383.285 187.84 383.466 187.863L383.638 187.871ZM384.537 167.835H384.595C384.964 167.82 385.313 167.66 385.564 167.39C385.815 167.119 385.949 166.76 385.936 166.392C385.829 163.644 385.617 160.863 385.322 158.107C385.258 157.762 385.065 157.453 384.782 157.244C384.499 157.034 384.147 156.939 383.796 156.977C383.446 157.015 383.123 157.184 382.892 157.449C382.661 157.715 382.539 158.057 382.551 158.409C382.845 161.1 383.041 163.823 383.148 166.498C383.16 166.865 383.318 167.212 383.586 167.464C383.854 167.716 384.21 167.852 384.578 167.843L384.537 167.835ZM382.085 147.93C382.18 147.94 382.276 147.94 382.371 147.93C382.73 147.856 383.045 147.642 383.248 147.337C383.45 147.031 383.523 146.658 383.45 146.299C382.894 143.617 382.232 140.901 381.496 138.226C381.397 137.871 381.161 137.569 380.839 137.387C380.517 137.205 380.136 137.158 379.779 137.256C379.422 137.354 379.119 137.59 378.937 137.911C378.754 138.232 378.707 138.613 378.806 138.969C379.534 141.578 380.171 144.236 380.719 146.862C380.789 147.177 380.968 147.457 381.223 147.655C381.478 147.853 381.794 147.956 382.117 147.947L382.085 147.93ZM376.451 128.678C376.677 128.678 376.9 128.624 377.1 128.519C377.3 128.414 377.471 128.263 377.599 128.077C377.727 127.892 377.808 127.678 377.834 127.454C377.861 127.231 377.832 127.004 377.751 126.794C376.77 124.225 375.691 121.648 374.546 119.129C374.374 118.827 374.094 118.6 373.762 118.493C373.43 118.386 373.071 118.407 372.753 118.551C372.436 118.695 372.184 118.952 372.047 119.271C371.91 119.591 371.897 119.95 372.012 120.278C373.132 122.725 374.187 125.261 375.151 127.772C375.25 128.045 375.431 128.28 375.67 128.446C375.909 128.611 376.193 128.698 376.484 128.694L376.451 128.678ZM367.866 110.542C368.111 110.543 368.351 110.48 368.564 110.359C368.776 110.237 368.952 110.063 369.075 109.852C369.198 109.641 369.262 109.401 369.263 109.157C369.263 108.914 369.199 108.674 369.077 108.463C367.711 106.073 366.248 103.692 364.727 101.385C364.634 101.215 364.508 101.067 364.355 100.949C364.202 100.832 364.026 100.747 363.839 100.7C363.652 100.653 363.457 100.645 363.266 100.678C363.076 100.71 362.894 100.781 362.733 100.887C362.571 100.992 362.433 101.13 362.328 101.292C362.222 101.453 362.152 101.635 362.12 101.825C362.089 102.015 362.097 102.209 362.144 102.396C362.192 102.583 362.278 102.758 362.397 102.909C363.885 105.168 365.316 107.5 366.656 109.833C366.778 110.052 366.957 110.235 367.174 110.362C367.392 110.488 367.639 110.553 367.891 110.55L367.866 110.542ZM356.583 93.9314C356.845 93.9296 357.101 93.8545 357.322 93.7147C357.544 93.5749 357.721 93.3759 357.834 93.1406C357.947 92.9052 357.992 92.6428 357.963 92.3832C357.935 92.1237 357.833 91.8775 357.671 91.6726C355.946 89.5117 354.139 87.3834 352.283 85.3447C352.028 85.0987 351.689 84.9586 351.334 84.9527C350.979 84.9469 350.636 85.0757 350.373 85.3131C350.11 85.5506 349.947 85.8789 349.917 86.2315C349.888 86.5841 349.994 86.9347 350.214 87.2121C352.029 89.21 353.804 91.2894 355.488 93.4095C355.62 93.5798 355.79 93.7171 355.984 93.8105C356.179 93.9039 356.392 93.9509 356.608 93.9477L356.583 93.9314ZM342.872 79.2534C343.159 79.258 343.44 79.1746 343.678 79.0145C343.915 78.8544 344.098 78.6253 344.2 78.3582C344.303 78.0912 344.321 77.7992 344.251 77.5217C344.182 77.2442 344.029 76.9947 343.812 76.807C341.752 74.9478 339.594 73.1538 337.402 71.474C337.257 71.3632 337.091 71.282 336.914 71.2351C336.737 71.1883 336.553 71.1766 336.371 71.2008C336.19 71.2251 336.015 71.2847 335.856 71.3763C335.698 71.468 335.559 71.5898 335.448 71.7349C335.337 71.88 335.256 72.0456 335.209 72.222C335.162 72.3985 335.15 72.5825 335.174 72.7635C335.199 72.9444 335.258 73.1189 335.35 73.2768C335.442 73.4347 335.564 73.573 335.71 73.6839C337.844 75.3148 339.945 77.0516 341.94 78.8619C342.194 79.1162 342.537 79.2624 342.897 79.2697L342.872 79.2534ZM143.065 71.0092C143.281 71.0097 143.494 70.9593 143.686 70.8624C146.09 69.6719 148.592 68.5139 151.086 67.4294C151.266 67.365 151.431 67.2644 151.57 67.1338C151.71 67.0033 151.821 66.8456 151.897 66.6704C151.973 66.4953 152.012 66.3065 152.012 66.1158C152.011 65.925 151.972 65.7362 151.896 65.5613C151.819 65.3863 151.708 65.2287 151.568 65.0984C151.429 64.9681 151.264 64.8678 151.083 64.8036C150.903 64.7395 150.712 64.7129 150.521 64.7256C150.33 64.7382 150.144 64.7898 149.974 64.8771C147.415 65.9861 144.888 67.1603 142.444 68.3753C142.166 68.5178 141.945 68.7486 141.814 69.0311C141.683 69.3136 141.651 69.6315 141.723 69.9343C141.794 70.2371 141.965 70.5074 142.208 70.7021C142.451 70.8969 142.753 71.005 143.065 71.0092ZM326.675 67.3886C326.979 67.3851 327.273 67.2831 327.513 67.0982C327.753 66.9132 327.927 66.6553 328.007 66.3634C328.088 66.0714 328.07 65.7614 327.958 65.48C327.847 65.1986 327.646 64.9612 327.387 64.8036C325.024 63.4174 322.546 62.0964 320.028 60.8732C319.862 60.7786 319.678 60.7191 319.488 60.6984C319.297 60.6776 319.105 60.6961 318.922 60.7526C318.739 60.8091 318.57 60.9024 318.425 61.0268C318.279 61.1512 318.161 61.304 318.078 61.4757C317.994 61.6475 317.947 61.8345 317.939 62.0252C317.931 62.216 317.962 62.4063 318.031 62.5845C318.099 62.7627 318.204 62.925 318.338 63.0613C318.472 63.1975 318.633 63.3048 318.81 63.3766C321.263 64.559 323.667 65.823 325.972 67.2011C326.194 67.3362 326.448 67.4068 326.708 67.4049L326.675 67.3886ZM161.633 63.1891C161.792 63.1887 161.949 63.1611 162.099 63.1075C164.633 62.2106 167.25 61.3543 169.858 60.5552C170.186 60.4267 170.453 60.1795 170.606 59.8631C170.759 59.5467 170.787 59.1843 170.683 58.8485C170.58 58.5126 170.353 58.228 170.049 58.0516C169.744 57.8751 169.384 57.8199 169.04 57.8968C166.383 58.7123 163.734 59.5766 161.159 60.4899C160.854 60.6042 160.6 60.8206 160.438 61.102C160.276 61.3833 160.218 61.712 160.273 62.0316C160.329 62.3511 160.494 62.6414 160.74 62.8527C160.987 63.0639 161.3 63.1829 161.625 63.1891H161.633ZM308.492 58.9161C308.817 58.9118 309.131 58.7941 309.379 58.5835C309.627 58.3729 309.794 58.0825 309.85 57.7625C309.906 57.4425 309.849 57.113 309.687 56.8308C309.526 56.5487 309.271 56.3316 308.966 56.217C306.407 55.3037 303.741 54.4475 301.035 53.681C300.679 53.5804 300.298 53.6248 299.976 53.8045C299.653 53.9842 299.415 54.2844 299.314 54.6391C299.213 54.9938 299.258 55.3739 299.438 55.6958C299.618 56.0177 299.919 56.2551 300.275 56.3556C302.916 57.1058 305.524 57.9457 308.026 58.802C308.172 58.8747 308.329 58.9216 308.492 58.9406V58.9161ZM180.945 57.4891C181.053 57.5017 181.163 57.5017 181.272 57.4891C183.872 56.8612 186.562 56.2578 189.26 55.7114C189.452 55.6886 189.637 55.6263 189.803 55.5285C189.97 55.4307 190.114 55.2996 190.227 55.1433C190.34 54.9871 190.42 54.8091 190.461 54.6207C190.501 54.4323 190.503 54.2376 190.464 54.0487C190.425 53.8598 190.348 53.6809 190.237 53.5234C190.125 53.3659 189.982 53.2331 189.817 53.1334C189.652 53.0337 189.467 52.9693 189.276 52.9443C189.084 52.9192 188.889 52.934 188.704 52.9878C185.973 53.5423 183.25 54.1458 180.618 54.79C180.294 54.8774 180.012 55.0781 179.824 55.3555C179.636 55.6329 179.555 55.9685 179.595 56.3008C179.634 56.6332 179.792 56.9402 180.04 57.1659C180.288 57.3916 180.609 57.5207 180.945 57.5299V57.4891ZM289.106 53.6565C289.448 53.6475 289.774 53.5142 290.024 53.2816C290.273 53.049 290.429 52.7332 290.461 52.394C290.493 52.0548 290.4 51.7156 290.199 51.4404C289.997 51.1652 289.702 50.973 289.368 50.9003C286.719 50.3866 283.963 49.9218 281.192 49.5222C281.005 49.4843 280.812 49.4849 280.626 49.5239C280.439 49.563 280.263 49.6397 280.107 49.7493C279.951 49.8589 279.819 49.9991 279.72 50.1613C279.621 50.3236 279.556 50.5043 279.529 50.6925C279.502 50.8808 279.514 51.0725 279.564 51.2559C279.614 51.4393 279.702 51.6105 279.821 51.759C279.94 51.9076 280.088 52.0303 280.256 52.1196C280.424 52.2089 280.609 52.2629 280.799 52.2784C283.538 52.6698 286.245 53.0939 288.853 53.6321C288.928 53.6545 289.004 53.6708 289.082 53.681L289.106 53.6565ZM200.69 53.6565H200.903C203.568 53.2488 206.299 52.8411 209.021 52.5475C209.211 52.5352 209.396 52.4845 209.566 52.3984C209.735 52.3123 209.885 52.1926 210.007 52.0467C210.128 51.9007 210.219 51.7317 210.272 51.5498C210.326 51.3678 210.342 51.1769 210.319 50.9886C210.296 50.8003 210.235 50.6187 210.139 50.4547C210.044 50.2908 209.916 50.1481 209.763 50.0352C209.61 49.9224 209.436 49.8419 209.251 49.7985C209.065 49.7552 208.873 49.7499 208.686 49.7831C205.939 50.1175 203.175 50.4926 200.51 50.9085C200.171 50.9716 199.868 51.1574 199.658 51.43C199.448 51.7027 199.347 52.043 199.373 52.3858C199.399 52.7285 199.552 53.0494 199.801 53.2869C200.05 53.5244 200.378 53.6619 200.723 53.6728L200.69 53.6565ZM220.689 51.3488H220.803C223.485 51.1368 226.24 50.9492 228.979 50.8024C229.335 50.7639 229.663 50.5906 229.894 50.3182C230.126 50.0459 230.244 49.6952 230.224 49.3386C230.204 48.982 230.048 48.6466 229.787 48.4016C229.527 48.1566 229.182 48.0207 228.824 48.0218C226.052 48.1767 223.272 48.3561 220.566 48.5763C220.223 48.6243 219.91 48.7975 219.688 49.0625C219.466 49.3275 219.35 49.6653 219.363 50.0104C219.377 50.3556 219.518 50.6836 219.76 50.9308C220.001 51.1781 220.327 51.327 220.672 51.3488H220.689ZM269.157 51.0308C269.502 51.009 269.827 50.8601 270.069 50.6128C270.311 50.3656 270.452 50.0376 270.466 49.6924C270.479 49.3472 270.363 49.0095 270.141 48.7445C269.919 48.4796 269.606 48.3063 269.263 48.2583C266.597 48.0462 263.809 47.875 260.989 47.7527C260.799 47.7324 260.607 47.7512 260.424 47.8078C260.242 47.8644 260.073 47.9576 259.928 48.0818C259.784 48.206 259.666 48.3584 259.582 48.5298C259.499 48.7011 259.452 48.8876 259.443 49.0779C259.435 49.2682 259.466 49.4581 259.534 49.6361C259.602 49.8141 259.706 49.9762 259.839 50.1126C259.972 50.249 260.132 50.3567 260.309 50.4291C260.485 50.5014 260.675 50.5369 260.866 50.5333C263.654 50.6556 266.401 50.8269 269.042 51.0308H269.157ZM240.802 50.354C243.467 50.2969 246.084 50.2643 248.561 50.2643H249.002C249.194 50.2789 249.388 50.2539 249.569 50.1907C249.751 50.1274 249.918 50.0274 250.059 49.8969C250.201 49.7664 250.313 49.6081 250.391 49.432C250.468 49.256 250.507 49.066 250.507 48.8739C250.507 48.6818 250.468 48.4918 250.391 48.3157C250.313 48.1397 250.201 47.9815 250.059 47.8509C249.918 47.7204 249.751 47.6204 249.569 47.5572C249.388 47.494 249.194 47.4689 249.002 47.4836H248.561C246.059 47.4836 243.426 47.4836 240.736 47.5733C240.385 47.6001 240.057 47.7582 239.818 48.016C239.578 48.2738 239.445 48.6122 239.445 48.9636C239.445 49.315 239.578 49.6534 239.818 49.9112C240.057 50.169 240.385 50.3271 240.736 50.354H240.802Z" fill="#A0D5F2"/>
<path d="M75.0563 99.974L112.462 69.9248L123.794 78.7398L75.0563 99.974Z" fill="#9FBAFF"/>
<path d="M116.543 100.227L113.403 81.2676L75.0575 99.9739L116.543 100.227Z" fill="#DCF1FC"/>
<path d="M110.387 54.1621L75.0578 99.9739L112.463 69.9247L110.387 54.1621Z" fill="#DCF1FC"/>
<path d="M123.794 78.7393L113.402 81.2671L113.86 84.0234L123.794 78.7393Z" fill="#9FBAFF"/>
<path d="M290.863 116.299H414.755C415.817 116.299 416.677 117.157 416.677 118.215V201.342C416.677 202.4 415.817 203.258 414.755 203.258H290.863C289.802 203.258 288.942 202.4 288.942 201.342V118.215C288.942 117.157 289.802 116.299 290.863 116.299Z" fill="#BFD3FF"/>
<path d="M290.863 116.299H414.755C415.817 116.299 416.677 117.157 416.677 118.215V122.716C416.677 123.775 415.817 124.633 414.755 124.633H290.863C289.802 124.633 288.942 123.775 288.942 122.716V118.215C288.942 117.157 289.802 116.299 290.863 116.299Z" fill="#044E55"/>
<path d="M373.279 133.008H404.921V182.204H373.279V133.008Z" fill="#9FBAFF"/>
<path d="M297.144 133.008H364.417V135.772H297.144V133.008Z" fill="#9FBAFF"/>
<path d="M297.144 138.862H364.417V142.059H297.144V138.862Z" fill="#9FBAFF"/>
<path d="M326.977 118.631H411.894V123.189H326.977V118.631Z" fill="white"/>
<path d="M303.261 123.19C302.873 123.19 302.558 122.876 302.558 122.488C302.558 122.101 302.873 121.787 303.261 121.787C303.65 121.787 303.964 122.101 303.964 122.488C303.964 122.876 303.65 123.19 303.261 123.19Z" fill="white"/>
<path d="M301.552 123.19C301.163 123.19 300.849 122.876 300.849 122.488C300.849 122.101 301.163 121.787 301.552 121.787C301.94 121.787 302.255 122.101 302.255 122.488C302.255 122.876 301.94 123.19 301.552 123.19Z" fill="white"/>
<path d="M299.849 123.19C299.46 123.19 299.145 122.876 299.145 122.488C299.145 122.101 299.46 121.787 299.849 121.787C300.237 121.787 300.552 122.101 300.552 122.488C300.552 122.876 300.237 123.19 299.849 123.19Z" fill="white"/>
<path d="M328.098 122.366L328.776 121.199C328.635 121.084 328.521 120.938 328.443 120.773C328.366 120.608 328.326 120.428 328.327 120.245C328.34 120.023 328.417 119.809 328.551 119.63C328.684 119.451 328.867 119.315 329.077 119.238C329.287 119.162 329.515 119.148 329.732 119.199C329.95 119.251 330.148 119.364 330.301 119.526C330.455 119.688 330.557 119.891 330.597 120.111C330.636 120.33 330.61 120.556 330.521 120.761C330.433 120.966 330.287 121.141 330.1 121.263C329.914 121.386 329.695 121.452 329.471 121.452C329.32 121.453 329.169 121.423 329.03 121.363L328.556 122.61C328.54 122.639 328.518 122.664 328.492 122.685C328.465 122.705 328.435 122.72 328.403 122.728C328.371 122.737 328.338 122.739 328.305 122.734C328.272 122.729 328.241 122.717 328.212 122.7C328.157 122.666 328.116 122.614 328.095 122.553C328.074 122.492 328.075 122.426 328.098 122.366ZM330.338 120.27C330.33 120.099 330.272 119.934 330.171 119.796C330.069 119.658 329.93 119.552 329.769 119.493C329.608 119.433 329.433 119.422 329.266 119.461C329.099 119.5 328.947 119.587 328.829 119.711C328.711 119.835 328.632 119.991 328.603 120.16C328.573 120.328 328.594 120.502 328.662 120.659C328.731 120.816 328.844 120.949 328.988 121.042C329.132 121.136 329.3 121.185 329.471 121.183C329.707 121.175 329.93 121.074 330.092 120.903C330.254 120.732 330.343 120.505 330.338 120.27Z" fill="#151840"/>
<path d="M316.309 118.631H323.488V122.953H316.309V118.631Z" fill="#F17531"/>
<path d="M299.851 146.699H358.956V199.483H299.851V146.699Z" fill="#E3E9F6"/>
<path d="M329.4 155.098H352.808V177.408H329.4V155.098Z" fill="white"/>
<path d="M300.848 180.939H324.256V199.483H300.848V180.939Z" fill="white"/>
<path d="M314.467 149.341H343.067V151.738H314.467V149.341Z" fill="#F17531"/>
<path d="M300.854 155.098H325.292V156.296H300.854V155.098Z" fill="#9FBAFF"/>
<path d="M300.854 157.178H325.292V158.376H300.854V157.178Z" fill="#9FBAFF"/>
<path d="M300.854 159.257H325.292V160.456H300.854V159.257Z" fill="#9FBAFF"/>
<path d="M300.854 161.336H325.292V162.535H300.854V161.336Z" fill="#9FBAFF"/>
<path d="M300.854 163.415H325.292V164.614H300.854V163.415Z" fill="#9FBAFF"/>
<path d="M300.854 165.495H325.292V166.694H300.854V165.495Z" fill="#9FBAFF"/>
<path d="M300.854 167.574H325.292V168.773H300.854V167.574Z" fill="#9FBAFF"/>
<path d="M300.854 169.653H325.292V170.852H300.854V169.653Z" fill="#9FBAFF"/>
<path d="M300.854 171.733H325.292V172.932H300.854V171.733Z" fill="#9FBAFF"/>
<path d="M300.854 173.812H325.292V175.011H300.854V173.812Z" fill="#9FBAFF"/>
<path d="M300.854 175.892H325.292V177.09H300.854V175.892Z" fill="#9FBAFF"/>
<path d="M292.424 37.9834H363.637C364.247 37.9834 364.741 38.4763 364.741 39.0842V86.8613C364.741 87.4692 364.247 87.9621 363.637 87.9621H292.424C291.814 87.9621 291.32 87.4692 291.32 86.8613V39.0842C291.32 38.4763 291.814 37.9834 292.424 37.9834Z" fill="#D3E0FF"/>
<path d="M307.103 47.6299H350.068C351.879 47.6299 353.347 49.0939 353.347 50.8998V75.4529C353.347 77.2588 351.879 78.7229 350.068 78.7229H307.103C305.292 78.7229 303.824 77.2588 303.824 75.4529V50.8998C303.824 49.0939 305.292 47.6299 307.103 47.6299Z" fill="#9AA7D3"/>
<path d="M308.96 50.4111H347.527L328.567 68.2694L308.96 50.4111Z" fill="white"/>
<path d="M328.597 72.9744L350.771 52.0908V75.9426H306.391V52.7432L328.597 72.9744Z" fill="white"/>
<path d="M151.562 85.5895C151.232 85.2538 150.835 84.99 150.397 84.8146C149.96 84.6392 149.491 84.5559 149.019 84.5702C148.702 84.5481 148.384 84.5897 148.083 84.6924C147.782 84.7951 147.505 84.9569 147.268 85.1683C147.031 85.3796 146.839 85.6361 146.703 85.9228C146.567 86.2094 146.49 86.5204 146.476 86.8372C146.476 88.2479 147.891 89.9196 151.562 91.3629C155.233 89.9114 156.647 88.2479 156.647 86.8372C156.634 86.5204 156.557 86.2094 156.421 85.9228C156.285 85.6361 156.093 85.3796 155.856 85.1683C155.619 84.9569 155.342 84.7951 155.041 84.6924C154.74 84.5897 154.422 84.5481 154.105 84.5702C153.633 84.5559 153.164 84.6392 152.726 84.8146C152.289 84.99 151.892 85.2538 151.562 85.5895Z" fill="#EAEEF8"/>
</g>
<defs>
<clipPath id="clip0">
<rect width="432" height="416" transform="matrix(-1 0 0 1 432 0)" fill="white"/>
</clipPath>
</defs>
</svg>
